<?xml version="1.0" encoding="utf-8" ?><svg version="1.1" xmlns = 'http://www.w3.org/2000/svg'><defs><font id='web' horiz-adv-x="1000">
<font-face font-family="web" descent="-473" cap-height="1307" units-per-em="2048" bbox="-164,-477,2052,1862" x-height="928" ascent="1458" />
<missing-glyph horiz-adv-x="487" d="" /><glyph horiz-adv-x="487" d="" unicode=" " />
<glyph horiz-adv-x="498" d="M 334 1307 L 311 336 L 203 365 L 180 1307 L 334 1307 Z M 360 80 C 360 72 356 62 349 50 C 341 38 332 27 322 17 C 312 7 301 -1 289 -9 C 277 -16 268 -20 260 -20 C 252 -20 242 -16 230 -9 C 218 -1 207 7 197 17 C 187 27 178 38 171 50 C 163 62 160 72 160 80 C 160 88 163 97 171 109 C 178 120 187 131 197 141 C 207 151 218 160 230 168 C 242 176 252 180 260 180 C 268 180 277 176 289 168 C 301 160 312 151 322 141 C 332 131 341 120 349 109 C 356 97 360 88 360 80 Z" unicode="!" />
<glyph horiz-adv-x="567" d="M 492 1307 L 465 887 L 391 887 L 365 1307 L 492 1307 Z M 203 1307 L 172 887 L 98 887 L 74 1307 L 203 1307 Z" unicode="&#x22;" />
<glyph horiz-adv-x="788" d="M 774 788 L 635 788 L 571 518 L 713 518 L 713 432 L 551 432 L 451 0 L 354 0 L 453 432 L 233 432 L 133 0 L 35 0 L 135 432 L 14 432 L 14 518 L 156 518 L 219 788 L 76 788 L 76 874 L 240 874 L 338 1307 L 436 1307 L 336 874 L 557 874 L 657 1307 L 754 1307 L 655 874 L 774 874 L 774 788 Z M 537 788 L 315 788 L 254 518 L 473 518 L 537 788 Z" unicode="#" />
<glyph horiz-adv-x="922" d="M 836 344 C 836 290 827 241 809 199 C 791 157 767 120 736 90 C 705 59 668 34 626 16 C 584 -1 538 -13 489 -18 L 489 -199 L 403 -199 L 403 -23 C 343 -20 287 -10 234 6 C 181 22 132 48 86 82 L 117 201 C 135 186 155 172 177 159 C 199 146 224 135 250 125 C 276 115 303 107 333 101 C 362 95 393 92 426 92 C 470 92 510 98 545 111 C 579 123 609 141 633 163 C 657 185 675 210 688 240 C 700 269 707 300 707 334 C 707 398 685 454 642 501 C 599 547 532 587 442 621 C 330 661 243 711 183 772 C 122 833 92 907 92 995 C 92 1038 99 1079 114 1117 C 128 1155 149 1188 177 1217 C 204 1246 237 1270 275 1289 C 313 1308 355 1321 403 1327 L 403 1509 L 489 1509 L 489 1329 C 589 1325 678 1299 756 1253 L 729 1141 C 696 1161 657 1179 612 1194 C 567 1209 519 1217 467 1217 C 425 1217 388 1210 357 1198 C 326 1185 300 1169 280 1149 C 259 1129 244 1106 234 1081 C 224 1055 219 1030 219 1006 C 219 949 239 900 279 860 C 319 820 381 784 465 754 C 523 732 575 707 621 681 C 667 654 706 624 738 591 C 770 557 794 520 811 480 C 827 439 836 394 836 344 Z" unicode="$" />
<glyph horiz-adv-x="1434" d="M 1348 256 C 1348 214 1341 177 1327 143 C 1313 109 1293 79 1269 55 C 1245 30 1216 11 1182 -2 C 1148 -16 1112 -23 1073 -23 C 1033 -23 997 -16 963 -2 C 929 11 900 30 876 55 C 851 79 832 109 818 143 C 804 177 797 214 797 256 C 797 296 804 333 818 367 C 832 401 851 430 876 454 C 900 478 929 497 963 511 C 997 525 1033 532 1073 532 C 1112 532 1148 525 1182 511 C 1216 497 1245 478 1269 454 C 1293 430 1313 401 1327 367 C 1341 333 1348 296 1348 256 Z M 1239 256 C 1239 283 1234 307 1225 329 C 1216 350 1204 368 1189 383 C 1174 397 1157 408 1137 416 C 1117 424 1095 428 1073 428 C 1050 428 1028 424 1008 416 C 988 408 970 397 955 383 C 939 368 927 350 918 329 C 909 307 905 283 905 256 C 905 228 909 204 918 182 C 927 160 939 141 955 126 C 970 110 988 98 1008 90 C 1028 82 1050 78 1073 78 C 1095 78 1117 82 1137 90 C 1157 98 1174 110 1189 126 C 1204 141 1216 160 1225 182 C 1234 204 1239 228 1239 256 Z M 1280 1290 L 207 -39 L 141 18 L 1214 1346 L 1280 1290 Z M 627 1053 C 627 1011 620 974 606 940 C 592 906 572 877 548 853 C 524 828 495 809 461 796 C 427 782 391 776 352 776 C 312 776 276 782 242 796 C 208 809 179 828 155 853 C 130 877 111 906 97 940 C 83 974 76 1011 76 1053 C 76 1093 83 1130 97 1164 C 111 1198 130 1227 155 1251 C 179 1275 208 1294 242 1308 C 276 1322 312 1329 352 1329 C 391 1329 427 1322 461 1308 C 495 1294 524 1275 548 1251 C 572 1227 592 1198 606 1164 C 620 1130 627 1093 627 1053 Z M 518 1053 C 518 1079 513 1103 504 1125 C 495 1147 483 1165 468 1180 C 453 1195 436 1207 416 1215 C 396 1223 374 1227 352 1227 C 329 1227 307 1223 287 1215 C 267 1207 249 1195 234 1180 C 218 1165 206 1147 197 1125 C 188 1103 184 1079 184 1053 C 184 1025 188 1001 197 979 C 206 957 218 939 234 924 C 249 908 267 897 287 889 C 307 881 329 877 352 877 C 374 877 396 881 416 889 C 436 897 453 908 468 924 C 483 939 495 957 504 979 C 513 1001 518 1025 518 1053 Z" unicode="%" />
<glyph horiz-adv-x="1237" d="M 1223 0 L 1049 0 L 901 147 C 843 93 779 51 709 21 C 639 -8 562 -23 479 -23 C 419 -23 364 -13 316 5 C 268 23 227 48 193 80 C 159 111 132 147 114 189 C 95 230 86 273 86 319 C 86 363 92 403 104 439 C 116 475 133 509 156 539 C 179 569 207 598 239 624 C 271 650 308 674 350 698 C 289 759 244 815 215 866 C 186 916 172 968 172 1022 C 172 1068 180 1111 198 1149 C 216 1187 239 1219 269 1246 C 299 1272 333 1293 371 1307 C 409 1321 448 1329 489 1329 C 532 1329 574 1322 614 1308 C 654 1294 689 1273 720 1247 C 750 1221 775 1189 793 1151 C 811 1113 821 1071 821 1024 C 821 957 799 895 756 839 C 713 783 645 728 551 674 L 897 326 C 929 368 957 414 981 465 C 1005 516 1026 571 1044 629 L 1133 539 C 1114 481 1092 427 1067 377 C 1041 327 1013 281 983 240 L 1223 0 Z M 696 1022 C 696 1048 691 1073 681 1097 C 671 1121 657 1142 639 1160 C 621 1178 599 1192 574 1203 C 548 1213 520 1219 489 1219 C 461 1219 435 1213 411 1203 C 387 1193 367 1179 350 1161 C 333 1143 320 1123 311 1100 C 301 1077 297 1053 297 1028 C 297 1006 300 984 307 964 C 314 944 325 923 339 902 C 353 881 370 859 391 836 C 412 812 437 787 465 760 C 506 782 541 805 571 827 C 600 849 624 870 642 892 C 660 913 674 934 683 956 C 691 977 696 999 696 1022 Z M 815 233 L 436 612 C 404 594 374 576 348 557 C 321 537 298 516 279 493 C 259 469 244 444 233 417 C 222 389 217 359 217 326 C 217 294 223 263 237 235 C 250 206 269 181 293 160 C 317 139 345 122 378 110 C 410 98 446 92 485 92 C 547 92 605 104 661 129 C 716 154 767 189 815 233 Z" unicode="&#x26;" />
<glyph horiz-adv-x="276" d="M 203 1307 L 172 887 L 98 887 L 74 1307 L 203 1307 Z" unicode="'" />
<glyph horiz-adv-x="463" d="M 449 1423 C 414 1359 382 1291 354 1219 C 325 1146 300 1070 279 992 C 258 913 242 832 230 748 C 218 664 213 578 213 492 C 213 402 217 316 227 234 C 237 152 251 72 270 -5 C 289 -82 313 -158 341 -233 C 369 -307 402 -383 440 -459 L 301 -426 C 269 -363 239 -299 213 -233 C 187 -167 164 -98 145 -24 C 126 49 111 128 101 212 C 91 296 86 389 86 489 C 86 587 91 679 102 767 C 112 854 128 937 148 1017 C 168 1096 192 1171 220 1243 C 248 1315 281 1384 317 1452 L 449 1423 Z" unicode="(" />
<glyph horiz-adv-x="463" d="M 377 504 C 377 406 371 313 361 226 C 350 139 335 56 315 -22 C 295 -101 270 -177 241 -249 C 212 -321 179 -391 143 -459 L 14 -430 C 48 -366 80 -298 109 -225 C 137 -152 162 -76 183 2 C 204 81 220 163 232 247 C 244 331 250 416 250 502 C 250 592 245 678 235 760 C 225 842 210 921 191 999 C 172 1076 148 1152 120 1227 C 92 1302 59 1378 23 1454 L 162 1419 C 194 1355 223 1291 249 1226 C 275 1160 298 1091 317 1017 C 336 943 351 864 361 780 C 371 696 377 604 377 504 Z" unicode=")" />
<glyph horiz-adv-x="836" d="M 807 1077 L 494 993 L 682 754 L 600 662 L 416 934 L 252 682 L 141 733 L 340 991 L 51 1069 L 66 1188 L 367 1079 L 356 1376 L 477 1405 L 463 1079 L 743 1186 L 807 1077 Z" unicode="*" />
<glyph horiz-adv-x="946" d="M 856 512 L 535 512 L 535 207 L 412 207 L 412 512 L 90 512 L 90 623 L 412 623 L 412 928 L 535 928 L 535 623 L 856 623 L 856 512 Z" unicode="+" />
<glyph horiz-adv-x="381" d="M 291 80 C 291 56 286 30 277 1 C 268 -27 257 -56 243 -85 C 229 -114 213 -142 195 -168 C 177 -194 160 -217 143 -236 L 92 -227 C 104 -211 116 -193 127 -174 C 137 -154 147 -135 155 -115 C 163 -95 169 -75 173 -56 C 177 -37 180 -20 180 -4 C 170 -2 160 1 150 7 C 140 13 130 21 121 30 C 112 38 105 47 99 56 C 93 65 90 73 90 80 C 90 88 93 98 101 110 C 109 122 118 133 129 143 C 139 153 150 162 162 169 C 173 176 182 180 190 180 C 197 180 206 176 218 169 C 229 162 240 154 251 144 C 262 134 271 123 279 111 C 287 99 291 89 291 80 Z" unicode="," />
<glyph horiz-adv-x="692" d="M 602 512 L 90 512 L 90 623 L 602 623 L 602 512 Z" unicode="-" />
<glyph horiz-adv-x="381" d="M 291 80 C 291 72 287 62 280 50 C 272 38 263 27 253 17 C 242 7 231 -1 219 -9 C 207 -16 198 -20 190 -20 C 182 -20 172 -16 161 -9 C 149 -1 138 7 128 17 C 117 27 108 38 101 50 C 93 62 90 72 90 80 C 90 88 93 97 101 109 C 108 120 117 131 128 141 C 138 151 149 160 161 168 C 172 176 182 180 190 180 C 198 180 207 176 219 168 C 231 160 242 151 253 141 C 263 131 272 120 280 109 C 287 97 291 88 291 80 Z" unicode="." />
<glyph horiz-adv-x="940" d="M 846 1309 L 12 -326 L -86 -274 L 748 1360 L 846 1309 Z" unicode="/" />
<glyph horiz-adv-x="1032" d="M 946 655 C 946 544 934 447 911 363 C 888 279 857 208 818 152 C 778 95 733 52 681 23 C 629 -5 574 -20 516 -20 C 458 -20 402 -5 350 23 C 298 51 252 94 213 151 C 174 207 143 278 120 362 C 97 446 86 543 86 655 C 86 765 97 862 120 946 C 143 1030 174 1100 213 1157 C 252 1213 298 1256 350 1285 C 402 1314 458 1329 516 1329 C 574 1329 629 1314 681 1285 C 733 1256 778 1213 818 1156 C 857 1099 888 1029 911 945 C 934 861 946 765 946 655 Z M 815 655 C 815 749 806 832 790 902 C 773 972 751 1030 724 1076 C 696 1122 664 1156 628 1178 C 592 1200 554 1212 516 1212 C 476 1212 438 1200 402 1178 C 366 1155 334 1121 307 1075 C 279 1029 257 971 241 901 C 225 831 217 749 217 655 C 217 559 225 476 241 406 C 257 336 279 277 307 231 C 334 185 366 150 402 128 C 438 105 476 94 516 94 C 554 94 592 105 628 128 C 664 150 696 185 724 231 C 751 277 773 336 790 406 C 806 476 815 559 815 655 Z" unicode="0" />
<glyph horiz-adv-x="522" d="M 381 0 L 250 0 L 250 1200 L 14 1176 L 43 1288 L 381 1319 L 381 0 Z" unicode="1" />
<glyph horiz-adv-x="922" d="M 836 0 L 76 0 L 76 31 C 258 228 397 403 495 557 C 592 710 641 838 641 942 C 641 988 634 1029 621 1063 C 608 1097 590 1125 567 1147 C 544 1169 517 1186 486 1197 C 454 1208 421 1214 385 1214 C 339 1214 293 1207 249 1193 C 204 1179 165 1162 131 1141 L 100 1253 C 136 1276 178 1294 226 1308 C 274 1322 327 1329 385 1329 C 441 1329 492 1320 540 1304 C 587 1287 628 1262 662 1229 C 696 1196 723 1155 743 1107 C 762 1058 772 1002 772 938 C 772 878 760 816 737 752 C 713 688 680 621 638 552 C 596 483 545 412 486 339 C 426 265 361 190 289 113 L 836 113 L 836 0 Z" unicode="2" />
<glyph horiz-adv-x="889" d="M 803 391 C 803 331 792 277 772 227 C 751 177 721 133 682 97 C 642 61 594 32 538 12 C 482 -7 418 -18 346 -18 C 304 -18 261 -13 218 -3 C 175 7 138 20 106 37 L 90 168 C 125 146 165 129 210 116 C 254 102 298 96 340 96 C 384 96 427 102 467 116 C 507 130 542 150 572 176 C 602 202 627 234 645 272 C 663 310 672 353 672 403 C 672 441 664 478 649 512 C 634 546 614 575 588 601 C 562 626 532 646 497 661 C 462 676 425 684 385 684 C 375 684 365 683 355 683 C 344 682 334 681 324 680 L 295 788 C 335 795 372 806 406 821 C 440 835 469 853 493 873 C 517 893 535 916 549 942 C 562 968 569 995 569 1024 C 569 1050 564 1074 554 1097 C 544 1120 530 1140 512 1158 C 493 1175 470 1189 444 1199 C 418 1209 388 1214 354 1214 C 314 1214 277 1208 243 1198 C 209 1188 175 1172 141 1151 L 113 1262 C 147 1282 185 1298 226 1310 C 266 1321 310 1327 358 1327 C 408 1327 455 1319 497 1305 C 539 1290 575 1269 605 1243 C 635 1217 658 1186 675 1150 C 691 1114 700 1076 700 1034 C 700 999 694 967 683 938 C 671 908 656 882 637 860 C 618 837 596 818 571 802 C 546 786 520 775 492 768 C 532 763 570 751 608 732 C 645 712 678 686 707 654 C 736 622 759 583 777 539 C 794 495 803 445 803 391 Z" unicode="3" />
<glyph horiz-adv-x="963" d="M 877 375 L 731 375 L 731 0 L 600 0 L 600 375 L 39 375 L 14 479 L 643 1307 L 731 1307 L 731 481 L 877 481 L 877 375 Z M 602 1079 L 598 1081 C 574 1044 550 1009 525 976 C 500 943 476 911 453 879 L 152 481 L 600 481 L 600 881 C 600 915 600 947 600 978 C 600 1009 600 1043 602 1079 Z" unicode="4" />
<glyph horiz-adv-x="930" d="M 844 391 C 844 335 834 282 814 232 C 794 182 766 138 729 101 C 691 63 645 34 590 12 C 535 -9 473 -20 403 -20 C 351 -20 302 -14 256 -2 C 210 10 173 24 145 41 L 129 174 C 169 147 211 127 257 114 C 302 100 349 94 397 94 C 440 94 481 101 519 115 C 557 129 591 149 620 175 C 648 201 671 232 688 268 C 704 304 713 345 713 391 C 713 435 704 476 688 514 C 672 551 649 583 621 610 C 593 636 560 657 522 672 C 484 686 443 694 401 694 C 355 694 312 690 273 683 C 233 675 198 665 168 653 L 188 1307 L 739 1307 L 711 1194 L 313 1194 L 301 793 C 312 796 327 799 347 803 C 367 807 388 809 412 809 C 472 809 528 799 580 779 C 632 759 678 731 717 695 C 756 659 787 615 810 563 C 832 511 844 454 844 391 Z" unicode="5" />
<glyph horiz-adv-x="1004" d="M 928 391 C 928 332 917 277 897 227 C 876 177 847 133 810 97 C 773 60 729 31 679 11 C 628 -9 572 -20 512 -20 C 454 -20 399 -9 348 10 C 296 30 251 60 212 99 C 173 137 142 185 120 241 C 97 297 86 362 86 434 C 86 521 101 608 131 696 C 161 784 203 867 257 947 C 310 1027 373 1100 446 1167 C 519 1234 598 1291 684 1337 L 815 1280 C 749 1245 688 1206 630 1163 C 572 1120 520 1073 473 1023 C 426 973 385 919 349 862 C 313 804 285 744 264 682 C 292 717 326 746 367 770 C 407 793 457 805 516 805 C 576 805 632 794 683 774 C 733 753 777 724 813 688 C 849 651 878 607 898 557 C 918 506 928 451 928 391 Z M 797 385 C 797 429 789 469 775 506 C 761 543 741 575 715 601 C 689 627 659 648 624 663 C 588 678 550 686 508 686 C 474 686 441 681 411 672 C 380 663 352 649 327 631 C 301 612 279 589 261 561 C 243 533 229 501 221 463 C 219 453 219 444 219 434 C 219 424 219 415 219 406 C 219 360 226 317 242 279 C 258 240 279 206 306 178 C 333 150 364 128 400 112 C 436 96 474 88 514 88 C 554 88 591 95 625 110 C 659 124 689 145 715 171 C 741 197 761 229 775 265 C 789 301 797 341 797 385 Z" unicode="6" />
<glyph horiz-adv-x="920" d="M 866 1307 L 307 0 L 168 0 L 680 1194 L 14 1194 L 14 1307 L 866 1307 Z" unicode="7" />
<glyph horiz-adv-x="1020" d="M 934 354 C 934 295 922 242 900 196 C 877 149 846 109 808 77 C 770 45 725 20 674 3 C 622 -14 568 -23 510 -23 C 452 -23 397 -14 346 3 C 294 20 249 45 211 77 C 173 109 142 149 120 196 C 97 242 86 295 86 354 C 86 403 95 448 113 488 C 131 528 154 563 182 593 C 210 623 241 648 275 669 C 309 689 343 705 377 715 C 347 725 317 740 289 758 C 261 776 236 798 214 823 C 192 848 175 876 162 908 C 149 940 143 974 143 1012 C 143 1060 152 1103 172 1142 C 191 1181 217 1214 250 1242 C 283 1270 322 1291 367 1306 C 411 1321 459 1329 510 1329 C 560 1329 608 1321 652 1306 C 696 1290 735 1269 768 1241 C 800 1213 826 1180 845 1141 C 864 1102 874 1059 874 1012 C 874 975 867 941 854 909 C 841 877 824 849 803 824 C 781 798 757 777 729 759 C 701 741 673 727 643 717 C 675 707 708 692 742 672 C 776 652 808 626 836 595 C 864 564 888 528 906 488 C 924 448 934 403 934 354 Z M 750 1010 C 750 1040 743 1068 731 1094 C 718 1120 701 1142 679 1160 C 657 1178 632 1193 603 1203 C 574 1213 543 1219 510 1219 C 478 1219 447 1213 418 1203 C 389 1193 364 1178 342 1160 C 320 1142 303 1120 291 1094 C 278 1068 272 1040 272 1010 C 272 982 277 956 289 932 C 300 907 316 884 338 863 C 359 842 385 823 415 807 C 445 791 478 778 516 768 C 589 789 646 821 688 864 C 729 906 750 955 750 1010 Z M 803 358 C 803 394 794 428 778 460 C 761 492 739 520 711 545 C 683 570 650 592 614 610 C 578 628 540 643 500 653 C 462 643 426 629 391 611 C 356 593 325 572 298 547 C 271 522 249 494 233 462 C 217 430 209 396 209 358 C 209 318 217 281 233 248 C 249 215 271 187 299 164 C 326 141 357 123 393 111 C 429 98 466 92 506 92 C 546 92 584 98 620 111 C 656 123 687 141 714 164 C 741 187 763 215 779 248 C 795 281 803 318 803 358 Z" unicode="8" />
<glyph horiz-adv-x="1004" d="M 918 877 C 918 789 903 701 873 613 C 843 525 801 441 748 361 C 695 281 632 208 559 141 C 486 73 407 17 322 -29 L 190 29 C 256 64 317 103 375 146 C 432 189 484 236 531 286 C 578 336 619 389 655 446 C 691 502 719 562 741 625 C 713 589 678 560 637 538 C 595 515 545 504 487 504 C 426 504 370 514 320 535 C 270 555 226 584 190 621 C 154 658 126 702 106 753 C 86 804 76 860 76 920 C 76 978 86 1033 107 1083 C 127 1133 156 1176 193 1212 C 230 1248 274 1277 325 1298 C 375 1318 431 1329 492 1329 C 550 1329 604 1319 656 1299 C 707 1279 752 1249 791 1211 C 830 1172 861 1125 884 1069 C 906 1013 918 949 918 877 Z M 786 897 C 786 942 778 984 762 1023 C 746 1061 724 1095 697 1123 C 670 1151 639 1172 603 1188 C 567 1204 529 1212 489 1212 C 449 1212 411 1204 377 1190 C 343 1176 313 1156 288 1130 C 262 1104 242 1073 228 1037 C 214 1001 207 961 207 918 C 207 874 214 833 228 796 C 242 759 262 727 288 701 C 314 674 344 653 380 638 C 415 623 454 616 496 616 C 530 616 562 620 594 629 C 625 638 653 652 679 671 C 704 689 726 713 744 741 C 762 769 775 803 784 842 C 785 851 786 860 786 869 C 786 878 786 887 786 897 Z" unicode="9" />
<glyph horiz-adv-x="381" d="M 291 848 C 291 840 287 830 280 819 C 272 808 263 797 253 787 C 242 777 231 768 219 761 C 207 753 198 750 190 750 C 182 750 172 753 161 761 C 149 768 138 777 128 787 C 117 797 108 808 101 819 C 93 830 90 840 90 848 C 90 856 93 865 101 877 C 108 889 117 900 128 910 C 138 920 149 929 161 937 C 172 944 182 948 190 948 C 198 948 207 944 219 937 C 231 929 242 920 253 910 C 263 900 272 889 280 877 C 287 865 291 856 291 848 Z M 291 80 C 291 72 287 62 280 50 C 272 38 263 27 253 17 C 242 7 231 -1 219 -9 C 207 -16 198 -20 190 -20 C 182 -20 172 -16 161 -9 C 149 -1 138 7 128 17 C 117 27 108 38 101 50 C 93 62 90 72 90 80 C 90 88 93 97 101 109 C 108 120 117 131 128 141 C 138 151 149 160 161 168 C 172 176 182 180 190 180 C 198 180 207 176 219 168 C 231 160 242 151 253 141 C 263 131 272 120 280 109 C 287 97 291 88 291 80 Z" unicode=":" />
<glyph horiz-adv-x="381" d="M 291 848 C 291 840 287 830 280 819 C 272 808 263 797 253 787 C 242 777 231 768 219 761 C 207 753 198 750 190 750 C 182 750 172 753 161 761 C 149 768 138 777 128 787 C 117 797 108 808 101 819 C 93 830 90 840 90 848 C 90 856 93 865 101 877 C 108 889 117 900 128 910 C 138 920 149 929 161 937 C 172 944 182 948 190 948 C 198 948 207 944 219 937 C 231 929 242 920 253 910 C 263 900 272 889 280 877 C 287 865 291 856 291 848 Z M 291 80 C 291 56 286 30 277 1 C 268 -27 257 -56 243 -85 C 229 -114 213 -142 195 -168 C 177 -194 160 -217 143 -236 L 92 -227 C 104 -211 116 -193 127 -174 C 137 -154 147 -135 155 -115 C 163 -95 169 -75 173 -56 C 177 -37 180 -20 180 -4 C 170 -2 160 1 150 7 C 140 13 130 21 121 30 C 112 38 105 47 99 56 C 93 65 90 73 90 80 C 90 88 93 98 101 110 C 109 122 118 133 129 143 C 139 153 150 162 162 169 C 173 176 182 180 190 180 C 197 180 206 176 218 169 C 229 162 240 154 251 144 C 262 134 271 123 279 111 C 287 99 291 89 291 80 Z" unicode=";" />
<glyph horiz-adv-x="946" d="M 856 242 L 90 492 L 90 645 L 856 895 L 856 776 L 197 567 L 856 358 L 856 242 Z" unicode="&#x3C;" />
<glyph horiz-adv-x="946" d="M 856 688 L 90 688 L 90 799 L 856 799 L 856 688 Z M 856 336 L 90 336 L 90 446 L 856 446 L 856 336 Z" unicode="=" />
<glyph horiz-adv-x="946" d="M 856 492 L 90 242 L 90 358 L 750 567 L 90 776 L 90 895 L 856 645 L 856 492 Z" unicode="&#x3E;" />
<glyph horiz-adv-x="766" d="M 682 1014 C 682 982 677 953 669 926 C 660 899 648 873 632 848 C 616 822 598 797 576 772 C 554 747 531 721 506 694 C 470 657 445 620 429 584 C 413 548 406 509 406 467 C 406 448 407 426 409 402 C 411 377 414 355 418 336 L 299 365 C 295 382 291 400 289 419 C 286 438 285 457 285 477 C 285 537 296 592 318 643 C 340 693 370 738 410 778 C 428 796 446 815 462 834 C 478 852 493 872 505 892 C 517 912 527 932 534 954 C 541 975 545 998 545 1024 C 545 1048 540 1072 530 1095 C 520 1117 507 1137 489 1155 C 471 1172 450 1186 425 1196 C 399 1206 371 1212 340 1212 C 294 1212 251 1205 213 1192 C 174 1178 139 1161 109 1141 L 80 1257 C 110 1277 148 1294 192 1308 C 236 1322 285 1329 340 1329 C 389 1329 434 1321 476 1307 C 518 1293 554 1272 585 1245 C 615 1217 639 1184 656 1145 C 673 1106 682 1062 682 1014 Z M 463 80 C 463 72 459 62 452 50 C 444 38 435 27 425 17 C 415 7 404 -1 392 -9 C 380 -16 370 -20 362 -20 C 354 -20 344 -16 333 -9 C 321 -1 310 7 300 17 C 289 27 280 38 273 50 C 265 62 262 72 262 80 C 262 88 265 97 273 109 C 280 120 289 131 300 141 C 310 151 321 160 333 168 C 344 176 354 180 362 180 C 370 180 380 176 392 168 C 404 160 415 151 425 141 C 435 131 444 120 452 109 C 459 97 463 88 463 80 Z" unicode="?" />
<glyph horiz-adv-x="1550" d="M 1464 676 C 1464 628 1456 580 1442 532 C 1427 484 1406 442 1378 404 C 1350 366 1315 335 1274 311 C 1233 287 1186 276 1133 276 C 1113 276 1094 278 1076 284 C 1058 289 1041 297 1026 308 C 1011 319 998 333 988 349 C 978 365 971 384 969 406 C 959 384 947 364 932 348 C 916 332 899 318 880 308 C 860 297 839 289 817 284 C 795 278 772 276 750 276 C 714 276 682 281 654 292 C 625 303 600 318 579 338 C 558 357 542 380 531 406 C 519 432 514 459 514 489 C 514 524 520 555 534 582 C 548 608 566 631 588 650 C 610 668 636 683 665 693 C 694 703 724 710 754 713 L 934 729 L 934 788 C 934 828 920 860 892 884 C 864 908 824 920 772 920 C 736 920 701 914 668 903 C 634 892 605 878 580 862 L 553 958 C 581 975 614 990 653 1002 C 692 1014 734 1020 778 1020 C 816 1020 852 1014 886 1004 C 919 993 948 977 973 957 C 997 937 1016 912 1030 882 C 1044 852 1051 818 1051 780 L 1051 463 C 1051 445 1053 431 1058 419 C 1062 407 1069 398 1077 390 C 1085 382 1094 377 1104 374 C 1114 370 1124 369 1135 369 C 1167 369 1196 376 1224 391 C 1251 405 1275 426 1295 453 C 1315 480 1330 512 1342 550 C 1354 588 1360 630 1360 676 C 1360 758 1344 834 1312 902 C 1280 970 1238 1029 1184 1078 C 1130 1126 1069 1164 999 1191 C 929 1217 856 1231 780 1231 C 702 1231 628 1217 558 1190 C 487 1163 425 1125 371 1075 C 317 1025 273 964 241 893 C 209 822 193 743 193 655 C 193 567 208 488 240 417 C 271 346 313 286 365 236 C 417 186 477 147 545 120 C 613 93 684 80 758 80 C 794 80 829 82 863 86 C 897 90 927 96 954 106 L 942 10 C 921 2 895 -4 863 -8 C 831 -12 795 -14 754 -14 C 694 -14 637 -6 581 7 C 525 21 472 42 423 70 C 373 97 328 130 287 169 C 245 208 210 253 180 303 C 150 353 127 407 111 467 C 94 526 86 589 86 657 C 86 724 94 787 112 847 C 129 906 153 960 184 1010 C 214 1060 251 1104 294 1144 C 337 1184 384 1217 436 1245 C 487 1272 542 1293 600 1307 C 658 1321 717 1329 778 1329 C 870 1329 957 1313 1040 1282 C 1122 1250 1195 1206 1258 1149 C 1321 1092 1371 1023 1408 943 C 1445 863 1464 774 1464 676 Z M 934 547 L 934 633 L 776 616 C 755 614 736 610 718 604 C 700 598 684 591 670 581 C 656 571 646 558 638 543 C 630 527 627 509 627 489 C 627 456 639 429 663 407 C 687 385 718 375 758 375 C 779 375 800 378 821 386 C 842 394 861 405 878 420 C 894 434 908 452 918 474 C 928 495 934 519 934 547 Z" unicode="@" />
<glyph horiz-adv-x="1231" d="M 1178 0 L 1038 0 L 889 367 L 338 367 L 190 0 L 53 0 L 590 1325 L 641 1325 L 1178 0 Z M 842 479 L 686 881 C 674 911 662 943 650 977 C 638 1011 626 1046 616 1081 L 612 1081 C 602 1046 590 1011 578 977 C 566 943 554 911 543 881 L 385 479 L 842 479 Z" unicode="A" />
<glyph horiz-adv-x="1034" d="M 948 389 C 948 327 936 272 913 224 C 890 176 859 135 821 102 C 783 68 739 43 690 26 C 640 8 589 0 537 0 L 141 0 L 141 1307 L 463 1307 C 508 1307 552 1299 594 1285 C 636 1270 674 1249 706 1221 C 738 1193 764 1159 784 1119 C 803 1079 813 1033 813 983 C 813 957 809 931 803 906 C 796 880 786 857 774 835 C 762 813 747 794 729 778 C 711 761 692 748 670 739 C 706 731 741 717 775 696 C 809 674 838 648 864 617 C 889 586 909 551 925 512 C 940 473 948 432 948 389 Z M 676 983 C 676 1017 669 1047 657 1073 C 645 1099 628 1120 607 1138 C 586 1156 561 1169 533 1178 C 504 1187 474 1192 442 1192 L 272 1192 L 272 776 L 449 776 C 479 776 508 780 536 789 C 563 798 587 811 608 829 C 628 847 645 868 657 894 C 669 920 676 949 676 983 Z M 811 389 C 811 431 802 470 786 504 C 770 538 747 567 719 591 C 691 614 658 632 621 645 C 583 657 544 664 502 664 L 272 664 L 272 115 L 512 115 C 552 115 590 121 626 133 C 662 145 693 163 721 187 C 749 210 771 239 787 273 C 803 307 811 345 811 389 Z" unicode="B" />
<glyph horiz-adv-x="1237" d="M 1151 1233 L 1122 1110 C 1104 1120 1083 1131 1059 1141 C 1034 1151 1007 1161 978 1169 C 948 1177 917 1183 884 1188 C 850 1193 816 1196 782 1196 C 709 1196 639 1183 572 1158 C 505 1133 446 1097 394 1051 C 342 1004 301 947 271 879 C 240 811 225 735 225 651 C 225 566 240 490 270 423 C 300 355 341 298 393 251 C 444 204 503 168 570 143 C 637 118 708 106 782 106 C 857 106 923 113 980 128 C 1036 142 1086 162 1130 188 L 1116 59 C 1076 36 1029 18 974 6 C 918 -5 850 -12 770 -12 C 712 -12 654 -5 598 8 C 542 22 488 42 438 68 C 387 94 340 127 297 165 C 254 203 217 247 186 297 C 154 346 130 400 112 460 C 94 520 86 584 86 653 C 86 722 94 787 112 847 C 130 907 154 961 186 1011 C 218 1060 255 1104 298 1142 C 341 1180 388 1212 439 1238 C 489 1264 543 1284 599 1298 C 655 1312 712 1319 770 1319 C 852 1319 926 1310 991 1293 C 1055 1276 1109 1256 1151 1233 Z" unicode="C" />
<glyph horiz-adv-x="1294" d="M 1208 653 C 1208 583 1199 519 1182 460 C 1164 401 1140 347 1108 299 C 1076 251 1038 208 994 171 C 950 133 901 102 847 77 C 793 51 735 32 674 19 C 612 6 549 0 483 0 L 141 0 L 141 1307 L 483 1307 C 549 1307 612 1300 674 1287 C 735 1274 793 1255 847 1230 C 901 1204 950 1173 994 1136 C 1038 1098 1076 1055 1108 1007 C 1140 959 1164 905 1182 846 C 1199 786 1208 722 1208 653 Z M 1067 651 C 1067 737 1051 814 1021 881 C 991 948 949 1004 895 1050 C 841 1095 777 1129 703 1153 C 629 1176 549 1188 463 1188 L 281 1188 L 281 117 L 463 117 C 549 117 629 128 703 151 C 777 174 841 208 895 253 C 949 298 991 354 1021 420 C 1051 486 1067 563 1067 651 Z" unicode="D" />
<glyph horiz-adv-x="909" d="M 895 0 L 141 0 L 141 1307 L 823 1307 L 823 1188 L 279 1188 L 279 717 L 725 717 L 725 598 L 279 598 L 279 119 L 895 119 L 895 0 Z" unicode="E" />
<glyph horiz-adv-x="850" d="M 836 1188 L 279 1188 L 279 717 L 754 717 L 754 598 L 279 598 L 279 0 L 141 0 L 141 1307 L 836 1307 L 836 1188 Z" unicode="F" />
<glyph horiz-adv-x="1384" d="M 1264 119 C 1202 71 1131 36 1053 12 C 975 -11 886 -23 786 -23 C 725 -23 666 -16 608 -2 C 550 12 495 32 443 59 C 391 86 343 119 299 158 C 255 197 218 242 186 292 C 154 342 130 398 112 458 C 94 518 86 583 86 653 C 86 723 95 789 113 850 C 131 911 155 967 187 1017 C 219 1067 256 1111 300 1150 C 344 1188 391 1221 443 1248 C 494 1274 548 1294 605 1308 C 662 1322 720 1329 778 1329 C 863 1329 941 1320 1011 1302 C 1081 1284 1140 1259 1190 1229 L 1161 1106 C 1113 1136 1058 1160 994 1178 C 930 1196 863 1206 793 1206 C 719 1206 647 1193 579 1167 C 510 1141 449 1105 397 1057 C 345 1009 303 950 272 882 C 240 813 225 735 225 649 C 225 563 240 485 271 417 C 302 349 344 291 397 243 C 449 195 510 159 579 134 C 647 108 719 96 795 96 C 869 96 934 104 991 120 C 1047 136 1095 156 1133 182 L 1133 522 L 786 522 L 786 635 L 1264 635 L 1264 119 Z" unicode="G" />
<glyph horiz-adv-x="1307" d="M 1165 0 L 1028 0 L 1028 598 L 279 598 L 279 0 L 141 0 L 141 1307 L 279 1307 L 279 717 L 1028 717 L 1028 1307 L 1165 1307 L 1165 0 Z" unicode="H" />
<glyph horiz-adv-x="461" d="M 299 0 L 162 0 L 162 1307 L 299 1307 L 299 0 Z" unicode="I" />
<glyph horiz-adv-x="461" d="M 299 264 C 299 186 288 116 268 56 C 247 -3 219 -55 185 -98 C 150 -140 110 -174 65 -200 C 20 -226 -26 -244 -74 -254 L -164 -162 C -59 -140 21 -94 77 -22 C 133 49 162 149 162 279 L 162 1307 L 299 1307 L 299 264 Z" unicode="J" />
<glyph horiz-adv-x="1061" d="M 1034 0 L 854 0 L 281 627 L 279 627 L 279 0 L 141 0 L 141 1307 L 279 1307 L 279 678 L 281 678 L 848 1307 L 1006 1307 L 424 666 L 1034 0 Z" unicode="K" />
<glyph horiz-adv-x="901" d="M 887 0 L 141 0 L 141 1307 L 279 1307 L 279 119 L 887 119 L 887 0 Z" unicode="L" />
<glyph horiz-adv-x="1649" d="M 1548 0 L 1415 0 L 1362 678 C 1358 733 1353 789 1349 847 C 1344 905 1341 962 1339 1018 L 1335 1018 C 1323 990 1311 962 1298 932 C 1284 902 1271 873 1257 843 C 1243 813 1228 783 1214 754 C 1200 724 1186 696 1174 670 L 844 -8 L 793 -8 L 463 670 C 451 694 438 721 424 750 C 410 778 397 807 383 837 C 369 867 355 897 341 927 C 327 957 315 987 303 1016 L 299 1016 C 297 960 294 902 290 842 C 286 782 283 727 279 678 L 225 0 L 100 0 L 205 1307 L 295 1307 L 653 575 C 681 518 710 458 740 395 C 770 331 797 269 823 209 L 827 209 C 852 269 879 329 907 391 C 935 452 965 513 995 575 L 1352 1307 L 1440 1307 L 1548 0 Z" unicode="M" />
<glyph horiz-adv-x="1417" d="M 1276 -20 L 1235 -20 L 596 707 C 569 737 542 768 514 801 C 486 833 458 866 431 899 C 403 931 377 963 351 995 C 325 1026 301 1055 279 1083 L 274 1081 C 276 1020 278 960 278 900 C 278 840 279 781 279 721 L 279 0 L 141 0 L 141 1307 L 238 1307 L 844 614 C 866 588 889 561 915 532 C 940 502 966 472 992 442 C 1018 411 1043 380 1069 350 C 1094 320 1117 291 1139 264 L 1143 266 C 1141 324 1139 382 1139 440 C 1139 498 1139 554 1139 610 L 1139 1307 L 1276 1307 L 1276 -20 Z" unicode="N" />
<glyph horiz-adv-x="1540" d="M 1454 655 C 1454 587 1445 524 1428 464 C 1411 404 1387 349 1357 299 C 1326 249 1289 204 1247 164 C 1204 124 1157 90 1107 62 C 1056 34 1002 13 945 -1 C 888 -15 830 -23 770 -23 C 710 -23 651 -15 594 -1 C 537 13 483 34 433 62 C 382 90 335 124 293 164 C 250 204 213 249 183 299 C 152 349 128 404 111 464 C 94 524 86 587 86 655 C 86 722 94 785 111 845 C 128 904 152 959 183 1009 C 213 1059 250 1103 293 1143 C 335 1183 382 1216 433 1244 C 483 1271 537 1292 594 1307 C 651 1321 710 1329 770 1329 C 830 1329 888 1321 945 1307 C 1002 1292 1056 1271 1107 1244 C 1157 1216 1204 1183 1247 1143 C 1289 1103 1326 1059 1357 1009 C 1387 959 1411 904 1428 845 C 1445 785 1454 722 1454 655 Z M 1315 651 C 1315 735 1300 811 1270 879 C 1240 947 1199 1006 1149 1054 C 1099 1102 1041 1140 975 1166 C 909 1192 841 1206 770 1206 C 698 1206 629 1192 563 1166 C 497 1140 440 1102 390 1054 C 340 1006 300 947 270 879 C 240 811 225 735 225 651 C 225 567 240 490 270 422 C 300 354 340 295 390 247 C 440 199 497 161 563 135 C 629 109 698 96 770 96 C 841 96 909 109 975 135 C 1041 161 1099 199 1149 247 C 1199 295 1240 354 1270 422 C 1300 490 1315 567 1315 651 Z" unicode="O" />
<glyph horiz-adv-x="981" d="M 905 952 C 905 896 894 846 873 802 C 852 758 824 721 789 691 C 754 661 714 638 668 622 C 622 606 575 598 526 598 L 279 598 L 279 0 L 141 0 L 141 1307 L 522 1307 C 572 1307 620 1299 666 1283 C 712 1267 752 1243 788 1213 C 823 1183 851 1146 873 1102 C 894 1058 905 1008 905 952 Z M 766 950 C 766 986 758 1019 744 1049 C 730 1078 710 1103 686 1123 C 662 1143 634 1159 602 1170 C 570 1180 536 1186 500 1186 L 279 1186 L 279 715 L 504 715 C 539 715 572 720 604 731 C 636 741 664 757 688 777 C 712 797 731 821 745 850 C 759 879 766 912 766 950 Z" unicode="P" />
<glyph horiz-adv-x="1540" d="M 1534 -111 L 1442 -240 C 1430 -243 1416 -246 1400 -249 C 1383 -252 1365 -254 1346 -254 C 1310 -254 1277 -251 1247 -247 C 1216 -243 1185 -236 1155 -227 C 1125 -218 1094 -206 1062 -192 C 1030 -178 995 -161 958 -141 C 906 -114 859 -90 816 -69 C 772 -48 735 -31 705 -18 C 621 -10 541 10 466 46 C 391 81 325 128 269 187 C 213 245 168 314 135 393 C 102 472 86 559 86 655 C 86 722 94 785 111 845 C 128 904 152 959 183 1009 C 213 1059 250 1103 293 1143 C 335 1183 382 1216 433 1244 C 483 1271 537 1292 594 1307 C 651 1321 710 1329 770 1329 C 830 1329 888 1321 945 1307 C 1002 1292 1056 1271 1107 1244 C 1157 1216 1204 1183 1247 1143 C 1289 1103 1326 1059 1357 1009 C 1387 959 1411 904 1428 845 C 1445 785 1454 722 1454 655 C 1454 567 1439 486 1410 411 C 1381 335 1341 269 1291 212 C 1240 155 1181 109 1113 73 C 1045 37 973 16 895 8 L 895 4 C 916 0 940 -6 966 -15 C 992 -23 1021 -35 1053 -51 C 1086 -67 1117 -81 1145 -93 C 1173 -105 1200 -114 1226 -122 C 1251 -129 1275 -134 1299 -138 C 1323 -141 1346 -143 1370 -143 C 1401 -143 1430 -140 1456 -135 C 1482 -130 1508 -122 1534 -111 Z M 1315 651 C 1315 735 1300 811 1270 879 C 1240 947 1199 1006 1149 1054 C 1099 1102 1041 1140 975 1166 C 909 1192 841 1206 770 1206 C 698 1206 629 1192 563 1166 C 497 1140 440 1102 390 1054 C 340 1006 300 947 270 879 C 240 811 225 735 225 651 C 225 567 240 490 270 422 C 300 354 340 295 390 247 C 440 199 497 161 563 135 C 629 109 698 96 770 96 C 841 96 909 109 975 135 C 1041 161 1099 199 1149 247 C 1199 295 1240 354 1270 422 C 1300 490 1315 567 1315 651 Z" unicode="Q" />
<glyph horiz-adv-x="1034" d="M 1087 0 L 918 0 L 483 598 L 279 598 L 279 0 L 141 0 L 141 1307 L 502 1307 C 551 1307 599 1299 645 1283 C 691 1267 731 1243 767 1213 C 803 1183 831 1146 853 1102 C 874 1058 885 1008 885 952 C 885 909 878 869 865 833 C 852 797 834 764 812 736 C 789 708 762 683 731 663 C 699 643 665 628 629 618 L 1087 0 Z M 745 950 C 745 986 737 1019 723 1049 C 709 1078 690 1103 666 1123 C 642 1143 613 1159 581 1170 C 549 1180 515 1186 479 1186 L 279 1186 L 279 715 L 483 715 C 518 715 551 720 583 731 C 615 741 643 757 667 777 C 691 797 710 821 724 850 C 738 879 745 912 745 950 Z" unicode="R" />
<glyph horiz-adv-x="958" d="M 872 354 C 872 298 862 248 843 204 C 823 159 795 121 759 89 C 723 57 679 33 628 16 C 576 -1 519 -10 455 -10 C 417 -10 382 -7 348 -2 C 314 3 283 10 254 19 C 225 28 199 39 175 51 C 151 63 131 75 113 88 L 94 238 C 141 200 195 169 256 145 C 317 121 385 109 461 109 C 501 109 537 114 571 126 C 605 137 634 153 658 173 C 682 193 700 218 714 247 C 728 276 735 308 735 344 C 735 378 729 408 719 436 C 709 463 693 488 672 510 C 651 532 624 552 591 570 C 558 588 519 606 475 623 C 417 643 367 666 325 690 C 283 714 248 742 220 772 C 192 802 171 835 157 871 C 143 907 137 948 137 993 C 137 1033 144 1073 160 1113 C 175 1152 198 1187 230 1217 C 261 1247 300 1272 348 1291 C 396 1309 452 1319 518 1319 C 548 1319 576 1316 604 1312 C 631 1308 656 1302 680 1295 C 703 1288 724 1280 744 1271 C 763 1262 779 1253 793 1245 L 762 1128 C 750 1137 734 1146 716 1155 C 698 1164 678 1172 656 1180 C 634 1187 611 1193 587 1197 C 563 1201 538 1204 514 1204 C 474 1204 438 1198 408 1187 C 377 1175 351 1160 331 1141 C 310 1122 294 1100 284 1076 C 273 1052 268 1027 268 1001 C 268 945 287 899 325 861 C 363 823 422 789 504 760 C 561 738 612 715 658 691 C 703 667 741 639 773 607 C 805 575 829 538 846 497 C 863 455 872 408 872 354 Z" unicode="S" />
<glyph horiz-adv-x="1065" d="M 1051 1188 L 600 1188 L 600 0 L 463 0 L 463 1188 L 14 1188 L 14 1307 L 1051 1307 L 1051 1188 Z" unicode="T" />
<glyph horiz-adv-x="1303" d="M 1161 453 C 1161 379 1148 312 1124 253 C 1099 194 1064 144 1019 103 C 974 62 920 31 858 9 C 796 -12 727 -23 651 -23 C 575 -23 505 -12 443 9 C 381 31 327 62 282 103 C 237 144 202 194 178 253 C 153 312 141 379 141 453 L 141 1307 L 279 1307 L 279 465 C 279 408 287 357 304 312 C 321 267 346 229 378 197 C 410 165 449 141 495 125 C 541 108 594 100 653 100 C 711 100 764 108 811 125 C 857 141 897 165 929 197 C 961 229 985 267 1002 312 C 1019 357 1028 408 1028 465 L 1028 1307 L 1161 1307 L 1161 453 Z" unicode="U" />
<glyph horiz-adv-x="1196" d="M 1143 1307 L 621 -23 L 575 -23 L 53 1307 L 199 1307 L 475 602 C 495 548 517 490 540 428 C 562 365 583 305 602 248 L 606 248 C 624 305 645 364 668 426 C 691 488 713 546 735 602 L 1012 1307 L 1143 1307 Z" unicode="V" />
<glyph horiz-adv-x="1892" d="M 1839 1307 L 1376 -23 L 1329 -23 L 1071 733 C 1050 791 1030 851 1010 913 C 990 974 969 1041 948 1114 L 944 1114 C 923 1042 902 975 882 914 C 862 853 841 793 821 733 L 561 -23 L 514 -23 L 53 1307 L 193 1307 L 430 616 C 448 562 468 506 489 447 C 509 387 527 328 543 270 L 547 270 C 563 328 581 387 601 446 C 620 505 639 562 657 616 L 893 1307 L 1014 1307 L 1249 616 C 1267 560 1286 503 1306 444 C 1325 384 1342 326 1358 270 L 1362 270 C 1377 326 1395 383 1415 443 C 1435 503 1454 560 1473 614 L 1712 1307 L 1839 1307 Z" unicode="W" />
<glyph horiz-adv-x="1182" d="M 1096 0 L 938 0 L 702 377 C 684 407 665 437 645 469 C 625 500 607 532 590 565 L 586 565 C 568 532 549 499 529 466 C 509 433 490 403 473 377 L 233 0 L 86 0 L 508 666 L 106 1307 L 264 1307 L 487 950 C 503 923 521 894 540 862 C 559 830 576 800 592 772 L 596 772 C 611 800 628 830 647 862 C 666 894 684 923 700 950 L 928 1307 L 1075 1307 L 674 674 L 1096 0 Z" unicode="X" />
<glyph horiz-adv-x="1241" d="M 1188 1307 L 686 604 L 686 0 L 551 0 L 551 604 L 53 1307 L 207 1307 L 487 909 C 508 878 531 845 555 811 C 579 777 602 743 623 711 L 627 711 C 647 743 670 776 694 811 C 718 845 740 878 762 909 L 1044 1307 L 1188 1307 Z" unicode="Y" />
<glyph horiz-adv-x="1067" d="M 981 0 L 86 0 L 86 35 L 535 801 C 553 833 573 865 593 899 C 613 933 632 966 652 999 C 672 1032 691 1064 711 1096 C 730 1127 748 1156 766 1184 L 764 1188 L 137 1188 L 137 1307 L 956 1307 L 956 1272 L 504 502 C 466 438 427 373 387 307 C 347 241 309 179 274 123 L 276 119 L 981 119 L 981 0 Z" unicode="Z" />
<glyph horiz-adv-x="559" d="M 545 -446 L 141 -446 L 141 1434 L 545 1434 L 545 1323 L 270 1323 L 270 -336 L 545 -336 L 545 -446 Z" unicode="[" />
<glyph horiz-adv-x="940" d="M 1026 -274 L 928 -326 L 94 1309 L 193 1360 L 1026 -274 Z" unicode="\" />
<glyph horiz-adv-x="559" d="M 418 -446 L 14 -446 L 14 -336 L 289 -336 L 289 1323 L 14 1323 L 14 1434 L 418 1434 L 418 -446 Z" unicode="]" />
<glyph horiz-adv-x="1024" d="M 829 1094 L 741 1055 C 699 1081 658 1110 618 1141 C 577 1172 540 1205 506 1239 C 472 1205 435 1172 396 1141 C 357 1110 317 1081 276 1055 L 195 1092 C 217 1110 241 1130 266 1152 C 290 1174 315 1198 339 1223 C 363 1247 385 1272 407 1298 C 428 1324 447 1349 465 1374 C 471 1382 478 1390 488 1396 C 498 1402 506 1405 512 1405 C 518 1405 525 1402 535 1396 C 545 1390 553 1382 559 1374 C 575 1349 594 1324 616 1299 C 638 1273 661 1248 685 1224 C 709 1199 733 1176 757 1154 C 781 1132 805 1112 829 1094 Z" unicode="^" />
<glyph horiz-adv-x="1024" d="M 1028 -473 L -2 -473 L -2 -360 L 1028 -360 L 1028 -473 Z" unicode="_" />
<glyph horiz-adv-x="1024" d="M 594 1094 L 504 1055 C 450 1089 399 1125 352 1163 C 304 1201 260 1244 219 1290 C 213 1297 209 1304 205 1311 C 201 1318 199 1325 199 1331 C 199 1337 201 1344 207 1352 C 213 1360 219 1368 227 1376 C 235 1384 243 1390 252 1396 C 260 1402 268 1405 274 1405 C 280 1405 288 1402 298 1396 C 307 1390 315 1383 322 1374 C 339 1349 358 1324 380 1299 C 402 1273 425 1248 449 1224 C 473 1200 497 1176 522 1154 C 546 1132 570 1112 594 1094 Z" unicode="`" />
<glyph horiz-adv-x="895" d="M 866 63 L 782 -20 C 766 -16 749 -10 733 -2 C 717 6 702 17 688 31 C 674 45 663 61 654 80 C 644 98 639 119 637 143 C 628 116 615 92 598 72 C 580 52 560 35 536 21 C 512 7 487 -2 459 -9 C 431 -16 403 -20 373 -20 C 328 -20 287 -13 251 1 C 215 15 184 34 158 59 C 132 83 111 112 97 145 C 83 178 76 214 76 252 C 76 296 84 336 101 370 C 117 404 139 434 167 458 C 195 482 227 500 263 514 C 299 528 337 537 377 541 L 621 563 L 621 651 C 621 709 602 754 564 787 C 526 819 471 836 401 836 C 355 836 310 829 266 816 C 222 803 185 786 156 766 L 129 874 C 165 899 206 918 253 930 C 300 942 352 948 408 948 C 457 948 503 941 545 927 C 587 913 623 894 654 868 C 684 842 708 809 726 771 C 743 733 752 689 752 639 L 752 215 C 752 191 755 171 761 153 C 767 135 776 120 787 108 C 797 96 809 86 823 78 C 837 70 851 65 866 63 Z M 621 330 L 621 455 L 401 434 C 336 428 286 408 252 376 C 218 343 201 302 201 252 C 201 228 205 207 214 187 C 223 167 236 150 252 136 C 268 122 287 110 309 102 C 331 94 356 90 383 90 C 413 90 442 95 470 106 C 498 117 524 133 546 154 C 568 174 586 199 600 229 C 614 259 621 292 621 330 Z" unicode="a" />
<glyph horiz-adv-x="1083" d="M 1008 467 C 1008 396 996 331 972 271 C 948 211 914 160 870 117 C 826 74 774 40 713 16 C 651 -7 583 -20 508 -20 C 468 -20 430 -16 393 -10 C 355 -4 320 4 288 14 C 256 24 226 35 199 48 C 172 61 149 74 131 88 L 131 1458 L 260 1458 L 260 858 C 271 870 286 881 305 892 C 324 902 346 912 370 920 C 394 928 421 935 449 940 C 477 945 505 948 535 948 C 603 948 665 936 723 912 C 781 888 831 854 873 812 C 915 769 948 718 972 659 C 996 600 1008 536 1008 467 Z M 877 465 C 877 517 868 566 850 611 C 832 655 807 694 776 727 C 744 759 707 785 664 803 C 620 821 574 831 524 831 C 491 831 461 827 433 821 C 405 814 380 806 358 796 C 336 786 316 775 300 763 C 283 751 270 739 260 729 L 260 154 C 272 146 286 139 304 132 C 321 124 340 118 361 112 C 381 106 403 101 426 97 C 449 93 472 92 496 92 C 553 92 605 101 652 119 C 698 137 738 163 772 196 C 805 229 831 268 849 314 C 867 360 877 410 877 465 Z" unicode="b" />
<glyph horiz-adv-x="928" d="M 852 868 L 825 748 C 789 772 749 791 706 804 C 662 816 617 823 571 823 C 519 823 472 814 428 796 C 384 778 345 754 312 722 C 279 690 253 651 235 607 C 216 563 207 514 207 461 C 207 408 216 359 235 315 C 254 271 280 233 313 201 C 346 169 385 144 430 126 C 475 108 523 100 575 100 C 623 100 667 104 707 114 C 747 123 787 139 827 162 L 811 37 C 779 20 741 8 699 0 C 657 -8 612 -12 565 -12 C 499 -12 436 0 377 21 C 317 43 265 75 221 117 C 177 158 141 208 115 267 C 89 325 76 391 76 463 C 76 535 89 600 115 659 C 141 718 176 768 220 810 C 264 851 316 883 376 906 C 435 928 498 940 565 940 C 623 940 677 933 725 919 C 773 905 816 888 852 868 Z" unicode="c" />
<glyph horiz-adv-x="1087" d="M 956 0 L 831 0 L 831 102 L 829 102 C 817 86 803 71 785 57 C 767 42 746 29 722 18 C 698 6 670 -2 640 -9 C 609 -16 575 -20 539 -20 C 480 -20 423 -9 368 13 C 312 35 263 66 220 108 C 176 149 141 199 115 259 C 89 319 76 387 76 463 C 76 533 88 598 112 658 C 136 717 169 768 211 811 C 253 854 304 888 362 912 C 420 936 483 948 551 948 C 581 948 610 945 638 940 C 666 934 692 927 716 918 C 740 909 761 899 780 887 C 798 875 813 864 825 852 L 825 1458 L 956 1458 L 956 0 Z M 825 215 L 825 723 C 813 735 799 747 783 760 C 766 773 747 785 725 795 C 703 805 678 814 651 821 C 624 827 595 831 563 831 C 513 831 466 821 423 803 C 379 785 342 759 310 727 C 278 694 252 655 234 610 C 216 564 207 515 207 461 C 207 407 216 357 234 312 C 252 266 278 227 310 195 C 342 162 379 137 423 119 C 466 101 513 92 563 92 C 593 92 622 95 649 102 C 675 109 700 118 722 130 C 744 142 764 155 781 170 C 798 184 813 199 825 215 Z" unicode="d" />
<glyph horiz-adv-x="995" d="M 920 590 C 920 578 919 567 919 556 C 919 545 917 535 915 526 L 838 451 L 211 451 C 209 407 217 364 233 322 C 249 280 272 242 304 208 C 336 174 375 146 421 125 C 467 104 520 94 580 94 C 637 94 688 101 732 116 C 776 130 816 149 850 172 L 834 43 C 802 23 764 8 721 -3 C 677 -14 625 -20 565 -20 C 498 -20 435 -8 376 15 C 316 39 264 72 220 114 C 176 156 141 207 115 267 C 89 326 76 391 76 463 C 76 537 89 605 115 665 C 141 725 175 776 217 818 C 259 860 306 892 360 914 C 414 936 468 948 524 948 C 587 948 643 937 693 917 C 742 897 783 870 817 836 C 851 802 876 764 894 721 C 911 678 920 634 920 590 Z M 788 588 C 788 618 782 647 771 677 C 760 706 744 732 722 756 C 700 780 673 799 641 814 C 609 828 572 836 530 836 C 492 836 455 828 420 813 C 385 797 354 777 326 751 C 298 725 274 695 256 661 C 237 627 225 593 219 557 L 786 557 C 787 561 788 565 788 571 C 788 577 788 582 788 588 Z" unicode="e" />
<glyph horiz-adv-x="682" d="M 750 1432 L 721 1321 C 702 1329 680 1335 655 1340 C 630 1345 607 1348 586 1348 C 508 1348 445 1324 399 1278 C 353 1232 330 1161 330 1065 L 330 928 L 643 928 L 616 821 L 330 821 L 330 0 L 199 0 L 199 821 L 35 821 L 35 928 L 199 928 L 199 1071 C 199 1135 208 1192 226 1241 C 244 1289 270 1330 304 1362 C 338 1394 378 1418 425 1434 C 471 1450 523 1458 580 1458 C 614 1458 645 1456 674 1452 C 703 1448 728 1441 750 1432 Z" unicode="f" />
<glyph horiz-adv-x="940" d="M 883 -178 C 883 -219 873 -258 853 -294 C 833 -330 806 -361 770 -388 C 734 -414 691 -435 641 -450 C 591 -465 535 -473 475 -473 C 413 -473 357 -465 307 -449 C 256 -433 213 -410 177 -382 C 141 -353 113 -319 93 -280 C 73 -241 63 -199 63 -154 C 63 -112 69 -74 81 -41 C 93 -8 110 19 130 43 C 150 67 172 86 198 100 C 223 114 248 124 274 129 L 180 223 C 180 259 191 291 213 319 C 235 347 269 366 317 375 C 293 383 269 396 247 412 C 225 428 205 447 188 469 C 171 491 158 517 148 546 C 138 575 133 607 133 641 C 133 685 141 726 158 764 C 174 801 198 833 228 861 C 258 888 293 909 335 925 C 377 940 423 948 473 948 C 497 948 519 946 539 944 C 559 941 576 937 592 932 C 609 926 628 922 648 919 C 668 916 689 915 713 915 C 738 915 763 918 789 925 C 815 931 836 940 854 950 L 881 844 C 873 839 864 834 852 830 C 840 826 828 822 814 820 C 800 817 787 815 773 814 C 759 813 747 813 735 815 C 754 798 771 775 787 745 C 803 715 811 680 811 641 C 811 599 803 560 787 523 C 771 485 749 452 720 424 C 691 396 656 373 614 357 C 572 340 525 332 473 332 C 421 332 382 325 356 313 C 330 300 317 282 317 260 C 317 248 323 236 335 225 C 347 213 364 204 385 197 L 635 113 C 674 99 709 84 740 66 C 771 48 797 28 818 4 C 839 -19 855 -46 866 -76 C 877 -106 883 -140 883 -178 Z M 690 641 C 690 669 684 695 673 719 C 662 743 647 765 627 783 C 607 801 584 815 558 826 C 532 836 503 842 473 842 C 441 842 411 836 384 826 C 357 815 334 801 314 783 C 294 765 279 743 268 719 C 257 695 252 669 252 641 C 252 613 257 586 268 562 C 279 537 294 516 314 498 C 334 480 357 465 384 455 C 411 445 441 440 473 440 C 503 440 531 445 557 455 C 583 465 606 480 626 498 C 646 516 661 537 673 562 C 684 586 690 613 690 641 Z M 760 -176 C 760 -132 745 -96 715 -67 C 685 -37 645 -14 594 2 L 389 66 C 359 66 332 60 307 49 C 282 37 260 22 242 2 C 224 -17 209 -40 199 -67 C 189 -93 184 -122 184 -152 C 184 -179 190 -205 203 -230 C 216 -255 235 -277 259 -297 C 283 -317 314 -332 350 -344 C 386 -356 427 -362 473 -362 C 518 -362 558 -356 594 -345 C 630 -334 660 -320 684 -302 C 708 -284 727 -265 740 -243 C 753 -221 760 -198 760 -176 Z" unicode="g" />
<glyph horiz-adv-x="1030" d="M 909 0 L 780 0 L 780 612 C 780 644 774 673 763 701 C 751 728 735 752 713 772 C 691 792 665 807 633 819 C 601 830 564 836 524 836 C 483 836 446 830 414 819 C 382 807 354 792 331 772 C 308 752 290 728 278 701 C 266 673 260 644 260 612 L 260 0 L 131 0 L 131 1458 L 260 1458 L 260 803 L 262 803 C 270 822 282 840 298 858 C 314 876 335 891 359 905 C 383 918 412 928 444 936 C 476 944 513 948 555 948 C 606 948 653 940 697 926 C 740 911 777 890 809 862 C 840 834 864 801 882 761 C 900 721 909 675 909 625 L 909 0 Z" unicode="h" />
<glyph horiz-adv-x="422" d="M 301 1202 C 301 1194 297 1186 291 1176 C 285 1166 277 1156 268 1146 C 258 1136 248 1128 238 1122 C 228 1115 219 1112 211 1112 C 203 1112 194 1115 184 1122 C 174 1128 164 1136 155 1146 C 145 1156 137 1166 131 1176 C 124 1186 121 1194 121 1202 C 121 1210 124 1219 131 1229 C 137 1239 145 1249 155 1259 C 164 1268 174 1276 184 1282 C 194 1288 203 1292 211 1292 C 219 1292 228 1288 238 1282 C 248 1276 258 1268 268 1259 C 277 1249 285 1239 291 1229 C 297 1219 301 1210 301 1202 Z M 276 0 L 145 0 L 145 928 L 276 928 L 276 0 Z" unicode="i" />
<glyph horiz-adv-x="422" d="M 301 1202 C 301 1194 297 1186 291 1176 C 285 1166 277 1156 268 1146 C 258 1136 248 1128 238 1122 C 228 1115 219 1112 211 1112 C 203 1112 194 1115 184 1122 C 174 1128 164 1136 155 1146 C 145 1156 137 1166 131 1176 C 124 1186 121 1194 121 1202 C 121 1210 124 1219 131 1229 C 137 1239 145 1249 155 1259 C 164 1268 174 1276 184 1282 C 194 1288 203 1292 211 1292 C 219 1292 228 1288 238 1282 C 248 1276 258 1268 268 1259 C 277 1249 285 1239 291 1229 C 297 1219 301 1210 301 1202 Z M 276 -106 C 276 -154 269 -199 256 -240 C 242 -281 224 -317 202 -349 C 179 -380 153 -406 123 -427 C 93 -448 61 -463 27 -471 L -57 -389 C 7 -373 57 -342 92 -294 C 127 -246 145 -180 145 -96 L 145 928 L 276 928 L 276 -106 Z" unicode="j" />
<glyph horiz-adv-x="883" d="M 868 0 L 698 0 L 262 451 L 260 451 L 260 0 L 131 0 L 131 1458 L 260 1458 L 260 485 L 262 485 L 690 928 L 846 928 L 410 473 L 868 0 Z" unicode="k" />
<glyph horiz-adv-x="430" d="M 379 57 L 291 -31 C 273 -25 254 -16 235 -5 C 216 5 199 20 184 38 C 168 56 156 79 146 106 C 136 133 131 165 131 203 L 131 1458 L 260 1458 L 260 217 C 260 195 263 175 269 157 C 275 139 284 123 295 109 C 306 95 319 84 333 76 C 347 67 363 61 379 57 Z" unicode="l" />
<glyph horiz-adv-x="1567" d="M 1446 0 L 1317 0 L 1317 629 C 1317 659 1312 686 1304 712 C 1295 737 1281 759 1263 777 C 1245 795 1221 810 1192 820 C 1162 830 1127 836 1087 836 C 1047 836 1012 830 982 820 C 952 810 928 795 908 777 C 888 759 873 737 863 712 C 853 686 848 659 848 629 L 848 0 L 719 0 L 719 629 C 719 659 714 686 706 712 C 698 737 684 759 666 777 C 648 795 624 810 596 820 C 567 830 532 836 492 836 C 452 836 416 830 386 820 C 356 810 331 795 311 777 C 291 759 275 737 265 712 C 255 686 250 659 250 629 L 250 0 L 121 0 L 121 928 L 242 928 L 242 803 L 244 803 C 250 822 261 840 276 858 C 290 876 309 891 332 905 C 354 918 381 928 413 936 C 444 944 480 948 522 948 C 553 948 583 944 612 938 C 641 932 668 922 693 909 C 718 896 740 880 759 860 C 778 840 793 817 805 791 C 813 813 827 833 845 852 C 863 871 886 888 912 902 C 938 916 967 928 1000 936 C 1032 944 1068 948 1106 948 C 1156 948 1202 941 1244 927 C 1286 913 1322 892 1352 866 C 1382 840 1405 807 1421 769 C 1437 731 1446 687 1446 639 L 1446 0 Z" unicode="m" />
<glyph horiz-adv-x="1020" d="M 899 0 L 770 0 L 770 612 C 770 644 764 673 753 701 C 741 728 725 752 703 772 C 681 792 655 807 623 819 C 591 830 554 836 514 836 C 473 836 436 830 404 819 C 372 807 344 792 321 772 C 298 752 280 728 268 701 C 256 673 250 644 250 612 L 250 0 L 121 0 L 121 928 L 242 928 L 242 788 L 244 788 C 251 809 263 829 279 849 C 295 868 315 885 340 900 C 364 914 394 926 428 935 C 462 943 501 948 545 948 C 595 948 642 940 686 926 C 729 911 766 890 798 862 C 829 834 854 801 872 761 C 890 721 899 675 899 625 L 899 0 Z" unicode="n" />
<glyph horiz-adv-x="1128" d="M 1053 463 C 1053 392 1040 327 1015 268 C 990 208 956 157 912 115 C 868 72 817 39 758 15 C 698 -8 634 -20 565 -20 C 495 -20 431 -8 372 15 C 312 39 261 72 217 115 C 173 157 138 208 113 268 C 88 327 76 392 76 463 C 76 533 88 598 113 658 C 138 717 173 768 217 811 C 261 854 312 888 372 912 C 431 936 495 948 565 948 C 634 948 698 936 758 912 C 817 888 868 854 912 811 C 956 768 990 717 1015 658 C 1040 598 1053 533 1053 463 Z M 922 461 C 922 515 912 564 894 610 C 875 655 850 694 818 727 C 786 759 748 785 705 803 C 661 821 615 831 565 831 C 515 831 469 821 425 803 C 381 785 343 759 311 727 C 279 694 253 655 235 610 C 216 564 207 515 207 461 C 207 407 216 357 235 312 C 253 266 279 227 311 195 C 343 162 381 137 425 119 C 469 101 515 92 565 92 C 615 92 661 101 705 119 C 748 137 786 162 818 195 C 850 227 875 266 894 312 C 912 357 922 407 922 461 Z" unicode="o" />
<glyph horiz-adv-x="1077" d="M 1001 465 C 1001 394 989 329 965 270 C 941 210 907 159 865 116 C 822 73 771 40 713 16 C 655 -8 592 -20 524 -20 C 494 -20 466 -17 438 -12 C 410 -6 384 0 360 9 C 336 18 314 28 295 40 C 276 52 261 64 250 76 L 250 -473 L 121 -473 L 121 928 L 244 928 L 244 825 L 246 825 C 257 840 272 855 290 870 C 308 884 329 897 354 909 C 378 921 406 930 437 937 C 467 944 501 948 539 948 C 597 948 653 937 709 915 C 765 893 814 861 857 820 C 900 778 935 728 961 668 C 987 608 1001 541 1001 465 Z M 870 461 C 870 515 860 564 842 610 C 824 655 799 694 767 727 C 735 759 697 785 654 803 C 610 821 564 831 514 831 C 483 831 454 827 427 820 C 400 812 375 803 353 791 C 331 779 311 766 294 752 C 276 737 262 722 250 707 L 250 201 C 261 189 275 176 292 163 C 309 150 329 138 351 128 C 373 117 398 108 425 102 C 452 95 482 92 514 92 C 564 92 610 101 654 119 C 697 137 735 162 767 195 C 799 227 824 266 842 312 C 860 357 870 407 870 461 Z" unicode="p" />
<glyph horiz-adv-x="1073" d="M 952 -473 L 821 -473 L 821 70 C 810 58 796 46 778 36 C 760 25 739 15 716 7 C 693 0 668 -7 641 -12 C 613 -17 585 -20 555 -20 C 487 -20 424 -8 366 16 C 308 40 257 73 214 116 C 171 158 137 209 113 268 C 88 326 76 391 76 461 C 76 531 88 596 112 656 C 136 715 169 766 212 810 C 255 853 307 887 367 911 C 427 935 494 948 567 948 C 602 948 634 945 664 940 C 693 935 719 929 743 921 C 767 913 788 905 806 896 C 824 886 840 878 854 870 L 913 940 L 952 940 L 952 -473 Z M 821 195 L 821 752 C 811 760 797 769 779 779 C 761 788 741 796 719 804 C 697 812 674 818 650 823 C 626 828 602 831 580 831 C 525 831 475 821 429 803 C 383 785 344 759 311 726 C 278 693 252 654 234 608 C 216 562 207 512 207 457 C 207 404 216 355 235 311 C 253 266 279 227 312 195 C 344 163 382 137 426 119 C 470 101 517 92 567 92 C 599 92 629 95 656 102 C 683 108 707 117 728 127 C 749 137 767 149 783 161 C 798 173 811 184 821 195 Z" unicode="q" />
<glyph horiz-adv-x="647" d="M 627 928 L 596 795 C 588 797 577 798 564 800 C 550 802 537 803 524 803 C 488 803 453 797 420 785 C 387 773 358 753 333 727 C 307 701 287 667 272 625 C 257 583 250 532 250 473 L 250 0 L 121 0 L 121 928 L 250 928 L 250 717 L 252 717 C 259 749 271 779 288 807 C 304 834 325 857 349 877 C 373 897 402 912 434 923 C 466 934 501 940 539 940 C 551 940 565 939 583 937 C 601 935 615 932 627 928 Z" unicode="r" />
<glyph horiz-adv-x="748" d="M 672 246 C 672 208 664 173 650 142 C 635 110 614 83 587 61 C 560 38 527 20 488 8 C 449 -3 406 -10 358 -10 C 302 -10 254 -3 212 9 C 170 22 133 40 102 63 L 84 205 C 119 175 160 150 207 130 C 253 110 304 100 360 100 C 386 100 410 103 432 110 C 454 116 473 126 490 138 C 506 150 519 165 529 183 C 538 201 543 221 543 244 C 543 286 527 320 497 346 C 466 372 425 395 373 414 C 331 428 293 444 261 462 C 228 480 200 500 178 522 C 155 544 138 570 126 598 C 114 626 109 658 109 694 C 109 730 116 764 130 794 C 144 824 163 850 188 871 C 213 892 243 908 277 920 C 311 932 349 938 391 938 C 415 938 439 936 462 932 C 485 928 506 924 526 918 C 546 912 563 906 579 899 C 594 892 606 885 616 879 L 588 768 C 567 783 540 797 507 810 C 473 822 434 829 389 829 C 343 829 306 817 278 793 C 250 769 236 737 236 698 C 236 677 239 659 246 644 C 252 629 262 616 276 604 C 289 592 305 581 325 571 C 345 561 367 552 393 543 C 436 527 475 510 510 492 C 544 473 574 452 598 428 C 622 404 640 378 653 348 C 665 318 672 284 672 246 Z" unicode="s" />
<glyph horiz-adv-x="717" d="M 686 928 L 662 821 L 346 821 L 346 248 C 346 220 349 197 357 178 C 364 159 374 144 387 132 C 400 120 416 111 434 106 C 452 100 473 98 496 98 C 514 98 531 99 547 102 C 563 105 577 110 590 117 L 575 10 C 563 2 547 -2 529 -4 C 511 -6 492 -8 473 -8 C 437 -8 404 -2 374 7 C 343 17 316 33 293 54 C 270 74 252 100 239 131 C 225 161 219 197 219 238 L 219 821 L 35 821 L 35 928 L 219 928 L 219 1128 L 346 1196 L 346 928 L 686 928 Z" unicode="t" />
<glyph horiz-adv-x="1020" d="M 899 0 L 778 0 L 778 139 L 776 139 C 768 117 756 97 740 78 C 724 58 704 41 680 27 C 655 12 626 0 592 -7 C 558 -15 519 -20 475 -20 C 424 -20 377 -12 334 2 C 290 16 253 37 222 65 C 190 93 166 127 148 167 C 130 207 121 252 121 303 L 121 928 L 250 928 L 250 315 C 250 283 255 253 267 226 C 278 198 294 175 316 155 C 338 135 364 119 396 108 C 428 97 464 92 506 92 C 546 92 583 97 615 108 C 647 119 675 135 698 155 C 721 175 739 198 751 226 C 763 253 770 283 770 315 L 770 928 L 899 928 L 899 0 Z" unicode="u" />
<glyph horiz-adv-x="942" d="M 889 928 L 496 -20 L 444 -20 L 53 928 L 184 928 L 387 440 C 402 404 417 365 432 324 C 447 283 461 243 475 203 L 479 203 C 492 243 506 283 521 325 C 536 366 551 405 567 442 L 766 928 L 889 928 Z" unicode="v" />
<glyph horiz-adv-x="1442" d="M 1389 928 L 1042 -20 L 995 -20 L 809 487 C 794 527 779 569 765 614 C 750 658 736 704 723 750 L 719 750 C 705 704 691 658 677 613 C 662 568 647 527 633 489 L 446 -20 L 399 -20 L 53 928 L 178 928 L 348 457 C 354 438 361 418 368 398 C 375 378 382 357 389 336 C 395 315 402 294 408 274 C 414 254 419 235 424 217 L 428 217 C 433 235 439 254 445 274 C 451 294 457 315 463 336 C 469 357 476 378 483 398 C 490 418 497 438 504 457 L 674 928 L 772 928 L 944 457 C 958 419 972 379 984 338 C 996 297 1008 257 1020 217 L 1024 217 C 1036 257 1049 298 1061 340 C 1073 382 1086 421 1100 457 L 1270 928 L 1389 928 Z" unicode="w" />
<glyph horiz-adv-x="897" d="M 821 0 L 680 0 L 524 246 C 512 265 500 285 488 307 C 476 328 464 349 453 371 L 449 371 C 437 349 424 328 410 306 C 395 284 382 264 371 246 L 215 0 L 76 0 L 377 473 L 92 928 L 231 928 L 377 694 C 389 674 401 655 413 636 C 425 616 436 597 446 578 L 451 578 C 461 596 471 615 483 635 C 494 655 506 674 518 694 L 666 928 L 805 928 L 520 477 L 821 0 Z" unicode="x" />
<glyph horiz-adv-x="958" d="M 905 928 L 557 80 C 523 -1 489 -72 454 -133 C 419 -193 382 -246 344 -290 C 305 -334 264 -371 222 -401 C 179 -431 134 -456 86 -477 L 2 -393 C 48 -374 90 -352 128 -326 C 166 -300 202 -270 236 -234 C 269 -198 300 -157 329 -110 C 358 -63 386 -9 414 53 L 53 928 L 188 928 L 387 444 C 401 408 417 368 434 326 C 450 284 465 242 479 201 L 483 201 C 491 220 499 240 508 262 C 516 284 525 305 534 327 C 542 349 551 370 559 390 C 567 410 575 428 582 444 L 780 928 L 905 928 Z" unicode="y" />
<glyph horiz-adv-x="866" d="M 791 0 L 76 0 L 76 29 L 403 553 C 415 573 429 595 443 619 C 457 642 471 665 485 688 C 499 711 514 734 528 756 C 542 778 555 799 569 819 L 567 821 L 111 821 L 111 928 L 756 928 L 756 899 L 426 373 C 399 329 372 285 344 241 C 316 196 288 152 260 109 L 262 106 L 791 106 L 791 0 Z" unicode="z" />
<glyph horiz-adv-x="614" d="M 600 -346 L 571 -449 C 502 -449 444 -435 397 -409 C 350 -383 312 -347 283 -301 C 254 -255 233 -202 220 -141 C 207 -79 201 -13 201 57 C 201 105 197 150 191 194 C 185 237 174 277 160 314 C 145 351 126 385 102 415 C 78 445 48 470 14 492 C 48 514 78 540 102 570 C 126 600 145 633 160 670 C 174 707 185 747 191 791 C 197 834 201 880 201 928 C 201 998 207 1063 220 1125 C 233 1186 254 1239 283 1285 C 312 1330 350 1366 397 1392 C 444 1418 502 1432 571 1432 L 600 1329 C 549 1329 506 1319 472 1300 C 437 1280 409 1253 388 1217 C 367 1181 352 1139 343 1089 C 334 1039 330 983 330 922 C 330 828 317 745 292 675 C 267 604 226 543 168 492 C 226 441 267 380 292 309 C 317 237 330 155 330 61 C 330 0 334 -56 343 -106 C 352 -156 367 -198 388 -234 C 409 -270 437 -297 472 -317 C 506 -336 549 -346 600 -346 Z" unicode="{" />
<glyph horiz-adv-x="397" d="M 256 -473 L 141 -473 L 141 1458 L 256 1458 L 256 -473 Z" unicode="|" />
<glyph horiz-adv-x="614" d="M 600 492 C 565 470 536 445 512 415 C 488 385 469 351 455 314 C 440 277 429 237 423 194 C 417 150 414 105 414 57 C 414 -13 407 -79 394 -141 C 381 -202 360 -255 331 -301 C 301 -347 263 -383 216 -409 C 169 -435 111 -449 43 -449 L 14 -346 C 64 -346 107 -336 142 -317 C 176 -297 204 -270 225 -234 C 246 -198 261 -156 271 -106 C 280 -56 285 0 285 61 C 285 155 297 237 322 309 C 347 380 388 441 446 492 C 388 543 347 604 322 675 C 297 745 285 828 285 922 C 285 983 280 1039 271 1089 C 261 1139 246 1181 225 1217 C 204 1253 176 1280 142 1300 C 107 1319 64 1329 14 1329 L 43 1432 C 111 1432 169 1418 216 1392 C 263 1366 301 1330 331 1285 C 360 1239 381 1186 394 1125 C 407 1063 414 998 414 928 C 414 880 417 834 423 791 C 429 747 440 707 455 670 C 469 633 488 600 512 570 C 536 540 565 514 600 492 Z" unicode="}" />
<glyph horiz-adv-x="733" d="M 643 655 C 631 635 617 613 601 591 C 585 569 569 548 553 530 C 536 511 520 495 504 483 C 488 471 475 465 463 465 C 450 465 435 469 418 478 C 400 486 383 496 366 506 C 348 516 332 525 317 534 C 302 542 291 547 283 547 C 274 547 264 542 253 534 C 242 526 231 516 220 505 C 209 493 199 481 189 469 C 179 456 172 446 166 438 L 90 473 C 102 493 116 514 132 536 C 148 558 164 579 181 598 C 197 617 214 633 230 645 C 246 657 260 664 272 664 C 284 664 299 659 317 651 C 335 642 352 632 369 622 C 386 611 402 601 417 593 C 431 584 443 580 451 580 C 459 580 469 584 480 592 C 490 600 501 609 512 621 C 523 633 533 645 543 657 C 553 669 561 680 567 688 L 643 655 Z" unicode="~" />
<glyph horiz-adv-x="244" d="" unicode=" " />
<glyph horiz-adv-x="489" d="M 338 1227 C 338 1219 334 1209 327 1198 C 319 1186 310 1175 300 1165 C 289 1154 278 1145 267 1137 C 255 1129 246 1126 238 1126 C 230 1126 220 1129 208 1137 C 196 1145 185 1154 175 1165 C 164 1175 155 1186 148 1198 C 140 1209 137 1219 137 1227 C 137 1235 140 1244 148 1256 C 155 1268 164 1279 175 1289 C 185 1299 196 1308 208 1316 C 220 1323 230 1327 238 1327 C 246 1327 255 1323 267 1316 C 278 1308 289 1299 300 1289 C 310 1279 319 1268 327 1256 C 334 1244 338 1235 338 1227 Z M 317 0 L 164 0 L 186 971 L 295 942 L 317 0 Z" unicode="¡" />
<glyph horiz-adv-x="928" d="M 610 0 L 522 0 L 522 176 C 461 180 404 195 350 219 C 296 243 248 276 208 317 C 167 357 135 406 111 462 C 87 518 76 580 76 649 C 76 717 87 780 111 836 C 134 892 166 941 206 982 C 246 1023 294 1056 348 1080 C 402 1104 460 1119 522 1124 L 522 1307 L 610 1307 L 610 1124 C 658 1120 703 1113 744 1101 C 785 1089 821 1073 852 1055 L 825 934 C 789 958 749 977 706 990 C 662 1003 617 1010 571 1010 C 519 1010 472 1001 428 983 C 384 965 345 940 312 908 C 279 876 253 837 235 793 C 216 749 207 700 207 647 C 207 593 216 545 235 501 C 254 457 280 419 313 387 C 346 355 385 331 430 313 C 475 295 523 287 575 287 C 623 287 667 291 707 300 C 747 309 787 325 827 348 L 811 223 C 784 209 754 198 720 190 C 686 182 649 178 610 176 L 610 0 Z" unicode="¢" />
<glyph horiz-adv-x="893" d="M 807 90 L 780 -23 C 740 -7 693 4 641 14 C 588 24 533 29 475 29 C 445 29 416 27 387 24 C 357 21 329 17 302 13 C 275 8 250 2 226 -3 C 202 -9 180 -16 162 -23 L 98 51 C 132 107 157 171 174 243 C 190 315 199 402 199 502 L 199 616 L 35 616 L 35 700 L 199 700 L 199 938 C 199 1002 208 1059 226 1107 C 244 1155 270 1196 304 1228 C 338 1260 378 1283 425 1299 C 471 1315 523 1323 580 1323 C 614 1323 645 1320 674 1316 C 703 1312 728 1305 750 1296 L 721 1186 C 702 1194 680 1200 655 1206 C 630 1211 607 1214 586 1214 C 546 1214 511 1208 480 1197 C 448 1185 421 1168 399 1145 C 377 1121 360 1092 348 1057 C 336 1021 330 980 330 932 L 330 700 L 582 700 L 561 616 L 330 616 L 330 492 C 330 400 321 321 305 256 C 289 190 269 140 246 104 C 260 109 276 114 296 118 C 315 122 336 126 358 129 C 380 132 402 134 425 136 C 447 138 469 139 489 139 C 539 139 593 135 649 127 C 705 119 757 106 807 90 Z" unicode="£" />
<glyph horiz-adv-x="1152" d="M 1056 392 L 940 284 L 740 500 C 692 468 636 452 572 452 C 510 452 456 468 408 500 L 208 284 L 92 392 L 300 608 C 281 634 268 660 262 686 C 255 711 252 742 252 780 C 252 812 255 842 262 870 C 268 898 281 925 300 952 L 92 1168 L 208 1276 L 408 1060 C 456 1092 510 1108 572 1108 C 636 1108 692 1092 740 1060 L 944 1276 L 1060 1156 L 852 952 C 870 925 883 898 890 872 C 896 845 900 814 900 780 C 900 716 882 658 848 608 L 1056 392 Z M 748 780 C 748 833 731 876 698 910 C 664 943 622 960 572 960 C 521 960 480 943 448 910 C 416 876 400 833 400 780 C 400 726 416 684 450 652 C 483 620 524 604 572 604 C 625 604 668 620 700 652 C 732 684 748 726 748 780 Z" unicode="¤" />
<glyph horiz-adv-x="1026" d="M 973 1307 L 608 610 L 870 610 L 870 528 L 580 528 L 580 0 L 444 0 L 444 528 L 156 528 L 156 610 L 416 610 L 53 1307 L 197 1307 L 414 889 C 430 857 447 822 465 785 C 483 747 500 712 516 678 L 520 678 C 535 712 552 747 571 785 C 590 822 608 857 625 889 L 842 1307 L 973 1307 Z" unicode="¥" />
<glyph horiz-adv-x="440" d="M 276 614 L 164 614 L 164 1458 L 276 1458 L 276 614 Z M 276 -473 L 164 -473 L 164 371 L 276 371 L 276 -473 Z" unicode="¦" />
<glyph horiz-adv-x="987" d="M 846 -135 C 846 -174 838 -213 823 -251 C 808 -289 785 -323 755 -353 C 725 -383 687 -408 641 -427 C 595 -445 542 -455 481 -455 C 418 -455 363 -447 316 -433 C 268 -419 227 -401 193 -381 L 221 -262 C 255 -285 293 -303 337 -317 C 381 -331 427 -338 477 -338 C 518 -338 554 -332 584 -320 C 614 -308 639 -292 659 -273 C 679 -253 693 -231 703 -207 C 712 -183 717 -158 717 -133 C 717 -109 712 -85 704 -59 C 696 -33 683 -11 666 6 L 145 541 L 215 791 C 189 823 171 857 159 894 C 147 930 141 968 141 1008 C 141 1046 148 1085 163 1123 C 178 1161 201 1195 231 1225 C 261 1255 299 1280 345 1299 C 391 1317 444 1327 506 1327 C 568 1327 623 1319 671 1305 C 718 1291 759 1273 795 1253 L 766 1135 C 732 1158 692 1176 648 1190 C 604 1203 557 1210 508 1210 C 466 1210 431 1204 401 1192 C 371 1180 346 1164 327 1145 C 307 1126 293 1104 284 1080 C 274 1055 270 1030 270 1006 C 270 982 274 957 283 931 C 291 905 304 883 322 866 L 842 332 L 770 82 C 795 50 814 15 827 -21 C 839 -57 846 -95 846 -135 Z M 748 281 L 285 752 L 240 592 L 702 121 L 748 281 Z" unicode="§" />
<glyph horiz-adv-x="1024" d="M 750 1153 C 750 1146 746 1138 740 1128 C 734 1118 726 1108 717 1099 C 708 1090 699 1082 689 1076 C 679 1070 670 1067 664 1067 C 656 1067 648 1070 638 1076 C 628 1082 619 1090 610 1099 C 601 1108 593 1118 587 1128 C 581 1138 578 1146 578 1153 C 578 1160 581 1168 587 1178 C 593 1188 601 1197 610 1206 C 619 1215 628 1223 638 1229 C 648 1235 656 1239 664 1239 C 670 1239 679 1235 689 1229 C 699 1223 708 1215 717 1206 C 726 1197 734 1188 740 1178 C 746 1168 750 1160 750 1153 Z M 446 1153 C 446 1146 442 1138 436 1128 C 430 1118 422 1108 413 1099 C 404 1090 395 1082 385 1076 C 375 1070 367 1067 360 1067 C 353 1067 345 1070 335 1076 C 325 1082 316 1090 307 1099 C 298 1108 290 1118 284 1128 C 277 1138 274 1146 274 1153 C 274 1160 277 1168 284 1178 C 290 1188 298 1197 307 1206 C 316 1215 325 1223 335 1229 C 345 1235 353 1239 360 1239 C 367 1239 375 1235 385 1229 C 395 1223 404 1215 413 1206 C 422 1197 430 1188 436 1178 C 442 1168 446 1160 446 1153 Z" unicode="¨" />
<glyph horiz-adv-x="1253" d="M 1167 512 C 1167 433 1153 361 1125 295 C 1097 229 1058 173 1010 125 C 962 77 905 40 839 14 C 773 -11 703 -25 627 -25 C 551 -25 481 -11 415 14 C 349 40 292 77 243 125 C 194 173 156 229 128 295 C 100 361 86 433 86 512 C 86 591 100 663 128 729 C 156 795 194 851 243 899 C 292 946 349 983 415 1009 C 481 1035 551 1049 627 1049 C 703 1049 773 1035 839 1009 C 905 983 962 946 1010 899 C 1058 851 1097 795 1125 729 C 1153 663 1167 591 1167 512 Z M 1083 512 C 1083 578 1071 639 1049 695 C 1026 751 994 799 954 840 C 913 881 865 913 809 936 C 753 959 693 971 627 971 C 561 971 500 959 444 936 C 388 913 340 881 300 840 C 260 799 228 751 206 695 C 183 639 172 578 172 512 C 172 446 183 386 206 330 C 228 274 260 225 300 184 C 340 143 388 111 444 88 C 500 64 561 53 627 53 C 693 53 753 64 809 88 C 865 111 913 143 954 184 C 994 225 1026 274 1049 330 C 1071 386 1083 446 1083 512 Z M 831 762 L 809 668 C 790 682 766 693 738 702 C 710 710 683 715 657 715 C 628 715 602 710 578 700 C 554 690 533 677 515 659 C 497 641 484 620 474 596 C 464 572 459 545 459 516 C 459 487 464 461 474 437 C 484 413 498 392 516 374 C 534 356 555 343 579 333 C 603 323 629 319 657 319 C 711 319 763 332 813 358 L 801 260 C 781 248 759 240 735 234 C 710 228 683 225 653 225 C 613 225 574 231 538 245 C 502 259 470 278 442 304 C 414 329 392 360 376 396 C 360 432 352 472 352 518 C 352 562 360 602 376 638 C 392 674 414 704 442 730 C 469 756 501 776 538 790 C 574 804 613 811 653 811 C 689 811 722 806 754 797 C 785 788 811 776 831 762 Z" unicode="©" />
<glyph horiz-adv-x="760" d="M 725 629 L 649 555 C 636 557 623 561 610 567 C 597 573 585 580 574 590 C 563 600 554 611 546 624 C 538 637 532 652 528 670 C 510 632 483 603 445 584 C 407 564 365 555 319 555 C 283 555 250 560 220 572 C 190 583 165 599 144 619 C 122 639 106 662 94 689 C 82 716 76 745 76 776 C 76 812 83 844 97 872 C 111 900 129 923 152 942 C 175 961 201 976 230 987 C 259 997 289 1004 319 1008 L 512 1026 L 512 1090 C 512 1134 497 1168 468 1193 C 438 1218 396 1231 342 1231 C 304 1231 268 1225 234 1215 C 199 1204 168 1189 141 1171 L 119 1268 C 149 1288 184 1304 223 1314 C 262 1324 304 1329 348 1329 C 388 1329 426 1323 460 1312 C 494 1301 523 1285 548 1264 C 572 1243 592 1217 606 1187 C 620 1156 627 1121 627 1081 L 627 745 C 627 709 636 682 655 664 C 673 646 697 634 725 629 Z M 512 838 L 512 932 L 330 913 C 288 909 253 894 227 869 C 201 844 188 812 188 772 C 188 754 191 737 198 722 C 205 707 215 694 227 683 C 239 672 254 664 270 658 C 286 652 304 649 324 649 C 345 649 367 653 389 661 C 411 669 432 682 450 698 C 468 714 482 733 494 757 C 506 781 512 808 512 838 Z M 461 315 C 461 308 457 300 451 290 C 445 280 437 271 428 262 C 419 253 410 245 400 239 C 390 232 381 229 375 229 C 368 229 360 232 350 239 C 340 245 330 253 321 262 C 312 271 304 280 298 290 C 292 300 289 308 289 315 C 289 322 292 331 298 341 C 304 351 312 360 321 370 C 330 379 340 387 350 393 C 360 399 368 403 375 403 C 381 403 390 399 400 393 C 410 387 419 379 428 370 C 437 360 445 351 451 341 C 457 331 461 322 461 315 Z" unicode="ª" />
<glyph horiz-adv-x="782" d="M 692 238 L 672 186 C 656 206 639 226 621 248 C 603 269 584 290 564 311 C 544 332 523 352 503 371 C 482 389 462 406 442 422 C 434 427 428 434 423 442 C 418 450 416 457 416 463 C 416 468 418 475 423 483 C 428 491 434 498 442 504 C 462 518 482 535 503 554 C 523 573 544 593 564 614 C 584 634 603 655 621 677 C 639 698 656 719 672 739 L 692 688 C 674 648 655 609 635 571 C 614 533 592 497 569 463 C 592 427 614 391 635 354 C 655 316 674 278 692 238 Z M 330 238 L 309 186 C 294 206 277 226 259 248 C 241 269 222 290 202 311 C 182 332 161 352 141 371 C 120 389 100 406 80 422 C 72 427 66 434 61 442 C 55 450 53 457 53 463 C 53 468 55 475 61 483 C 66 491 72 498 80 504 C 100 518 120 535 141 554 C 161 573 182 593 202 614 C 222 634 241 655 259 677 C 277 698 294 719 309 739 L 330 688 C 312 648 293 609 273 571 C 252 533 230 497 207 463 C 230 427 252 391 273 354 C 293 316 312 278 330 238 Z" unicode="«" />
<glyph horiz-adv-x="1040" d="M 909 293 L 793 293 L 793 512 L 90 512 L 90 623 L 909 623 L 909 293 Z" unicode="¬" />
<glyph horiz-adv-x="692" d="M 602 512 L 90 512 L 90 623 L 602 623 L 602 512 Z" unicode="­" />
<glyph horiz-adv-x="926" d="M 850 946 C 850 890 840 838 820 791 C 800 743 772 703 738 669 C 703 635 662 608 615 589 C 567 570 517 561 463 561 C 409 561 358 570 311 589 C 263 608 222 635 188 669 C 153 703 126 743 106 791 C 86 838 76 890 76 946 C 76 1002 86 1053 106 1100 C 126 1147 153 1188 188 1222 C 222 1256 263 1282 311 1301 C 358 1319 409 1329 463 1329 C 517 1329 567 1319 615 1301 C 662 1282 703 1256 738 1222 C 772 1188 800 1147 820 1100 C 840 1053 850 1002 850 946 Z M 780 946 C 780 993 772 1036 756 1076 C 740 1115 717 1149 689 1177 C 660 1205 626 1226 588 1242 C 549 1258 507 1266 463 1266 C 417 1266 375 1258 336 1242 C 297 1226 263 1205 235 1177 C 207 1149 185 1115 169 1076 C 153 1036 145 993 145 946 C 145 898 153 855 169 816 C 185 776 207 743 235 715 C 263 687 297 665 336 650 C 375 634 417 627 463 627 C 507 627 549 634 588 650 C 626 665 660 687 689 715 C 717 743 740 776 756 816 C 772 855 780 898 780 946 Z M 659 752 L 598 713 L 467 903 L 401 903 L 401 711 L 328 711 L 328 1178 L 467 1178 C 487 1178 506 1174 524 1168 C 542 1161 557 1152 571 1140 C 585 1128 596 1113 604 1097 C 612 1080 616 1062 616 1042 C 616 1014 608 989 594 968 C 580 947 562 932 541 922 L 659 752 Z M 541 1042 C 541 1063 533 1080 519 1093 C 504 1105 484 1112 459 1112 L 401 1112 L 401 971 L 459 971 C 484 971 504 977 519 990 C 533 1003 541 1020 541 1042 Z" unicode="®" />
<glyph horiz-adv-x="1024" d="M 688 1079 L 336 1079 L 336 1192 L 688 1192 L 688 1079 Z" unicode="¯" />
<glyph horiz-adv-x="602" d="M 510 1122 C 510 1093 504 1066 493 1041 C 482 1016 467 994 448 976 C 429 957 407 942 382 931 C 356 920 329 915 301 915 C 272 915 245 920 219 931 C 193 942 171 957 152 976 C 133 994 118 1016 107 1041 C 95 1066 90 1093 90 1122 C 90 1150 95 1177 107 1203 C 118 1228 133 1250 152 1269 C 171 1287 193 1302 219 1313 C 245 1323 272 1329 301 1329 C 329 1329 356 1323 382 1313 C 407 1302 429 1287 448 1269 C 467 1250 482 1228 493 1203 C 504 1177 510 1150 510 1122 Z M 414 1122 C 414 1157 403 1186 382 1208 C 361 1230 334 1241 301 1241 C 268 1241 241 1230 219 1208 C 197 1186 186 1157 186 1122 C 186 1105 189 1089 195 1075 C 201 1061 209 1048 219 1038 C 229 1027 242 1019 256 1013 C 270 1007 285 1004 301 1004 C 334 1004 361 1015 382 1037 C 403 1059 414 1088 414 1122 Z" unicode="°" />
<glyph horiz-adv-x="1536" d="M 672 352 L 672 764 L 200 764 L 200 936 L 672 936 L 672 1352 L 864 1352 L 864 936 L 1340 936 L 1340 764 L 864 764 L 864 352 L 672 352 Z M 204 24 L 204 216 L 1336 216 L 1336 24 L 204 24 Z" unicode="±" />
<glyph horiz-adv-x="729" d="M 625 506 L 76 506 L 76 535 C 148 596 211 653 263 705 C 315 757 357 806 391 851 C 425 895 449 936 465 973 C 481 1009 489 1043 489 1073 C 489 1131 471 1174 437 1203 C 402 1232 355 1247 295 1247 C 259 1247 225 1242 195 1233 C 164 1224 136 1212 111 1198 L 88 1280 C 112 1294 142 1306 178 1315 C 214 1324 253 1329 295 1329 C 341 1329 383 1323 419 1311 C 455 1299 485 1281 510 1259 C 534 1237 553 1210 566 1178 C 579 1146 586 1110 586 1071 C 586 1037 578 1000 564 962 C 549 924 528 884 501 843 C 473 802 440 760 401 717 C 361 673 317 630 268 588 L 625 588 L 625 506 Z" unicode="²" />
<glyph horiz-adv-x="649" d="M 559 752 C 559 714 552 680 538 649 C 524 617 504 590 478 568 C 452 545 420 527 382 515 C 344 502 302 496 256 496 C 228 496 200 499 172 505 C 144 511 120 520 100 530 L 86 627 C 110 612 137 600 167 591 C 196 582 225 578 254 578 C 282 578 308 582 333 590 C 358 598 380 609 399 625 C 418 640 433 659 444 682 C 455 704 461 730 461 760 C 461 782 456 803 446 823 C 436 843 423 860 407 875 C 390 890 371 902 349 911 C 327 919 305 924 281 924 C 275 924 269 924 263 924 C 256 924 248 923 238 922 L 217 999 C 273 1008 317 1025 349 1051 C 381 1076 397 1105 397 1137 C 397 1151 393 1165 387 1179 C 381 1192 372 1204 361 1214 C 349 1224 335 1232 318 1238 C 301 1244 282 1247 262 1247 C 238 1247 216 1243 194 1237 C 172 1230 147 1219 121 1204 L 98 1286 C 149 1314 204 1329 264 1329 C 298 1329 329 1324 357 1315 C 385 1305 409 1292 429 1276 C 449 1260 465 1240 477 1217 C 488 1194 494 1169 494 1143 C 494 1105 483 1072 462 1046 C 440 1020 413 999 381 985 C 405 977 428 967 450 953 C 472 939 491 922 507 902 C 523 882 535 860 545 835 C 554 809 559 782 559 752 Z" unicode="³" />
<glyph horiz-adv-x="1024" d="M 817 1333 C 817 1327 814 1321 810 1315 C 806 1308 801 1301 795 1294 C 755 1248 710 1205 662 1165 C 613 1125 562 1089 508 1055 L 424 1092 C 448 1110 472 1131 497 1154 C 522 1176 547 1200 571 1225 C 595 1249 617 1274 639 1300 C 661 1326 680 1351 698 1376 C 703 1384 710 1391 720 1397 C 729 1402 737 1405 743 1405 C 749 1405 756 1402 765 1397 C 773 1391 781 1385 789 1377 C 797 1369 803 1362 809 1354 C 814 1346 817 1339 817 1333 Z" unicode="´" />
<glyph horiz-adv-x="1408" d="M 252 -424 C 214 -424 186 -413 168 -392 C 149 -370 140 -333 140 -280 C 140 -226 141 -168 144 -106 C 146 -43 150 25 156 100 C 161 166 165 218 168 256 C 170 293 172 317 172 328 C 174 341 176 350 176 356 C 176 361 176 365 176 368 L 176 1176 L 368 1176 L 368 320 C 368 258 395 210 450 176 C 504 141 564 124 628 124 C 716 124 792 146 858 190 C 923 234 973 297 1008 380 L 1008 1176 L 1200 1176 L 1200 308 L 1220 0 L 1056 0 L 1020 176 C 974 104 913 50 836 14 C 758 -22 670 -40 572 -40 C 537 -40 494 -31 444 -14 C 393 3 353 28 324 60 C 324 1 333 -56 352 -112 C 370 -168 380 -218 380 -264 C 380 -370 337 -424 252 -424 Z" unicode="µ" />
<glyph horiz-adv-x="758" d="M 743 1208 L 606 1208 L 606 -106 C 606 -154 599 -199 586 -240 C 572 -281 554 -317 532 -349 C 509 -380 482 -406 452 -427 C 422 -448 390 -463 356 -471 L 272 -389 C 336 -373 386 -342 422 -294 C 457 -246 475 -180 475 -96 L 475 641 L 451 641 C 402 641 355 648 310 662 C 264 676 224 697 190 725 C 155 753 127 788 107 830 C 86 872 76 921 76 977 C 76 1033 86 1082 107 1124 C 127 1166 155 1202 190 1230 C 225 1258 265 1280 311 1295 C 356 1309 403 1317 453 1317 L 743 1317 L 743 1208 Z" unicode="¶" />
<glyph horiz-adv-x="381" d="M 291 555 C 291 547 287 537 280 525 C 272 513 263 502 253 492 C 242 482 231 473 219 466 C 207 458 198 455 190 455 C 182 455 172 458 161 466 C 149 473 138 482 128 492 C 117 502 108 513 101 525 C 93 537 90 547 90 555 C 90 563 93 572 101 583 C 108 594 117 605 128 615 C 138 625 149 634 161 642 C 172 649 182 653 190 653 C 198 653 207 649 219 642 C 231 634 242 625 253 615 C 263 605 272 594 280 583 C 287 572 291 563 291 555 Z" unicode="·" />
<glyph horiz-adv-x="1024" d="M 696 -262 C 696 -295 689 -324 677 -349 C 664 -374 647 -395 627 -411 C 606 -427 583 -440 558 -448 C 532 -456 507 -461 481 -461 C 452 -461 425 -456 400 -448 C 374 -439 350 -427 328 -412 L 346 -334 C 365 -349 387 -360 411 -368 C 435 -375 459 -379 483 -379 C 497 -379 512 -376 526 -372 C 540 -367 552 -360 563 -350 C 574 -340 583 -329 590 -315 C 596 -301 600 -284 600 -266 C 600 -247 596 -230 589 -216 C 581 -202 572 -190 562 -181 C 551 -172 539 -165 527 -161 C 515 -156 504 -154 494 -154 C 468 -154 452 -147 445 -134 C 437 -121 436 -107 440 -92 L 467 4 L 530 4 L 510 -68 C 531 -69 553 -74 575 -83 C 597 -92 617 -105 635 -122 C 653 -138 667 -158 679 -182 C 690 -205 696 -232 696 -262 Z" unicode="¸" />
<glyph horiz-adv-x="524" d="M 344 508 L 248 508 L 248 1233 L 84 1221 L 106 1309 L 344 1329 L 344 508 Z" unicode="¹" />
<glyph horiz-adv-x="938" d="M 862 942 C 862 886 852 834 832 787 C 812 739 784 698 749 664 C 713 630 672 603 624 584 C 576 564 525 555 469 555 C 413 555 361 564 313 584 C 265 603 224 630 189 664 C 153 698 126 739 106 787 C 86 834 76 886 76 942 C 76 998 86 1050 106 1098 C 126 1145 153 1186 189 1220 C 224 1254 265 1281 313 1300 C 361 1319 413 1329 469 1329 C 525 1329 576 1319 624 1300 C 672 1281 713 1254 749 1220 C 784 1186 812 1145 832 1098 C 852 1050 862 998 862 942 Z M 748 942 C 748 984 740 1023 726 1059 C 711 1095 691 1125 666 1151 C 640 1177 611 1197 577 1211 C 543 1225 507 1233 469 1233 C 429 1233 393 1225 359 1211 C 325 1197 296 1177 271 1151 C 245 1125 225 1095 211 1059 C 197 1023 190 984 190 942 C 190 899 197 860 211 824 C 225 788 245 758 271 732 C 296 706 325 686 359 672 C 393 658 429 651 469 651 C 507 651 543 658 577 672 C 611 686 640 706 666 732 C 691 758 711 788 726 824 C 740 860 748 899 748 942 Z M 555 315 C 555 308 551 300 545 290 C 539 280 531 271 522 262 C 513 253 504 245 494 239 C 484 232 476 229 469 229 C 462 229 454 232 444 239 C 434 245 424 253 415 262 C 406 271 398 280 392 290 C 386 300 383 308 383 315 C 383 322 386 331 392 341 C 398 351 406 360 415 370 C 424 379 434 387 444 393 C 454 399 462 403 469 403 C 476 403 484 399 494 393 C 504 387 513 379 522 370 C 531 360 539 351 545 341 C 551 331 555 322 555 315 Z" unicode="º" />
<glyph horiz-adv-x="782" d="M 729 463 C 729 457 726 450 721 442 C 715 434 709 427 702 422 C 682 406 661 389 641 371 C 620 352 600 332 580 311 C 560 290 540 269 522 248 C 504 226 487 206 473 186 L 453 238 C 470 278 488 316 508 354 C 528 391 550 427 575 463 C 550 497 528 533 508 571 C 488 609 470 648 453 688 L 473 739 C 487 719 504 698 522 677 C 540 655 560 634 580 614 C 600 593 620 573 641 554 C 661 535 682 518 702 504 C 709 498 715 491 721 483 C 726 475 729 468 729 463 Z M 367 463 C 367 457 364 450 359 442 C 353 434 347 427 340 422 C 320 406 299 389 279 371 C 258 352 238 332 218 311 C 198 290 180 269 162 248 C 144 226 127 206 113 186 L 90 238 C 107 278 126 316 146 354 C 166 391 188 427 213 463 C 188 497 166 533 146 571 C 126 609 107 648 90 688 L 113 739 C 127 719 144 698 162 677 C 180 655 198 634 218 614 C 238 593 258 573 279 554 C 299 535 320 518 340 504 C 347 498 353 491 359 483 C 364 475 367 468 367 463 Z" unicode="»" />
<glyph horiz-adv-x="1475" d="M 1360 238 L 1249 238 L 1249 0 L 1153 0 L 1153 238 L 795 238 L 772 317 L 1169 813 L 1249 813 L 1249 319 L 1360 319 L 1360 238 Z M 1159 678 L 1155 680 C 1142 659 1128 638 1114 618 C 1099 598 1083 577 1067 557 L 881 319 L 1153 319 L 1153 559 C 1153 579 1153 599 1154 618 C 1155 637 1157 657 1159 678 Z M 1253 1288 L 188 -29 L 133 16 L 1200 1335 L 1253 1288 Z M 344 508 L 248 508 L 248 1233 L 84 1221 L 106 1309 L 344 1329 L 344 508 Z" unicode="¼" />
<glyph horiz-adv-x="1606" d="M 1501 0 L 954 0 L 954 27 C 1026 88 1089 145 1141 198 C 1193 250 1236 299 1270 344 C 1303 389 1328 430 1344 467 C 1360 504 1368 537 1368 567 C 1368 624 1350 667 1314 697 C 1278 726 1230 741 1171 741 C 1135 741 1101 736 1071 727 C 1040 718 1012 706 987 692 L 965 772 C 989 786 1019 798 1055 808 C 1090 818 1129 823 1171 823 C 1217 823 1259 816 1295 804 C 1331 792 1362 774 1387 752 C 1411 729 1430 702 1443 670 C 1455 638 1462 602 1462 563 C 1462 529 1454 493 1440 455 C 1426 417 1405 377 1378 336 C 1350 295 1317 253 1278 210 C 1239 167 1195 124 1147 82 L 1501 82 L 1501 0 Z M 1253 1288 L 188 -29 L 133 18 L 1200 1335 L 1253 1288 Z M 344 508 L 248 508 L 248 1233 L 84 1221 L 106 1309 L 344 1329 L 344 508 Z" unicode="½" />
<glyph horiz-adv-x="1563" d="M 1468 238 L 1358 238 L 1358 0 L 1262 0 L 1262 238 L 901 238 L 881 317 L 1278 813 L 1358 813 L 1358 319 L 1468 319 L 1468 238 Z M 1268 678 L 1264 680 C 1250 659 1236 638 1222 618 C 1207 598 1192 577 1176 557 L 989 319 L 1262 319 L 1262 559 C 1262 579 1262 599 1263 618 C 1264 637 1266 657 1268 678 Z M 1362 1288 L 297 -29 L 240 16 L 1309 1335 L 1362 1288 Z M 559 752 C 559 714 552 680 538 649 C 524 617 504 590 478 568 C 452 545 420 527 382 515 C 344 502 302 496 256 496 C 228 496 200 499 172 505 C 144 511 120 520 100 530 L 86 627 C 110 612 137 600 167 591 C 196 582 225 578 254 578 C 282 578 308 582 333 590 C 358 598 380 609 399 625 C 418 640 433 659 444 682 C 455 704 461 730 461 760 C 461 782 456 803 446 823 C 436 843 423 860 407 875 C 390 890 371 902 349 911 C 327 919 305 924 281 924 C 275 924 269 924 263 924 C 256 924 248 923 238 922 L 217 999 C 273 1008 317 1025 349 1051 C 381 1076 397 1105 397 1137 C 397 1151 393 1165 387 1179 C 381 1192 372 1204 361 1214 C 349 1224 335 1232 318 1238 C 301 1244 282 1247 262 1247 C 238 1247 216 1243 194 1237 C 172 1230 147 1219 121 1204 L 98 1286 C 149 1314 204 1329 264 1329 C 298 1329 329 1324 357 1315 C 385 1305 409 1292 429 1276 C 449 1260 465 1240 477 1217 C 488 1194 494 1169 494 1143 C 494 1105 483 1072 462 1046 C 440 1020 413 999 381 985 C 405 977 428 967 450 953 C 472 939 491 922 507 902 C 523 882 535 860 545 835 C 554 809 559 782 559 752 Z" unicode="¾" />
<glyph horiz-adv-x="754" d="M 506 1229 C 506 1221 502 1211 495 1200 C 487 1189 478 1178 468 1168 C 457 1157 446 1148 435 1141 C 423 1133 414 1130 406 1130 C 397 1130 387 1133 375 1141 C 363 1148 352 1157 342 1168 C 332 1178 323 1189 316 1200 C 308 1211 305 1221 305 1229 C 305 1237 308 1246 316 1258 C 323 1270 332 1281 342 1291 C 352 1301 363 1310 375 1318 C 387 1325 397 1329 406 1329 C 414 1329 423 1325 435 1318 C 446 1310 457 1301 468 1291 C 478 1281 487 1270 495 1258 C 502 1246 506 1237 506 1229 Z M 686 53 C 655 32 618 15 575 1 C 531 -13 482 -20 428 -20 C 378 -20 333 -12 291 2 C 249 16 212 37 182 65 C 151 92 127 125 110 164 C 92 203 84 247 84 297 C 84 329 88 359 98 387 C 108 415 121 441 137 467 C 153 493 171 518 193 542 C 215 566 238 591 262 616 C 297 652 322 688 337 725 C 352 762 360 802 360 844 C 360 862 359 884 357 908 C 355 932 352 953 348 973 L 467 944 C 471 926 474 908 477 889 C 479 869 481 850 481 831 C 481 771 470 716 449 666 C 427 616 397 571 358 532 C 339 513 321 494 305 476 C 288 457 273 438 261 418 C 249 398 239 377 232 355 C 224 333 221 309 221 285 C 221 260 225 236 235 214 C 245 191 258 171 276 153 C 294 135 315 121 341 111 C 366 101 394 96 426 96 C 472 96 514 102 553 116 C 591 130 626 147 657 168 L 686 53 Z" unicode="¿" />
<glyph horiz-adv-x="1231" d="M 1178 0 L 1038 0 L 889 367 L 338 367 L 190 0 L 53 0 L 590 1325 L 641 1325 L 1178 0 Z M 842 479 L 686 881 C 674 911 662 943 650 977 C 638 1011 626 1046 616 1081 L 612 1081 C 602 1046 590 1011 578 977 C 566 943 554 911 543 881 L 385 479 L 842 479 Z M 774 1503 L 684 1464 C 630 1498 580 1534 532 1573 C 484 1611 440 1654 399 1700 C 393 1707 389 1714 385 1721 C 381 1728 379 1735 379 1741 C 379 1746 381 1753 387 1761 C 393 1769 400 1778 408 1786 C 416 1794 424 1800 433 1806 C 441 1812 449 1815 455 1815 C 461 1815 468 1812 478 1806 C 487 1800 495 1793 502 1784 C 519 1759 538 1734 560 1709 C 582 1683 605 1658 629 1634 C 653 1610 677 1586 702 1564 C 726 1542 750 1521 774 1503 Z" unicode="À" />
<glyph horiz-adv-x="1231" d="M 1178 0 L 1038 0 L 889 367 L 338 367 L 190 0 L 53 0 L 590 1325 L 641 1325 L 1178 0 Z M 842 479 L 686 881 C 674 911 662 943 650 977 C 638 1011 626 1046 616 1081 L 612 1081 C 602 1046 590 1011 578 977 C 566 943 554 911 543 881 L 385 479 L 842 479 Z M 856 1743 C 856 1737 853 1731 849 1725 C 845 1718 840 1711 834 1704 C 794 1658 749 1615 701 1575 C 652 1535 601 1498 547 1464 L 463 1501 C 487 1519 511 1540 536 1563 C 561 1586 586 1610 610 1635 C 634 1659 656 1684 678 1710 C 700 1736 719 1761 737 1786 C 742 1794 749 1800 759 1806 C 768 1812 776 1815 782 1815 C 788 1815 795 1812 804 1807 C 812 1801 820 1795 828 1787 C 836 1779 842 1771 848 1763 C 853 1755 856 1748 856 1743 Z" unicode="Á" />
<glyph horiz-adv-x="1231" d="M 1178 0 L 1038 0 L 889 367 L 338 367 L 190 0 L 53 0 L 590 1325 L 641 1325 L 1178 0 Z M 842 479 L 686 881 C 674 911 662 943 650 977 C 638 1011 626 1046 616 1081 L 612 1081 C 602 1046 590 1011 578 977 C 566 943 554 911 543 881 L 385 479 L 842 479 Z M 936 1503 L 846 1464 C 804 1491 763 1520 722 1550 C 681 1580 644 1613 610 1647 C 575 1613 538 1580 500 1550 C 462 1520 422 1491 381 1464 L 297 1501 C 320 1519 344 1540 369 1563 C 394 1585 419 1609 443 1633 C 467 1657 489 1682 511 1708 C 533 1734 552 1759 569 1784 C 575 1793 583 1800 593 1806 C 602 1812 610 1815 616 1815 C 622 1815 630 1812 640 1806 C 649 1800 657 1793 664 1784 C 680 1759 699 1734 721 1709 C 743 1683 766 1658 790 1634 C 814 1610 838 1586 863 1564 C 888 1542 912 1521 936 1503 Z" unicode="Â" />
<glyph horiz-adv-x="1231" d="M 1178 0 L 1038 0 L 889 367 L 338 367 L 190 0 L 53 0 L 590 1325 L 641 1325 L 1178 0 Z M 842 479 L 686 881 C 674 911 662 943 650 977 C 638 1011 626 1046 616 1081 L 612 1081 C 602 1046 590 1011 578 977 C 566 943 554 911 543 881 L 385 479 L 842 479 Z M 954 1722 C 940 1698 923 1673 905 1647 C 886 1621 867 1597 847 1575 C 827 1553 808 1534 790 1520 C 771 1506 755 1499 741 1499 C 725 1499 707 1504 687 1514 C 667 1524 647 1535 627 1547 C 607 1559 588 1570 571 1580 C 554 1590 541 1595 532 1595 C 522 1595 510 1590 498 1580 C 485 1570 472 1559 459 1546 C 446 1532 434 1518 423 1504 C 411 1490 402 1478 395 1468 L 305 1509 C 319 1533 335 1558 354 1584 C 372 1610 391 1635 411 1657 C 431 1679 450 1697 469 1711 C 487 1725 504 1733 518 1733 C 533 1733 551 1727 572 1717 C 592 1707 613 1695 633 1683 C 653 1671 671 1659 688 1649 C 705 1639 718 1634 727 1634 C 737 1634 748 1638 761 1648 C 774 1658 787 1669 800 1683 C 813 1696 825 1710 836 1724 C 847 1738 856 1751 864 1761 L 954 1722 Z" unicode="Ã" />
<glyph horiz-adv-x="1231" d="M 1178 0 L 1038 0 L 889 367 L 338 367 L 190 0 L 53 0 L 590 1325 L 641 1325 L 1178 0 Z M 842 479 L 686 881 C 674 911 662 943 650 977 C 638 1011 626 1046 616 1081 L 612 1081 C 602 1046 590 1011 578 977 C 566 943 554 911 543 881 L 385 479 L 842 479 Z M 852 1563 C 852 1556 848 1548 842 1538 C 836 1528 828 1518 819 1509 C 810 1500 801 1492 791 1486 C 781 1480 773 1477 766 1477 C 758 1477 750 1480 740 1486 C 730 1492 721 1500 712 1509 C 703 1518 695 1528 689 1538 C 683 1548 680 1556 680 1563 C 680 1569 683 1578 689 1588 C 695 1598 703 1607 712 1616 C 721 1625 730 1633 740 1639 C 750 1645 758 1649 766 1649 C 773 1649 781 1645 791 1639 C 801 1633 810 1625 819 1616 C 828 1607 836 1598 842 1588 C 848 1578 852 1569 852 1563 Z M 549 1563 C 549 1556 545 1548 539 1538 C 533 1528 525 1518 516 1509 C 507 1500 498 1492 488 1486 C 478 1480 470 1477 463 1477 C 456 1477 448 1480 438 1486 C 428 1492 418 1500 409 1509 C 400 1518 392 1528 386 1538 C 380 1548 377 1556 377 1563 C 377 1569 380 1578 386 1588 C 392 1598 400 1607 409 1616 C 418 1625 428 1633 438 1639 C 448 1645 456 1649 463 1649 C 470 1649 478 1645 488 1639 C 498 1633 507 1625 516 1616 C 525 1607 533 1598 539 1588 C 545 1578 549 1569 549 1563 Z" unicode="Ä" />
<glyph horiz-adv-x="1231" d="M 1178 0 L 1038 0 L 889 367 L 338 367 L 190 0 L 53 0 L 590 1325 L 641 1325 L 1178 0 Z M 842 479 L 686 881 C 674 911 662 943 650 977 C 638 1011 626 1046 616 1081 L 612 1081 C 602 1046 590 1011 578 977 C 566 943 554 911 543 881 L 385 479 L 842 479 Z M 825 1655 C 825 1626 819 1599 808 1574 C 797 1548 782 1526 763 1507 C 744 1488 722 1473 697 1462 C 671 1451 644 1446 616 1446 C 587 1446 560 1451 535 1462 C 510 1473 488 1488 469 1507 C 450 1526 435 1548 424 1574 C 413 1599 408 1626 408 1655 C 408 1683 413 1709 424 1734 C 435 1759 450 1781 469 1800 C 488 1819 510 1834 535 1845 C 560 1856 587 1862 616 1862 C 644 1862 671 1856 697 1845 C 722 1834 744 1819 763 1800 C 782 1781 797 1759 808 1734 C 819 1709 825 1683 825 1655 Z M 729 1655 C 729 1671 726 1687 720 1702 C 714 1716 707 1729 697 1740 C 687 1750 675 1759 661 1765 C 647 1771 632 1774 616 1774 C 600 1774 585 1771 571 1765 C 557 1759 544 1750 534 1740 C 524 1729 516 1716 510 1702 C 504 1687 502 1671 502 1655 C 502 1637 504 1621 510 1607 C 516 1593 524 1580 534 1570 C 544 1559 557 1551 571 1545 C 585 1539 600 1536 616 1536 C 632 1536 647 1539 661 1545 C 675 1551 687 1559 697 1570 C 707 1580 714 1593 720 1607 C 726 1621 729 1637 729 1655 Z" unicode="Å" />
<glyph horiz-adv-x="1626" d="M 1612 0 L 860 0 L 860 367 L 406 367 L 193 0 L 53 0 L 811 1307 L 1540 1307 L 1540 1188 L 997 1188 L 997 717 L 1442 717 L 1442 598 L 997 598 L 997 119 L 1612 119 L 1612 0 Z M 862 1184 L 858 1186 C 839 1146 819 1105 797 1064 C 775 1023 754 984 733 946 L 465 479 L 860 479 L 860 948 C 860 970 860 991 860 1011 C 860 1030 861 1049 861 1068 C 861 1086 861 1105 861 1124 C 861 1142 862 1162 862 1184 Z" unicode="Æ" />
<glyph horiz-adv-x="1237" d="M 1151 1233 L 1122 1110 C 1104 1120 1083 1131 1059 1141 C 1034 1151 1007 1161 978 1169 C 948 1177 917 1183 884 1188 C 850 1193 816 1196 782 1196 C 709 1196 639 1183 572 1158 C 505 1133 446 1097 394 1051 C 342 1004 301 947 271 879 C 240 811 225 735 225 651 C 225 566 240 490 270 423 C 300 355 341 298 393 251 C 444 204 503 168 570 143 C 637 118 708 106 782 106 C 857 106 923 113 980 128 C 1036 142 1086 162 1130 188 L 1116 59 C 1078 37 1032 20 978 8 C 924 -3 859 -10 782 -12 L 768 -68 C 789 -69 811 -74 833 -83 C 855 -92 875 -105 893 -122 C 911 -138 925 -158 937 -182 C 948 -205 954 -232 954 -262 C 954 -295 947 -324 935 -349 C 922 -374 905 -395 885 -411 C 864 -427 841 -440 816 -448 C 790 -456 765 -461 739 -461 C 710 -461 683 -456 657 -448 C 631 -439 607 -427 586 -412 L 604 -334 C 623 -349 644 -360 668 -368 C 692 -375 716 -379 741 -379 C 755 -379 770 -376 784 -372 C 798 -367 810 -360 821 -350 C 832 -340 841 -329 848 -315 C 854 -301 858 -284 858 -266 C 858 -247 854 -230 847 -216 C 839 -202 830 -190 820 -181 C 809 -172 797 -165 785 -161 C 773 -156 762 -154 752 -154 C 726 -154 709 -147 702 -134 C 695 -121 694 -107 698 -92 L 721 -10 C 638 -4 558 14 482 47 C 406 80 338 125 280 182 C 221 239 174 307 139 387 C 103 466 86 555 86 653 C 86 722 94 787 112 847 C 130 907 154 961 186 1011 C 218 1060 255 1104 298 1142 C 341 1180 388 1212 439 1238 C 489 1264 543 1284 599 1298 C 655 1312 712 1319 770 1319 C 852 1319 926 1310 991 1293 C 1055 1276 1109 1256 1151 1233 Z" unicode="Ç" />
<glyph horiz-adv-x="909" d="M 895 0 L 141 0 L 141 1307 L 823 1307 L 823 1188 L 279 1188 L 279 717 L 725 717 L 725 598 L 279 598 L 279 119 L 895 119 L 895 0 Z M 645 1503 L 555 1464 C 501 1498 451 1534 403 1573 C 355 1611 311 1654 270 1700 C 264 1707 260 1714 256 1721 C 252 1728 250 1735 250 1741 C 250 1746 252 1753 258 1761 C 264 1769 271 1778 279 1786 C 287 1794 295 1800 304 1806 C 312 1812 320 1815 326 1815 C 332 1815 339 1812 349 1806 C 358 1800 366 1793 373 1784 C 390 1759 409 1734 431 1709 C 453 1683 476 1658 500 1634 C 524 1610 548 1586 573 1564 C 597 1542 621 1521 645 1503 Z" unicode="È" />
<glyph horiz-adv-x="909" d="M 895 0 L 141 0 L 141 1307 L 823 1307 L 823 1188 L 279 1188 L 279 717 L 725 717 L 725 598 L 279 598 L 279 119 L 895 119 L 895 0 Z M 758 1743 C 758 1737 755 1731 751 1725 C 747 1718 741 1711 735 1704 C 695 1658 650 1615 602 1575 C 554 1535 503 1498 449 1464 L 365 1501 C 389 1519 413 1540 438 1563 C 463 1586 488 1610 512 1635 C 536 1659 558 1684 580 1710 C 602 1736 621 1761 639 1786 C 644 1794 651 1800 661 1806 C 670 1812 678 1815 684 1815 C 690 1815 697 1812 706 1807 C 714 1801 722 1795 730 1787 C 738 1779 744 1771 750 1763 C 755 1755 758 1748 758 1743 Z" unicode="É" />
<glyph horiz-adv-x="909" d="M 895 0 L 141 0 L 141 1307 L 823 1307 L 823 1188 L 279 1188 L 279 717 L 725 717 L 725 598 L 279 598 L 279 119 L 895 119 L 895 0 Z M 823 1503 L 733 1464 C 691 1491 650 1520 610 1550 C 569 1580 532 1613 498 1647 C 462 1613 425 1580 387 1550 C 349 1520 309 1491 268 1464 L 184 1501 C 208 1519 232 1540 257 1563 C 282 1585 307 1609 331 1633 C 355 1657 377 1682 399 1708 C 420 1734 439 1759 457 1784 C 463 1793 470 1800 480 1806 C 490 1812 498 1815 504 1815 C 510 1815 517 1812 527 1806 C 537 1800 545 1793 551 1784 C 567 1759 586 1734 608 1709 C 630 1683 653 1658 677 1634 C 701 1610 725 1586 750 1564 C 775 1542 799 1521 823 1503 Z" unicode="Ê" />
<glyph horiz-adv-x="909" d="M 895 0 L 141 0 L 141 1307 L 823 1307 L 823 1188 L 279 1188 L 279 717 L 725 717 L 725 598 L 279 598 L 279 119 L 895 119 L 895 0 Z M 737 1563 C 737 1556 733 1548 727 1538 C 721 1528 713 1518 704 1509 C 695 1500 686 1492 676 1486 C 666 1480 658 1477 651 1477 C 643 1477 635 1480 625 1486 C 615 1492 606 1500 597 1509 C 588 1518 580 1528 574 1538 C 568 1548 565 1556 565 1563 C 565 1569 568 1578 574 1588 C 580 1598 588 1607 597 1616 C 606 1625 615 1633 625 1639 C 635 1645 643 1649 651 1649 C 658 1649 666 1645 676 1639 C 686 1633 695 1625 704 1616 C 713 1607 721 1598 727 1588 C 733 1578 737 1569 737 1563 Z M 434 1563 C 434 1556 430 1548 424 1538 C 418 1528 410 1518 401 1509 C 392 1500 383 1492 373 1486 C 363 1480 355 1477 348 1477 C 341 1477 333 1480 323 1486 C 313 1492 304 1500 295 1509 C 286 1518 278 1528 272 1538 C 265 1548 262 1556 262 1563 C 262 1569 265 1578 272 1588 C 278 1598 286 1607 295 1616 C 304 1625 313 1633 323 1639 C 333 1645 341 1649 348 1649 C 355 1649 363 1645 373 1639 C 383 1633 392 1625 401 1616 C 410 1607 418 1598 424 1588 C 430 1578 434 1569 434 1563 Z" unicode="Ë" />
<glyph horiz-adv-x="461" d="M 299 0 L 162 0 L 162 1307 L 299 1307 L 299 0 Z M 391 1503 L 301 1464 C 247 1498 197 1534 149 1573 C 101 1611 57 1654 16 1700 C 10 1707 6 1714 2 1721 C -2 1728 -4 1735 -4 1741 C -4 1746 -1 1753 4 1761 C 10 1769 17 1778 25 1786 C 33 1794 41 1800 50 1806 C 58 1812 66 1815 72 1815 C 78 1815 85 1812 95 1806 C 104 1800 112 1793 119 1784 C 136 1759 155 1734 177 1709 C 199 1683 222 1658 246 1634 C 270 1610 294 1586 319 1564 C 343 1542 367 1521 391 1503 Z" unicode="Ì" />
<glyph horiz-adv-x="461" d="M 299 0 L 162 0 L 162 1307 L 299 1307 L 299 0 Z M 469 1743 C 469 1737 466 1731 462 1725 C 458 1718 452 1711 446 1704 C 406 1658 361 1615 313 1575 C 265 1535 214 1498 160 1464 L 76 1501 C 100 1519 124 1540 149 1563 C 174 1586 199 1610 223 1635 C 247 1659 269 1684 291 1710 C 313 1736 332 1761 350 1786 C 355 1794 362 1800 372 1806 C 381 1812 389 1815 395 1815 C 401 1815 408 1812 417 1807 C 425 1801 433 1795 441 1787 C 449 1779 455 1771 461 1763 C 466 1755 469 1748 469 1743 Z" unicode="Í" />
<glyph horiz-adv-x="461" d="M 299 0 L 162 0 L 162 1307 L 299 1307 L 299 0 Z M 555 1503 L 465 1464 C 423 1491 382 1520 341 1550 C 300 1580 263 1613 229 1647 C 194 1613 157 1580 119 1550 C 81 1520 41 1491 0 1464 L -84 1501 C -60 1519 -36 1540 -11 1563 C 13 1585 38 1609 62 1633 C 86 1657 108 1682 130 1708 C 152 1734 171 1759 188 1784 C 194 1793 202 1800 212 1806 C 221 1812 229 1815 236 1815 C 242 1815 249 1812 259 1806 C 268 1800 276 1793 283 1784 C 299 1759 318 1734 340 1709 C 362 1683 385 1658 409 1634 C 433 1610 457 1586 482 1564 C 507 1542 531 1521 555 1503 Z" unicode="Î" />
<glyph horiz-adv-x="461" d="M 299 0 L 162 0 L 162 1307 L 299 1307 L 299 0 Z M 469 1563 C 469 1556 465 1548 459 1538 C 453 1528 445 1518 436 1509 C 427 1500 418 1492 408 1486 C 398 1480 390 1477 383 1477 C 375 1477 367 1480 357 1486 C 347 1492 338 1500 329 1509 C 320 1518 312 1528 306 1538 C 300 1548 297 1556 297 1563 C 297 1569 300 1578 306 1588 C 312 1598 320 1607 329 1616 C 338 1625 347 1633 357 1639 C 367 1645 375 1649 383 1649 C 390 1649 398 1645 408 1639 C 418 1633 427 1625 436 1616 C 445 1607 453 1598 459 1588 C 465 1578 469 1569 469 1563 Z M 166 1563 C 166 1556 162 1548 156 1538 C 150 1528 142 1518 133 1509 C 124 1500 115 1492 105 1486 C 95 1480 87 1477 80 1477 C 73 1477 65 1480 55 1486 C 45 1492 35 1500 26 1509 C 17 1518 9 1528 3 1538 C -2 1548 -6 1556 -6 1563 C -6 1569 -2 1578 3 1588 C 9 1598 17 1607 26 1616 C 35 1625 45 1633 55 1639 C 65 1645 73 1649 80 1649 C 87 1649 95 1645 105 1639 C 115 1633 124 1625 133 1616 C 142 1607 150 1598 156 1588 C 162 1578 166 1569 166 1563 Z" unicode="Ï" />
<glyph horiz-adv-x="1358" d="M 1272 653 C 1272 549 1252 456 1214 375 C 1176 294 1124 226 1058 170 C 992 114 915 72 827 43 C 739 14 645 0 547 0 L 205 0 L 205 604 L 35 604 L 35 711 L 205 711 L 205 1307 L 547 1307 C 645 1307 739 1292 827 1263 C 915 1234 992 1192 1058 1136 C 1124 1080 1176 1011 1214 930 C 1252 849 1272 757 1272 653 Z M 1130 651 C 1130 737 1114 814 1084 881 C 1054 948 1012 1004 958 1050 C 904 1095 840 1129 766 1153 C 692 1176 612 1188 526 1188 L 344 1188 L 344 711 L 629 711 L 604 604 L 344 604 L 344 117 L 526 117 C 612 117 692 128 766 151 C 840 174 904 208 958 253 C 1012 298 1054 354 1084 420 C 1114 486 1130 563 1130 651 Z" unicode="Ð" />
<glyph horiz-adv-x="1417" d="M 1276 -20 L 1235 -20 L 596 707 C 569 737 542 768 514 801 C 486 833 458 866 431 899 C 403 931 377 963 351 995 C 325 1026 301 1055 279 1083 L 274 1081 C 276 1020 278 960 278 900 C 278 840 279 781 279 721 L 279 0 L 141 0 L 141 1307 L 238 1307 L 844 614 C 866 588 889 561 915 532 C 940 502 966 472 992 442 C 1018 411 1043 380 1069 350 C 1094 320 1117 291 1139 264 L 1143 266 C 1141 324 1139 382 1139 440 C 1139 498 1139 554 1139 610 L 1139 1307 L 1276 1307 L 1276 -20 Z M 1040 1722 C 1026 1698 1009 1673 991 1647 C 972 1621 953 1597 933 1575 C 913 1553 894 1534 876 1520 C 857 1506 841 1499 827 1499 C 811 1499 793 1504 773 1514 C 753 1524 733 1535 713 1547 C 693 1559 674 1570 657 1580 C 640 1590 627 1595 618 1595 C 608 1595 596 1590 584 1580 C 571 1570 558 1559 545 1546 C 532 1532 520 1518 509 1504 C 497 1490 488 1478 481 1468 L 391 1509 C 405 1533 421 1558 440 1584 C 458 1610 477 1635 497 1657 C 517 1679 536 1697 555 1711 C 573 1725 590 1733 604 1733 C 619 1733 637 1727 658 1717 C 678 1707 699 1695 719 1683 C 739 1671 757 1659 774 1649 C 791 1639 804 1634 813 1634 C 823 1634 834 1638 847 1648 C 860 1658 873 1669 886 1683 C 899 1696 911 1710 922 1724 C 933 1738 942 1751 950 1761 L 1040 1722 Z" unicode="Ñ" />
<glyph horiz-adv-x="1540" d="M 1454 655 C 1454 587 1445 524 1428 464 C 1411 404 1387 349 1357 299 C 1326 249 1289 204 1247 164 C 1204 124 1157 90 1107 62 C 1056 34 1002 13 945 -1 C 888 -15 830 -23 770 -23 C 710 -23 651 -15 594 -1 C 537 13 483 34 433 62 C 382 90 335 124 293 164 C 250 204 213 249 183 299 C 152 349 128 404 111 464 C 94 524 86 587 86 655 C 86 722 94 785 111 845 C 128 904 152 959 183 1009 C 213 1059 250 1103 293 1143 C 335 1183 382 1216 433 1244 C 483 1271 537 1292 594 1307 C 651 1321 710 1329 770 1329 C 830 1329 888 1321 945 1307 C 1002 1292 1056 1271 1107 1244 C 1157 1216 1204 1183 1247 1143 C 1289 1103 1326 1059 1357 1009 C 1387 959 1411 904 1428 845 C 1445 785 1454 722 1454 655 Z M 1315 651 C 1315 735 1300 811 1270 879 C 1240 947 1199 1006 1149 1054 C 1099 1102 1041 1140 975 1166 C 909 1192 841 1206 770 1206 C 698 1206 629 1192 563 1166 C 497 1140 440 1102 390 1054 C 340 1006 300 947 270 879 C 240 811 225 735 225 651 C 225 567 240 490 270 422 C 300 354 340 295 390 247 C 440 199 497 161 563 135 C 629 109 698 96 770 96 C 841 96 909 109 975 135 C 1041 161 1099 199 1149 247 C 1199 295 1240 354 1270 422 C 1300 490 1315 567 1315 651 Z M 915 1503 L 825 1464 C 771 1498 721 1534 674 1573 C 626 1611 582 1654 541 1700 C 535 1707 530 1714 526 1721 C 522 1728 520 1735 520 1741 C 520 1746 522 1753 528 1761 C 534 1769 541 1778 549 1786 C 557 1794 565 1800 574 1806 C 582 1812 590 1815 596 1815 C 602 1815 609 1812 619 1806 C 629 1800 637 1793 643 1784 C 660 1759 680 1734 702 1709 C 724 1683 747 1658 771 1634 C 795 1610 819 1586 843 1564 C 867 1542 891 1521 915 1503 Z" unicode="Ò" />
<glyph horiz-adv-x="1540" d="M 1454 655 C 1454 587 1445 524 1428 464 C 1411 404 1387 349 1357 299 C 1326 249 1289 204 1247 164 C 1204 124 1157 90 1107 62 C 1056 34 1002 13 945 -1 C 888 -15 830 -23 770 -23 C 710 -23 651 -15 594 -1 C 537 13 483 34 433 62 C 382 90 335 124 293 164 C 250 204 213 249 183 299 C 152 349 128 404 111 464 C 94 524 86 587 86 655 C 86 722 94 785 111 845 C 128 904 152 959 183 1009 C 213 1059 250 1103 293 1143 C 335 1183 382 1216 433 1244 C 483 1271 537 1292 594 1307 C 651 1321 710 1329 770 1329 C 830 1329 888 1321 945 1307 C 1002 1292 1056 1271 1107 1244 C 1157 1216 1204 1183 1247 1143 C 1289 1103 1326 1059 1357 1009 C 1387 959 1411 904 1428 845 C 1445 785 1454 722 1454 655 Z M 1315 651 C 1315 735 1300 811 1270 879 C 1240 947 1199 1006 1149 1054 C 1099 1102 1041 1140 975 1166 C 909 1192 841 1206 770 1206 C 698 1206 629 1192 563 1166 C 497 1140 440 1102 390 1054 C 340 1006 300 947 270 879 C 240 811 225 735 225 651 C 225 567 240 490 270 422 C 300 354 340 295 390 247 C 440 199 497 161 563 135 C 629 109 698 96 770 96 C 841 96 909 109 975 135 C 1041 161 1099 199 1149 247 C 1199 295 1240 354 1270 422 C 1300 490 1315 567 1315 651 Z M 1004 1743 C 1004 1737 1001 1731 997 1725 C 992 1718 987 1711 981 1704 C 941 1658 896 1615 848 1575 C 800 1535 748 1498 694 1464 L 610 1501 C 634 1519 658 1540 684 1563 C 709 1586 734 1610 758 1635 C 782 1659 804 1684 826 1710 C 848 1736 867 1761 885 1786 C 890 1794 897 1800 907 1806 C 916 1812 924 1815 930 1815 C 936 1815 943 1812 951 1807 C 959 1801 968 1795 976 1787 C 984 1779 990 1771 996 1763 C 1001 1755 1004 1748 1004 1743 Z" unicode="Ó" />
<glyph horiz-adv-x="1540" d="M 1454 655 C 1454 587 1445 524 1428 464 C 1411 404 1387 349 1357 299 C 1326 249 1289 204 1247 164 C 1204 124 1157 90 1107 62 C 1056 34 1002 13 945 -1 C 888 -15 830 -23 770 -23 C 710 -23 651 -15 594 -1 C 537 13 483 34 433 62 C 382 90 335 124 293 164 C 250 204 213 249 183 299 C 152 349 128 404 111 464 C 94 524 86 587 86 655 C 86 722 94 785 111 845 C 128 904 152 959 183 1009 C 213 1059 250 1103 293 1143 C 335 1183 382 1216 433 1244 C 483 1271 537 1292 594 1307 C 651 1321 710 1329 770 1329 C 830 1329 888 1321 945 1307 C 1002 1292 1056 1271 1107 1244 C 1157 1216 1204 1183 1247 1143 C 1289 1103 1326 1059 1357 1009 C 1387 959 1411 904 1428 845 C 1445 785 1454 722 1454 655 Z M 1315 651 C 1315 735 1300 811 1270 879 C 1240 947 1199 1006 1149 1054 C 1099 1102 1041 1140 975 1166 C 909 1192 841 1206 770 1206 C 698 1206 629 1192 563 1166 C 497 1140 440 1102 390 1054 C 340 1006 300 947 270 879 C 240 811 225 735 225 651 C 225 567 240 490 270 422 C 300 354 340 295 390 247 C 440 199 497 161 563 135 C 629 109 698 96 770 96 C 841 96 909 109 975 135 C 1041 161 1099 199 1149 247 C 1199 295 1240 354 1270 422 C 1300 490 1315 567 1315 651 Z M 1087 1503 L 997 1464 C 955 1491 914 1520 874 1550 C 833 1580 796 1613 762 1647 C 726 1613 689 1580 651 1550 C 613 1520 573 1491 532 1464 L 449 1501 C 472 1519 496 1540 521 1563 C 546 1585 571 1609 595 1633 C 619 1657 641 1682 663 1708 C 684 1734 703 1759 721 1784 C 727 1793 734 1800 744 1806 C 754 1812 762 1815 768 1815 C 774 1815 781 1812 791 1806 C 801 1800 809 1793 815 1784 C 831 1759 850 1734 872 1709 C 894 1683 917 1658 941 1634 C 965 1610 989 1586 1014 1564 C 1039 1542 1063 1521 1087 1503 Z" unicode="Ô" />
<glyph horiz-adv-x="1540" d="M 1454 655 C 1454 587 1445 524 1428 464 C 1411 404 1387 349 1357 299 C 1326 249 1289 204 1247 164 C 1204 124 1157 90 1107 62 C 1056 34 1002 13 945 -1 C 888 -15 830 -23 770 -23 C 710 -23 651 -15 594 -1 C 537 13 483 34 433 62 C 382 90 335 124 293 164 C 250 204 213 249 183 299 C 152 349 128 404 111 464 C 94 524 86 587 86 655 C 86 722 94 785 111 845 C 128 904 152 959 183 1009 C 213 1059 250 1103 293 1143 C 335 1183 382 1216 433 1244 C 483 1271 537 1292 594 1307 C 651 1321 710 1329 770 1329 C 830 1329 888 1321 945 1307 C 1002 1292 1056 1271 1107 1244 C 1157 1216 1204 1183 1247 1143 C 1289 1103 1326 1059 1357 1009 C 1387 959 1411 904 1428 845 C 1445 785 1454 722 1454 655 Z M 1315 651 C 1315 735 1300 811 1270 879 C 1240 947 1199 1006 1149 1054 C 1099 1102 1041 1140 975 1166 C 909 1192 841 1206 770 1206 C 698 1206 629 1192 563 1166 C 497 1140 440 1102 390 1054 C 340 1006 300 947 270 879 C 240 811 225 735 225 651 C 225 567 240 490 270 422 C 300 354 340 295 390 247 C 440 199 497 161 563 135 C 629 109 698 96 770 96 C 841 96 909 109 975 135 C 1041 161 1099 199 1149 247 C 1199 295 1240 354 1270 422 C 1300 490 1315 567 1315 651 Z M 1110 1722 C 1096 1698 1079 1673 1061 1647 C 1042 1621 1023 1597 1003 1575 C 983 1553 964 1534 946 1520 C 927 1506 911 1499 897 1499 C 881 1499 863 1504 843 1514 C 823 1524 803 1535 783 1547 C 763 1559 744 1570 727 1580 C 710 1590 697 1595 688 1595 C 678 1595 666 1590 653 1580 C 640 1570 627 1559 615 1546 C 602 1532 590 1518 579 1504 C 567 1490 558 1478 551 1468 L 461 1509 C 475 1533 491 1558 510 1584 C 528 1610 547 1635 567 1657 C 587 1679 606 1697 625 1711 C 643 1725 660 1733 674 1733 C 689 1733 707 1727 727 1717 C 747 1707 768 1695 788 1683 C 808 1671 826 1659 844 1649 C 861 1639 874 1634 883 1634 C 893 1634 904 1638 917 1648 C 930 1658 943 1669 956 1683 C 968 1696 980 1710 992 1724 C 1003 1738 1012 1751 1020 1761 L 1110 1722 Z" unicode="Õ" />
<glyph horiz-adv-x="1540" d="M 1454 655 C 1454 587 1445 524 1428 464 C 1411 404 1387 349 1357 299 C 1326 249 1289 204 1247 164 C 1204 124 1157 90 1107 62 C 1056 34 1002 13 945 -1 C 888 -15 830 -23 770 -23 C 710 -23 651 -15 594 -1 C 537 13 483 34 433 62 C 382 90 335 124 293 164 C 250 204 213 249 183 299 C 152 349 128 404 111 464 C 94 524 86 587 86 655 C 86 722 94 785 111 845 C 128 904 152 959 183 1009 C 213 1059 250 1103 293 1143 C 335 1183 382 1216 433 1244 C 483 1271 537 1292 594 1307 C 651 1321 710 1329 770 1329 C 830 1329 888 1321 945 1307 C 1002 1292 1056 1271 1107 1244 C 1157 1216 1204 1183 1247 1143 C 1289 1103 1326 1059 1357 1009 C 1387 959 1411 904 1428 845 C 1445 785 1454 722 1454 655 Z M 1315 651 C 1315 735 1300 811 1270 879 C 1240 947 1199 1006 1149 1054 C 1099 1102 1041 1140 975 1166 C 909 1192 841 1206 770 1206 C 698 1206 629 1192 563 1166 C 497 1140 440 1102 390 1054 C 340 1006 300 947 270 879 C 240 811 225 735 225 651 C 225 567 240 490 270 422 C 300 354 340 295 390 247 C 440 199 497 161 563 135 C 629 109 698 96 770 96 C 841 96 909 109 975 135 C 1041 161 1099 199 1149 247 C 1199 295 1240 354 1270 422 C 1300 490 1315 567 1315 651 Z M 1008 1563 C 1008 1556 1004 1548 998 1538 C 992 1528 984 1518 975 1509 C 966 1500 957 1492 947 1486 C 937 1480 928 1477 922 1477 C 914 1477 906 1480 896 1486 C 886 1492 877 1500 868 1509 C 859 1518 851 1528 845 1538 C 839 1548 836 1556 836 1563 C 836 1569 839 1578 845 1588 C 851 1598 859 1607 868 1616 C 877 1625 886 1633 896 1639 C 906 1645 914 1649 922 1649 C 928 1649 937 1645 947 1639 C 957 1633 966 1625 975 1616 C 984 1607 992 1598 998 1588 C 1004 1578 1008 1569 1008 1563 Z M 705 1563 C 705 1556 701 1548 695 1538 C 689 1528 681 1518 672 1509 C 663 1500 654 1492 644 1486 C 634 1480 625 1477 618 1477 C 611 1477 603 1480 593 1486 C 583 1492 574 1500 565 1509 C 556 1518 548 1528 542 1538 C 535 1548 532 1556 532 1563 C 532 1569 535 1578 542 1588 C 548 1598 556 1607 565 1616 C 574 1625 583 1633 593 1639 C 603 1645 611 1649 618 1649 C 625 1649 634 1645 644 1639 C 654 1633 663 1625 672 1616 C 681 1607 689 1598 695 1588 C 701 1578 705 1569 705 1563 Z" unicode="Ö" />
<glyph horiz-adv-x="975" d="M 813 299 L 750 236 L 492 494 L 233 233 L 168 299 L 426 557 L 170 815 L 233 881 L 492 623 L 748 877 L 811 813 L 557 557 L 813 299 Z" unicode="×" />
<glyph horiz-adv-x="1540" d="M 1454 655 C 1454 587 1445 524 1428 464 C 1411 404 1387 349 1357 299 C 1326 249 1289 204 1247 164 C 1204 124 1157 90 1107 62 C 1056 34 1002 13 945 -1 C 888 -15 830 -23 770 -23 C 698 -23 628 -12 562 8 C 495 28 433 58 377 96 L 254 -57 L 188 0 L 309 150 C 275 179 244 212 217 249 C 189 285 166 325 147 367 C 127 409 112 455 102 503 C 91 551 86 602 86 655 C 86 722 94 785 111 845 C 128 904 152 959 183 1009 C 213 1059 250 1103 293 1143 C 335 1183 382 1216 433 1244 C 483 1271 537 1292 594 1307 C 651 1321 710 1329 770 1329 C 842 1329 911 1319 979 1299 C 1046 1279 1108 1249 1165 1210 L 1286 1360 L 1352 1305 L 1233 1157 C 1301 1097 1354 1024 1394 940 C 1434 855 1454 760 1454 655 Z M 1315 651 C 1315 735 1300 812 1270 880 C 1240 948 1201 1006 1151 1055 L 457 195 C 502 163 551 138 604 121 C 656 104 712 96 770 96 C 841 96 909 109 975 135 C 1041 161 1099 199 1149 247 C 1199 295 1240 354 1270 422 C 1300 490 1315 567 1315 651 Z M 1083 1110 C 1037 1142 988 1166 935 1182 C 881 1198 826 1206 770 1206 C 698 1206 629 1192 563 1166 C 497 1140 440 1102 390 1054 C 340 1006 300 947 270 879 C 240 811 225 735 225 651 C 225 566 239 490 269 423 C 299 355 339 298 389 250 L 1083 1110 Z" unicode="Ø" />
<glyph horiz-adv-x="1303" d="M 1161 453 C 1161 379 1148 312 1124 253 C 1099 194 1064 144 1019 103 C 974 62 920 31 858 9 C 796 -12 727 -23 651 -23 C 575 -23 505 -12 443 9 C 381 31 327 62 282 103 C 237 144 202 194 178 253 C 153 312 141 379 141 453 L 141 1307 L 279 1307 L 279 465 C 279 408 287 357 304 312 C 321 267 346 229 378 197 C 410 165 449 141 495 125 C 541 108 594 100 653 100 C 711 100 764 108 811 125 C 857 141 897 165 929 197 C 961 229 985 267 1002 312 C 1019 357 1028 408 1028 465 L 1028 1307 L 1161 1307 L 1161 453 Z M 809 1503 L 719 1464 C 665 1498 614 1534 567 1573 C 519 1611 475 1654 434 1700 C 428 1707 424 1714 420 1721 C 416 1728 414 1735 414 1741 C 414 1746 416 1753 422 1761 C 428 1769 434 1778 442 1786 C 450 1794 458 1800 467 1806 C 475 1812 483 1815 489 1815 C 495 1815 503 1812 513 1806 C 522 1800 530 1793 537 1784 C 554 1759 573 1734 595 1709 C 617 1683 640 1658 664 1634 C 688 1610 712 1586 737 1564 C 761 1542 785 1521 809 1503 Z" unicode="Ù" />
<glyph horiz-adv-x="1303" d="M 1161 453 C 1161 379 1148 312 1124 253 C 1099 194 1064 144 1019 103 C 974 62 920 31 858 9 C 796 -12 727 -23 651 -23 C 575 -23 505 -12 443 9 C 381 31 327 62 282 103 C 237 144 202 194 178 253 C 153 312 141 379 141 453 L 141 1307 L 279 1307 L 279 465 C 279 408 287 357 304 312 C 321 267 346 229 378 197 C 410 165 449 141 495 125 C 541 108 594 100 653 100 C 711 100 764 108 811 125 C 857 141 897 165 929 197 C 961 229 985 267 1002 312 C 1019 357 1028 408 1028 465 L 1028 1307 L 1161 1307 L 1161 453 Z M 895 1743 C 895 1737 892 1731 888 1725 C 884 1718 878 1711 872 1704 C 832 1658 787 1615 739 1575 C 691 1535 640 1498 586 1464 L 502 1501 C 526 1519 550 1540 575 1563 C 600 1586 625 1610 649 1635 C 673 1659 695 1684 717 1710 C 739 1736 758 1761 776 1786 C 781 1794 788 1800 798 1806 C 807 1812 815 1815 821 1815 C 827 1815 834 1812 843 1807 C 851 1801 859 1795 867 1787 C 875 1779 881 1771 887 1763 C 892 1755 895 1748 895 1743 Z" unicode="Ú" />
<glyph horiz-adv-x="1303" d="M 1161 453 C 1161 379 1148 312 1124 253 C 1099 194 1064 144 1019 103 C 974 62 920 31 858 9 C 796 -12 727 -23 651 -23 C 575 -23 505 -12 443 9 C 381 31 327 62 282 103 C 237 144 202 194 178 253 C 153 312 141 379 141 453 L 141 1307 L 279 1307 L 279 465 C 279 408 287 357 304 312 C 321 267 346 229 378 197 C 410 165 449 141 495 125 C 541 108 594 100 653 100 C 711 100 764 108 811 125 C 857 141 897 165 929 197 C 961 229 985 267 1002 312 C 1019 357 1028 408 1028 465 L 1028 1307 L 1161 1307 L 1161 453 Z M 977 1503 L 887 1464 C 845 1491 804 1520 763 1550 C 722 1580 685 1613 651 1647 C 616 1613 579 1580 541 1550 C 503 1520 463 1491 422 1464 L 338 1501 C 361 1519 385 1540 410 1563 C 435 1585 460 1609 484 1633 C 508 1657 530 1682 552 1708 C 574 1734 593 1759 610 1784 C 616 1793 624 1800 634 1806 C 643 1812 651 1815 657 1815 C 663 1815 671 1812 681 1806 C 690 1800 698 1793 705 1784 C 721 1759 740 1734 762 1709 C 784 1683 807 1658 831 1634 C 855 1610 879 1586 904 1564 C 929 1542 953 1521 977 1503 Z" unicode="Û" />
<glyph horiz-adv-x="1303" d="M 1161 453 C 1161 379 1148 312 1124 253 C 1099 194 1064 144 1019 103 C 974 62 920 31 858 9 C 796 -12 727 -23 651 -23 C 575 -23 505 -12 443 9 C 381 31 327 62 282 103 C 237 144 202 194 178 253 C 153 312 141 379 141 453 L 141 1307 L 279 1307 L 279 465 C 279 408 287 357 304 312 C 321 267 346 229 378 197 C 410 165 449 141 495 125 C 541 108 594 100 653 100 C 711 100 764 108 811 125 C 857 141 897 165 929 197 C 961 229 985 267 1002 312 C 1019 357 1028 408 1028 465 L 1028 1307 L 1161 1307 L 1161 453 Z M 899 1563 C 899 1556 895 1548 889 1538 C 883 1528 875 1518 866 1509 C 857 1500 848 1492 838 1486 C 828 1480 820 1477 813 1477 C 805 1477 797 1480 787 1486 C 777 1492 768 1500 759 1509 C 750 1518 742 1528 736 1538 C 730 1548 727 1556 727 1563 C 727 1569 730 1578 736 1588 C 742 1598 750 1607 759 1616 C 768 1625 777 1633 787 1639 C 797 1645 805 1649 813 1649 C 820 1649 828 1645 838 1639 C 848 1633 857 1625 866 1616 C 875 1607 883 1598 889 1588 C 895 1578 899 1569 899 1563 Z M 596 1563 C 596 1556 592 1548 586 1538 C 580 1528 572 1518 563 1509 C 554 1500 545 1492 535 1486 C 525 1480 517 1477 510 1477 C 503 1477 495 1480 485 1486 C 475 1492 465 1500 456 1509 C 447 1518 439 1528 433 1538 C 427 1548 424 1556 424 1563 C 424 1569 427 1578 433 1588 C 439 1598 447 1607 456 1616 C 465 1625 475 1633 485 1639 C 495 1645 503 1649 510 1649 C 517 1649 525 1645 535 1639 C 545 1633 554 1625 563 1616 C 572 1607 580 1598 586 1588 C 592 1578 596 1569 596 1563 Z" unicode="Ü" />
<glyph horiz-adv-x="1241" d="M 1188 1307 L 686 604 L 686 0 L 551 0 L 551 604 L 53 1307 L 207 1307 L 487 909 C 508 878 531 845 555 811 C 579 777 602 743 623 711 L 627 711 C 647 743 670 776 694 811 C 718 845 740 878 762 909 L 1044 1307 L 1188 1307 Z M 885 1743 C 885 1737 882 1731 878 1725 C 873 1718 868 1711 862 1704 C 822 1658 777 1615 729 1575 C 681 1535 629 1498 575 1464 L 492 1501 C 516 1519 540 1540 565 1563 C 590 1586 615 1610 639 1635 C 663 1659 685 1684 707 1710 C 729 1736 748 1761 766 1786 C 771 1794 778 1800 788 1806 C 797 1812 805 1815 811 1815 C 817 1815 824 1812 833 1807 C 841 1801 849 1795 857 1787 C 865 1779 871 1771 877 1763 C 882 1755 885 1748 885 1743 Z" unicode="Ý" />
<glyph horiz-adv-x="965" d="M 889 801 C 889 745 878 695 857 651 C 836 607 808 570 773 540 C 738 509 698 486 653 470 C 608 454 562 446 514 446 L 279 446 L 279 0 L 141 0 L 141 1311 L 279 1311 L 279 1155 L 506 1155 C 556 1155 604 1147 650 1131 C 696 1115 736 1091 772 1061 C 807 1031 835 994 857 950 C 878 906 889 857 889 801 Z M 750 801 C 750 837 742 870 728 899 C 714 928 694 953 670 973 C 646 993 617 1009 585 1020 C 553 1030 519 1036 483 1036 L 279 1036 L 279 565 L 492 565 C 526 565 558 570 589 581 C 620 591 647 607 671 627 C 695 647 714 671 728 701 C 742 730 750 763 750 801 Z" unicode="Þ" />
<glyph horiz-adv-x="1200" d="M 1124 242 C 1124 203 1116 168 1101 136 C 1086 104 1065 76 1038 53 C 1010 30 977 12 937 0 C 897 -13 853 -20 805 -20 C 748 -20 697 -12 652 2 C 607 16 571 34 543 55 L 543 184 C 577 157 615 135 658 117 C 700 99 750 90 807 90 C 833 90 857 93 880 100 C 902 106 922 116 939 129 C 955 141 968 157 978 175 C 988 193 993 213 993 236 C 993 280 977 316 946 344 C 915 372 873 395 821 414 C 777 429 739 446 706 464 C 673 482 645 503 622 526 C 599 549 582 575 570 604 C 558 633 553 666 553 702 C 553 739 560 773 575 804 C 590 834 611 861 638 883 C 664 905 696 922 733 934 C 770 946 810 952 854 954 C 858 969 861 984 863 1000 C 865 1015 866 1031 866 1049 C 866 1085 859 1121 847 1157 C 835 1193 817 1225 793 1253 C 769 1281 739 1304 703 1322 C 667 1339 626 1348 580 1348 C 543 1348 509 1342 479 1331 C 448 1319 422 1302 400 1278 C 378 1254 360 1225 348 1190 C 336 1154 330 1113 330 1065 L 330 0 L 199 0 L 199 821 L 35 821 L 35 928 L 199 928 L 199 1071 C 199 1135 208 1192 226 1241 C 244 1289 270 1330 304 1362 C 338 1394 378 1418 424 1434 C 470 1450 522 1458 578 1458 C 642 1458 700 1447 752 1427 C 804 1406 847 1377 883 1339 C 918 1301 945 1256 964 1204 C 983 1152 993 1094 993 1032 C 993 1003 991 972 987 940 C 983 908 977 879 969 854 C 875 854 803 842 753 818 C 703 794 678 757 678 707 C 678 665 692 631 721 607 C 749 583 790 561 842 543 C 886 527 926 509 961 490 C 996 471 1026 450 1050 426 C 1074 402 1092 374 1105 344 C 1117 314 1124 280 1124 242 Z" unicode="ß" />
<glyph horiz-adv-x="895" d="M 866 63 L 782 -20 C 766 -16 749 -10 733 -2 C 717 6 702 17 688 31 C 674 45 663 61 654 80 C 644 98 639 119 637 143 C 628 116 615 92 598 72 C 580 52 560 35 536 21 C 512 7 487 -2 459 -9 C 431 -16 403 -20 373 -20 C 328 -20 287 -13 251 1 C 215 15 184 34 158 59 C 132 83 111 112 97 145 C 83 178 76 214 76 252 C 76 296 84 336 101 370 C 117 404 139 434 167 458 C 195 482 227 500 263 514 C 299 528 337 537 377 541 L 621 563 L 621 651 C 621 709 602 754 564 787 C 526 819 471 836 401 836 C 355 836 310 829 266 816 C 222 803 185 786 156 766 L 129 874 C 165 899 206 918 253 930 C 300 942 352 948 408 948 C 457 948 503 941 545 927 C 587 913 623 894 654 868 C 684 842 708 809 726 771 C 743 733 752 689 752 639 L 752 215 C 752 191 755 171 761 153 C 767 135 776 120 787 108 C 797 96 809 86 823 78 C 837 70 851 65 866 63 Z M 621 330 L 621 455 L 401 434 C 336 428 286 408 252 376 C 218 343 201 302 201 252 C 201 228 205 207 214 187 C 223 167 236 150 252 136 C 268 122 287 110 309 102 C 331 94 356 90 383 90 C 413 90 442 95 470 106 C 498 117 524 133 546 154 C 568 174 586 199 600 229 C 614 259 621 292 621 330 Z M 539 1118 L 461 1083 C 415 1112 372 1143 332 1176 C 292 1209 254 1246 219 1286 C 215 1291 211 1296 207 1302 C 203 1308 201 1313 201 1319 C 201 1323 203 1329 208 1337 C 213 1344 219 1351 226 1358 C 232 1364 239 1370 247 1375 C 254 1379 260 1382 266 1382 C 271 1382 278 1379 286 1375 C 294 1371 301 1365 307 1358 C 321 1336 338 1315 356 1293 C 374 1271 394 1250 414 1229 C 434 1208 455 1188 477 1169 C 498 1150 519 1133 539 1118 Z" unicode="à" />
<glyph horiz-adv-x="895" d="M 866 63 L 782 -20 C 766 -16 749 -10 733 -2 C 717 6 702 17 688 31 C 674 45 663 61 654 80 C 644 98 639 119 637 143 C 628 116 615 92 598 72 C 580 52 560 35 536 21 C 512 7 487 -2 459 -9 C 431 -16 403 -20 373 -20 C 328 -20 287 -13 251 1 C 215 15 184 34 158 59 C 132 83 111 112 97 145 C 83 178 76 214 76 252 C 76 296 84 336 101 370 C 117 404 139 434 167 458 C 195 482 227 500 263 514 C 299 528 337 537 377 541 L 621 563 L 621 651 C 621 709 602 754 564 787 C 526 819 471 836 401 836 C 355 836 310 829 266 816 C 222 803 185 786 156 766 L 129 874 C 165 899 206 918 253 930 C 300 942 352 948 408 948 C 457 948 503 941 545 927 C 587 913 623 894 654 868 C 684 842 708 809 726 771 C 743 733 752 689 752 639 L 752 215 C 752 191 755 171 761 153 C 767 135 776 120 787 108 C 797 96 809 86 823 78 C 837 70 851 65 866 63 Z M 621 330 L 621 455 L 401 434 C 336 428 286 408 252 376 C 218 343 201 302 201 252 C 201 228 205 207 214 187 C 223 167 236 150 252 136 C 268 122 287 110 309 102 C 331 94 356 90 383 90 C 413 90 442 95 470 106 C 498 117 524 133 546 154 C 568 174 586 199 600 229 C 614 259 621 292 621 330 Z M 633 1321 C 633 1317 631 1312 627 1306 C 623 1300 619 1294 614 1288 C 579 1248 541 1211 500 1178 C 459 1144 416 1113 371 1083 L 299 1116 C 319 1132 339 1149 360 1169 C 381 1188 402 1208 422 1229 C 442 1250 462 1271 480 1293 C 498 1315 515 1336 530 1358 C 535 1365 541 1371 549 1375 C 557 1379 563 1382 569 1382 C 574 1382 580 1379 588 1375 C 595 1370 602 1364 609 1358 C 615 1351 621 1344 626 1338 C 630 1331 633 1325 633 1321 Z" unicode="á" />
<glyph horiz-adv-x="895" d="M 866 63 L 782 -20 C 766 -16 749 -10 733 -2 C 717 6 702 17 688 31 C 674 45 663 61 654 80 C 644 98 639 119 637 143 C 628 116 615 92 598 72 C 580 52 560 35 536 21 C 512 7 487 -2 459 -9 C 431 -16 403 -20 373 -20 C 328 -20 287 -13 251 1 C 215 15 184 34 158 59 C 132 83 111 112 97 145 C 83 178 76 214 76 252 C 76 296 84 336 101 370 C 117 404 139 434 167 458 C 195 482 227 500 263 514 C 299 528 337 537 377 541 L 621 563 L 621 651 C 621 709 602 754 564 787 C 526 819 471 836 401 836 C 355 836 310 829 266 816 C 222 803 185 786 156 766 L 129 874 C 165 899 206 918 253 930 C 300 942 352 948 408 948 C 457 948 503 941 545 927 C 587 913 623 894 654 868 C 684 842 708 809 726 771 C 743 733 752 689 752 639 L 752 215 C 752 191 755 171 761 153 C 767 135 776 120 787 108 C 797 96 809 86 823 78 C 837 70 851 65 866 63 Z M 621 330 L 621 455 L 401 434 C 336 428 286 408 252 376 C 218 343 201 302 201 252 C 201 228 205 207 214 187 C 223 167 236 150 252 136 C 268 122 287 110 309 102 C 331 94 356 90 383 90 C 413 90 442 95 470 106 C 498 117 524 133 546 154 C 568 174 586 199 600 229 C 614 259 621 292 621 330 Z M 698 1118 L 621 1085 C 585 1106 550 1130 516 1156 C 482 1182 450 1210 420 1239 C 390 1210 359 1182 327 1156 C 295 1130 261 1106 225 1085 L 156 1116 C 176 1131 196 1148 217 1168 C 238 1187 259 1207 279 1228 C 299 1249 319 1271 337 1293 C 355 1315 372 1336 387 1358 C 392 1365 398 1371 406 1375 C 414 1379 420 1382 426 1382 C 431 1382 438 1379 446 1375 C 454 1371 461 1365 467 1358 C 481 1336 497 1315 515 1293 C 533 1271 553 1250 573 1229 C 593 1208 614 1188 636 1169 C 657 1150 678 1133 698 1118 Z" unicode="â" />
<glyph horiz-adv-x="895" d="M 866 63 L 782 -20 C 766 -16 749 -10 733 -2 C 717 6 702 17 688 31 C 674 45 663 61 654 80 C 644 98 639 119 637 143 C 628 116 615 92 598 72 C 580 52 560 35 536 21 C 512 7 487 -2 459 -9 C 431 -16 403 -20 373 -20 C 328 -20 287 -13 251 1 C 215 15 184 34 158 59 C 132 83 111 112 97 145 C 83 178 76 214 76 252 C 76 296 84 336 101 370 C 117 404 139 434 167 458 C 195 482 227 500 263 514 C 299 528 337 537 377 541 L 621 563 L 621 651 C 621 709 602 754 564 787 C 526 819 471 836 401 836 C 355 836 310 829 266 816 C 222 803 185 786 156 766 L 129 874 C 165 899 206 918 253 930 C 300 942 352 948 408 948 C 457 948 503 941 545 927 C 587 913 623 894 654 868 C 684 842 708 809 726 771 C 743 733 752 689 752 639 L 752 215 C 752 191 755 171 761 153 C 767 135 776 120 787 108 C 797 96 809 86 823 78 C 837 70 851 65 866 63 Z M 621 330 L 621 455 L 401 434 C 336 428 286 408 252 376 C 218 343 201 302 201 252 C 201 228 205 207 214 187 C 223 167 236 150 252 136 C 268 122 287 110 309 102 C 331 94 356 90 383 90 C 413 90 442 95 470 106 C 498 117 524 133 546 154 C 568 174 586 199 600 229 C 614 259 621 292 621 330 Z M 715 1303 C 703 1283 689 1261 673 1239 C 657 1217 640 1196 623 1178 C 606 1160 590 1144 574 1132 C 558 1120 544 1114 532 1114 C 519 1114 504 1118 487 1127 C 470 1135 453 1145 436 1155 C 419 1165 403 1174 388 1183 C 373 1191 362 1196 354 1196 C 346 1196 336 1192 326 1184 C 315 1176 304 1166 294 1154 C 283 1142 273 1130 263 1118 C 253 1106 246 1095 240 1087 L 162 1122 C 174 1142 188 1163 204 1185 C 220 1207 236 1228 253 1247 C 269 1266 286 1282 302 1294 C 318 1306 332 1313 344 1313 C 356 1313 371 1308 389 1300 C 406 1291 423 1281 441 1271 C 458 1260 474 1250 489 1242 C 503 1233 514 1229 522 1229 C 530 1229 539 1233 550 1241 C 560 1249 571 1259 582 1271 C 593 1282 604 1294 614 1306 C 624 1318 632 1329 639 1337 L 715 1303 Z" unicode="ã" />
<glyph horiz-adv-x="895" d="M 866 63 L 782 -20 C 766 -16 749 -10 733 -2 C 717 6 702 17 688 31 C 674 45 663 61 654 80 C 644 98 639 119 637 143 C 628 116 615 92 598 72 C 580 52 560 35 536 21 C 512 7 487 -2 459 -9 C 431 -16 403 -20 373 -20 C 328 -20 287 -13 251 1 C 215 15 184 34 158 59 C 132 83 111 112 97 145 C 83 178 76 214 76 252 C 76 296 84 336 101 370 C 117 404 139 434 167 458 C 195 482 227 500 263 514 C 299 528 337 537 377 541 L 621 563 L 621 651 C 621 709 602 754 564 787 C 526 819 471 836 401 836 C 355 836 310 829 266 816 C 222 803 185 786 156 766 L 129 874 C 165 899 206 918 253 930 C 300 942 352 948 408 948 C 457 948 503 941 545 927 C 587 913 623 894 654 868 C 684 842 708 809 726 771 C 743 733 752 689 752 639 L 752 215 C 752 191 755 171 761 153 C 767 135 776 120 787 108 C 797 96 809 86 823 78 C 837 70 851 65 866 63 Z M 621 330 L 621 455 L 401 434 C 336 428 286 408 252 376 C 218 343 201 302 201 252 C 201 228 205 207 214 187 C 223 167 236 150 252 136 C 268 122 287 110 309 102 C 331 94 356 90 383 90 C 413 90 442 95 470 106 C 498 117 524 133 546 154 C 568 174 586 199 600 229 C 614 259 621 292 621 330 Z M 621 1169 C 621 1163 618 1156 613 1148 C 607 1140 601 1132 593 1124 C 585 1116 577 1110 569 1104 C 561 1098 554 1096 549 1096 C 543 1096 535 1098 527 1104 C 518 1110 510 1116 502 1124 C 494 1132 488 1140 483 1148 C 477 1156 475 1163 475 1169 C 475 1175 477 1182 483 1190 C 488 1198 494 1205 502 1213 C 510 1221 518 1227 527 1233 C 535 1238 543 1241 549 1241 C 554 1241 561 1238 569 1233 C 577 1227 585 1221 593 1213 C 601 1205 607 1198 613 1190 C 618 1182 621 1175 621 1169 Z M 362 1169 C 362 1163 359 1156 354 1148 C 349 1140 343 1132 335 1124 C 327 1116 320 1110 312 1104 C 304 1098 297 1096 291 1096 C 285 1096 277 1098 269 1104 C 261 1110 253 1116 245 1124 C 237 1132 231 1140 225 1148 C 219 1156 217 1163 217 1169 C 217 1175 219 1182 225 1190 C 231 1198 237 1205 245 1213 C 253 1221 261 1227 269 1233 C 277 1238 285 1241 291 1241 C 297 1241 304 1238 312 1233 C 320 1227 327 1221 335 1213 C 343 1205 349 1198 354 1190 C 359 1182 362 1175 362 1169 Z" unicode="ä" />
<glyph horiz-adv-x="895" d="M 866 63 L 782 -20 C 766 -16 749 -10 733 -2 C 717 6 702 17 688 31 C 674 45 663 61 654 80 C 644 98 639 119 637 143 C 628 116 615 92 598 72 C 580 52 560 35 536 21 C 512 7 487 -2 459 -9 C 431 -16 403 -20 373 -20 C 328 -20 287 -13 251 1 C 215 15 184 34 158 59 C 132 83 111 112 97 145 C 83 178 76 214 76 252 C 76 296 84 336 101 370 C 117 404 139 434 167 458 C 195 482 227 500 263 514 C 299 528 337 537 377 541 L 621 563 L 621 651 C 621 709 602 754 564 787 C 526 819 471 836 401 836 C 355 836 310 829 266 816 C 222 803 185 786 156 766 L 129 874 C 165 899 206 918 253 930 C 300 942 352 948 408 948 C 457 948 503 941 545 927 C 587 913 623 894 654 868 C 684 842 708 809 726 771 C 743 733 752 689 752 639 L 752 215 C 752 191 755 171 761 153 C 767 135 776 120 787 108 C 797 96 809 86 823 78 C 837 70 851 65 866 63 Z M 621 330 L 621 455 L 401 434 C 336 428 286 408 252 376 C 218 343 201 302 201 252 C 201 228 205 207 214 187 C 223 167 236 150 252 136 C 268 122 287 110 309 102 C 331 94 356 90 383 90 C 413 90 442 95 470 106 C 498 117 524 133 546 154 C 568 174 586 199 600 229 C 614 259 621 292 621 330 Z M 590 1247 C 590 1222 585 1199 576 1177 C 566 1155 554 1137 538 1121 C 522 1105 503 1092 481 1083 C 459 1073 436 1069 412 1069 C 388 1069 365 1073 343 1083 C 321 1092 302 1105 286 1121 C 270 1137 257 1155 247 1177 C 237 1199 233 1222 233 1247 C 233 1271 237 1293 247 1315 C 257 1336 270 1355 286 1371 C 302 1387 321 1399 343 1409 C 365 1418 388 1423 412 1423 C 436 1423 459 1418 481 1409 C 503 1399 522 1387 538 1371 C 554 1355 566 1336 576 1315 C 585 1293 590 1271 590 1247 Z M 508 1247 C 508 1276 499 1300 481 1319 C 463 1338 440 1348 412 1348 C 384 1348 360 1338 342 1319 C 324 1300 315 1276 315 1247 C 315 1217 324 1192 342 1173 C 360 1154 384 1145 412 1145 C 440 1145 463 1154 481 1173 C 499 1192 508 1217 508 1247 Z" unicode="å" />
<glyph horiz-adv-x="1501" d="M 1425 590 C 1425 578 1424 567 1424 556 C 1423 545 1422 535 1421 526 L 1343 451 L 715 451 C 713 407 721 364 737 322 C 753 280 778 242 810 208 C 842 174 881 146 927 125 C 973 104 1026 94 1085 94 C 1143 94 1194 101 1238 116 C 1282 130 1322 149 1356 172 L 1339 43 C 1306 23 1268 8 1225 -3 C 1181 -14 1129 -20 1069 -20 C 1029 -20 990 -15 952 -6 C 914 2 878 15 845 32 C 811 49 781 69 754 93 C 726 117 704 144 686 174 C 672 138 653 107 630 83 C 606 58 581 38 553 23 C 525 7 495 -3 464 -10 C 433 -16 403 -20 373 -20 C 328 -20 287 -13 251 1 C 215 15 184 34 158 59 C 132 83 111 112 97 145 C 83 178 76 214 76 252 C 76 297 84 337 101 371 C 117 405 139 435 167 459 C 195 483 227 501 263 515 C 299 528 337 537 377 541 L 590 561 C 596 599 606 634 621 666 C 617 719 597 761 559 791 C 521 821 468 836 401 836 C 355 836 310 829 266 816 C 222 803 185 786 156 766 L 129 874 C 165 898 206 916 253 929 C 300 941 352 948 408 948 C 441 948 473 944 504 938 C 534 932 563 922 589 909 C 615 896 638 879 658 859 C 678 838 695 814 707 786 C 727 812 749 835 774 855 C 798 875 825 892 853 906 C 881 920 910 930 940 937 C 970 944 1000 948 1030 948 C 1093 948 1149 937 1198 917 C 1247 897 1288 870 1322 836 C 1356 802 1381 764 1399 721 C 1416 678 1425 634 1425 590 Z M 1294 588 C 1294 618 1288 647 1277 677 C 1265 706 1249 732 1227 756 C 1205 780 1178 799 1146 814 C 1114 828 1077 836 1036 836 C 998 836 961 828 926 813 C 891 797 860 777 832 751 C 804 725 780 695 762 661 C 743 627 731 593 725 557 L 1292 557 C 1293 561 1294 565 1294 571 C 1294 577 1294 582 1294 588 Z M 614 279 C 604 305 596 333 591 362 C 586 391 583 421 582 451 L 401 434 C 337 428 287 408 253 376 C 218 343 201 302 201 252 C 201 228 205 207 214 187 C 223 167 236 149 252 135 C 268 121 287 110 309 102 C 331 94 356 90 383 90 C 408 90 433 94 459 102 C 484 110 507 123 528 139 C 549 155 567 174 583 198 C 598 222 608 249 614 279 Z" unicode="æ" />
<glyph horiz-adv-x="928" d="M 852 868 L 825 748 C 789 772 749 791 706 804 C 662 816 617 823 571 823 C 519 823 472 814 428 796 C 384 778 345 754 312 722 C 279 690 253 651 235 607 C 216 563 207 514 207 461 C 207 408 216 359 235 315 C 254 271 280 233 313 201 C 346 169 385 144 430 126 C 475 108 523 100 575 100 C 623 100 667 104 707 114 C 747 123 787 139 827 162 L 811 37 C 781 21 746 10 708 2 C 669 -6 628 -10 584 -10 L 571 -57 C 589 -58 608 -63 627 -71 C 645 -79 662 -90 677 -104 C 692 -118 704 -135 714 -155 C 724 -175 729 -198 729 -223 C 729 -251 723 -275 713 -296 C 702 -317 688 -335 671 -349 C 653 -363 634 -373 612 -380 C 590 -387 569 -391 547 -391 C 499 -391 455 -377 416 -350 L 432 -285 C 448 -297 467 -306 487 -312 C 507 -318 528 -322 549 -322 C 561 -322 573 -320 585 -316 C 597 -312 607 -306 616 -298 C 625 -290 632 -280 638 -268 C 644 -256 647 -242 647 -227 C 647 -211 644 -197 638 -185 C 632 -173 624 -163 615 -155 C 606 -147 596 -141 586 -137 C 575 -133 565 -131 557 -131 C 535 -131 521 -125 515 -114 C 509 -103 508 -91 512 -78 L 530 -10 C 468 -6 409 6 354 30 C 299 54 251 86 210 127 C 168 168 136 217 112 274 C 88 330 76 393 76 463 C 76 535 89 600 115 659 C 141 718 176 768 220 810 C 264 851 316 883 376 906 C 435 928 498 940 565 940 C 623 940 677 933 725 919 C 773 905 816 888 852 868 Z" unicode="ç" />
<glyph horiz-adv-x="995" d="M 920 590 C 920 578 919 567 919 556 C 919 545 917 535 915 526 L 838 451 L 211 451 C 209 407 217 364 233 322 C 249 280 272 242 304 208 C 336 174 375 146 421 125 C 467 104 520 94 580 94 C 637 94 688 101 732 116 C 776 130 816 149 850 172 L 834 43 C 802 23 764 8 721 -3 C 677 -14 625 -20 565 -20 C 498 -20 435 -8 376 15 C 316 39 264 72 220 114 C 176 156 141 207 115 267 C 89 326 76 391 76 463 C 76 537 89 605 115 665 C 141 725 175 776 217 818 C 259 860 306 892 360 914 C 414 936 468 948 524 948 C 587 948 643 937 693 917 C 742 897 783 870 817 836 C 851 802 876 764 894 721 C 911 678 920 634 920 590 Z M 788 588 C 788 618 782 647 771 677 C 760 706 744 732 722 756 C 700 780 673 799 641 814 C 609 828 572 836 530 836 C 492 836 455 828 420 813 C 385 797 354 777 326 751 C 298 725 274 695 256 661 C 237 627 225 593 219 557 L 786 557 C 787 561 788 565 788 571 C 788 577 788 582 788 588 Z M 653 1118 L 575 1083 C 529 1112 486 1143 446 1176 C 405 1208 368 1244 334 1284 C 328 1290 324 1296 320 1302 C 316 1308 315 1313 315 1319 C 315 1323 317 1329 322 1337 C 326 1344 332 1351 339 1358 C 346 1364 353 1370 361 1375 C 368 1379 375 1382 381 1382 C 386 1382 392 1379 400 1375 C 408 1370 414 1364 420 1356 C 434 1335 451 1314 470 1293 C 488 1271 508 1250 528 1229 C 548 1208 569 1188 591 1169 C 612 1150 633 1133 653 1118 Z" unicode="è" />
<glyph horiz-adv-x="995" d="M 920 590 C 920 578 919 567 919 556 C 919 545 917 535 915 526 L 838 451 L 211 451 C 209 407 217 364 233 322 C 249 280 272 242 304 208 C 336 174 375 146 421 125 C 467 104 520 94 580 94 C 637 94 688 101 732 116 C 776 130 816 149 850 172 L 834 43 C 802 23 764 8 721 -3 C 677 -14 625 -20 565 -20 C 498 -20 435 -8 376 15 C 316 39 264 72 220 114 C 176 156 141 207 115 267 C 89 326 76 391 76 463 C 76 537 89 605 115 665 C 141 725 175 776 217 818 C 259 860 306 892 360 914 C 414 936 468 948 524 948 C 587 948 643 937 693 917 C 742 897 783 870 817 836 C 851 802 876 764 894 721 C 911 678 920 634 920 590 Z M 788 588 C 788 618 782 647 771 677 C 760 706 744 732 722 756 C 700 780 673 799 641 814 C 609 828 572 836 530 836 C 492 836 455 828 420 813 C 385 797 354 777 326 751 C 298 725 274 695 256 661 C 237 627 225 593 219 557 L 786 557 C 787 561 788 565 788 571 C 788 577 788 582 788 588 Z M 743 1321 C 743 1317 741 1312 738 1306 C 734 1300 730 1294 725 1288 C 689 1248 651 1211 611 1178 C 570 1144 527 1113 481 1083 L 410 1116 C 430 1132 451 1149 473 1169 C 494 1188 515 1208 535 1229 C 555 1250 575 1271 593 1293 C 611 1315 628 1336 643 1358 C 647 1365 653 1371 661 1375 C 669 1379 676 1382 682 1382 C 686 1382 692 1379 699 1375 C 705 1370 712 1364 719 1358 C 725 1351 731 1344 736 1338 C 740 1331 743 1325 743 1321 Z" unicode="é" />
<glyph horiz-adv-x="995" d="M 920 590 C 920 578 919 567 919 556 C 919 545 917 535 915 526 L 838 451 L 211 451 C 209 407 217 364 233 322 C 249 280 272 242 304 208 C 336 174 375 146 421 125 C 467 104 520 94 580 94 C 637 94 688 101 732 116 C 776 130 816 149 850 172 L 834 43 C 802 23 764 8 721 -3 C 677 -14 625 -20 565 -20 C 498 -20 435 -8 376 15 C 316 39 264 72 220 114 C 176 156 141 207 115 267 C 89 326 76 391 76 463 C 76 537 89 605 115 665 C 141 725 175 776 217 818 C 259 860 306 892 360 914 C 414 936 468 948 524 948 C 587 948 643 937 693 917 C 742 897 783 870 817 836 C 851 802 876 764 894 721 C 911 678 920 634 920 590 Z M 788 588 C 788 618 782 647 771 677 C 760 706 744 732 722 756 C 700 780 673 799 641 814 C 609 828 572 836 530 836 C 492 836 455 828 420 813 C 385 797 354 777 326 751 C 298 725 274 695 256 661 C 237 627 225 593 219 557 L 786 557 C 787 561 788 565 788 571 C 788 577 788 582 788 588 Z M 803 1118 L 725 1085 C 689 1106 654 1130 620 1156 C 585 1182 553 1210 524 1239 C 495 1210 464 1182 431 1156 C 398 1130 364 1106 330 1085 L 258 1116 C 278 1131 298 1148 320 1168 C 341 1187 362 1207 382 1228 C 402 1249 422 1271 440 1293 C 458 1315 475 1336 489 1358 C 494 1365 501 1371 509 1375 C 517 1379 524 1382 530 1382 C 535 1382 541 1379 549 1375 C 557 1371 563 1365 569 1358 C 583 1336 600 1315 619 1293 C 638 1271 658 1250 678 1229 C 698 1208 719 1188 741 1169 C 762 1150 783 1133 803 1118 Z" unicode="ê" />
<glyph horiz-adv-x="995" d="M 920 590 C 920 578 919 567 919 556 C 919 545 917 535 915 526 L 838 451 L 211 451 C 209 407 217 364 233 322 C 249 280 272 242 304 208 C 336 174 375 146 421 125 C 467 104 520 94 580 94 C 637 94 688 101 732 116 C 776 130 816 149 850 172 L 834 43 C 802 23 764 8 721 -3 C 677 -14 625 -20 565 -20 C 498 -20 435 -8 376 15 C 316 39 264 72 220 114 C 176 156 141 207 115 267 C 89 326 76 391 76 463 C 76 537 89 605 115 665 C 141 725 175 776 217 818 C 259 860 306 892 360 914 C 414 936 468 948 524 948 C 587 948 643 937 693 917 C 742 897 783 870 817 836 C 851 802 876 764 894 721 C 911 678 920 634 920 590 Z M 788 588 C 788 618 782 647 771 677 C 760 706 744 732 722 756 C 700 780 673 799 641 814 C 609 828 572 836 530 836 C 492 836 455 828 420 813 C 385 797 354 777 326 751 C 298 725 274 695 256 661 C 237 627 225 593 219 557 L 786 557 C 787 561 788 565 788 571 C 788 577 788 582 788 588 Z M 725 1169 C 725 1163 722 1156 717 1148 C 711 1140 705 1132 697 1124 C 689 1116 681 1110 673 1104 C 664 1098 657 1096 651 1096 C 645 1096 637 1098 629 1104 C 621 1110 613 1116 605 1124 C 597 1132 591 1140 586 1148 C 580 1156 578 1163 578 1169 C 578 1175 580 1182 586 1190 C 591 1198 597 1205 605 1213 C 613 1221 621 1227 629 1233 C 637 1238 645 1241 651 1241 C 657 1241 664 1238 673 1233 C 681 1227 689 1221 697 1213 C 705 1205 711 1198 717 1190 C 722 1182 725 1175 725 1169 Z M 467 1169 C 467 1163 464 1156 459 1148 C 453 1140 447 1132 439 1124 C 431 1116 423 1110 415 1104 C 406 1098 399 1096 393 1096 C 387 1096 380 1098 372 1104 C 364 1110 356 1116 348 1124 C 340 1132 333 1140 327 1148 C 321 1156 319 1163 319 1169 C 319 1175 321 1182 327 1190 C 333 1198 340 1205 348 1213 C 356 1221 364 1227 372 1233 C 380 1238 387 1241 393 1241 C 399 1241 406 1238 415 1233 C 423 1227 431 1221 439 1213 C 447 1205 453 1198 459 1190 C 464 1182 467 1175 467 1169 Z" unicode="ë" />
<glyph horiz-adv-x="422" d="M 276 0 L 145 0 L 145 928 L 276 928 L 276 0 Z M 336 1118 L 258 1083 C 212 1112 169 1143 129 1176 C 89 1208 51 1244 16 1284 C 12 1290 8 1296 5 1302 C 1 1308 0 1313 0 1319 C 0 1323 2 1329 7 1337 C 11 1344 17 1351 24 1358 C 30 1364 37 1370 44 1375 C 51 1379 57 1382 63 1382 C 68 1382 75 1379 83 1375 C 91 1370 98 1364 104 1356 C 118 1335 135 1314 153 1293 C 171 1271 191 1250 211 1229 C 231 1208 252 1188 274 1169 C 295 1150 316 1133 336 1118 Z" unicode="ì" />
<glyph horiz-adv-x="422" d="M 276 0 L 145 0 L 145 928 L 276 928 L 276 0 Z M 426 1321 C 426 1317 424 1312 421 1306 C 417 1300 413 1294 408 1288 C 372 1248 334 1211 293 1178 C 252 1144 209 1113 164 1083 L 92 1116 C 112 1132 133 1149 155 1169 C 176 1188 197 1208 217 1229 C 237 1250 256 1271 274 1293 C 292 1315 309 1336 324 1358 C 329 1365 335 1371 343 1375 C 350 1379 356 1382 362 1382 C 367 1382 373 1379 381 1375 C 388 1370 395 1364 402 1358 C 408 1351 414 1344 419 1338 C 423 1331 426 1325 426 1321 Z" unicode="í" />
<glyph horiz-adv-x="422" d="M 276 0 L 145 0 L 145 928 L 276 928 L 276 0 Z M 487 1118 L 410 1085 C 374 1106 339 1130 305 1156 C 271 1182 239 1210 209 1239 C 180 1210 149 1182 116 1156 C 83 1130 49 1106 14 1085 L -57 1116 C -37 1131 -16 1148 5 1168 C 26 1187 47 1207 67 1228 C 87 1249 107 1271 126 1293 C 144 1315 161 1336 176 1358 C 181 1365 187 1371 195 1375 C 203 1379 209 1382 215 1382 C 220 1382 227 1379 235 1375 C 243 1371 250 1365 256 1358 C 270 1336 286 1315 305 1293 C 323 1271 343 1250 363 1229 C 383 1208 404 1188 425 1169 C 446 1150 467 1133 487 1118 Z" unicode="î" />
<glyph horiz-adv-x="422" d="M 276 0 L 145 0 L 145 928 L 276 928 L 276 0 Z M 416 1169 C 416 1163 413 1156 408 1148 C 402 1140 396 1132 388 1124 C 380 1116 372 1110 364 1104 C 355 1098 348 1096 342 1096 C 336 1096 328 1098 320 1104 C 311 1110 303 1116 295 1124 C 287 1132 281 1140 276 1148 C 270 1156 268 1163 268 1169 C 268 1175 270 1182 276 1190 C 281 1198 287 1205 295 1213 C 303 1221 311 1227 320 1233 C 328 1238 336 1241 342 1241 C 348 1241 355 1238 364 1233 C 372 1227 380 1221 388 1213 C 396 1205 402 1198 408 1190 C 413 1182 416 1175 416 1169 Z M 158 1169 C 158 1163 155 1156 150 1148 C 144 1140 138 1132 130 1124 C 122 1116 114 1110 106 1104 C 97 1098 90 1096 84 1096 C 78 1096 71 1098 63 1104 C 55 1110 47 1116 39 1124 C 31 1132 25 1140 20 1148 C 14 1156 12 1163 12 1169 C 12 1175 14 1182 20 1190 C 25 1198 31 1205 39 1213 C 47 1221 55 1227 63 1233 C 71 1238 78 1241 84 1241 C 90 1241 97 1238 106 1233 C 114 1227 122 1221 130 1213 C 138 1205 144 1198 150 1190 C 155 1182 158 1175 158 1169 Z" unicode="ï" />
<glyph horiz-adv-x="1014" d="M 928 428 C 928 354 916 289 893 233 C 869 177 838 130 798 92 C 758 54 713 25 661 6 C 609 -13 554 -23 496 -23 C 436 -23 380 -12 329 9 C 277 30 233 59 196 97 C 158 135 129 179 108 231 C 86 283 76 339 76 399 C 76 449 83 495 99 539 C 114 582 135 621 163 657 C 191 692 223 723 261 749 C 299 775 340 795 385 811 C 403 817 424 823 446 829 C 468 835 490 840 513 845 C 535 850 558 855 580 859 C 602 863 622 866 641 868 L 518 1145 L 336 1071 L 297 1169 L 475 1243 L 379 1458 L 516 1458 L 592 1288 L 754 1356 L 793 1257 L 633 1192 L 868 657 C 875 641 882 622 889 602 C 896 582 902 561 908 541 C 914 520 918 500 922 480 C 926 460 928 443 928 428 Z M 797 426 C 797 446 793 471 786 499 C 778 527 769 556 758 587 C 747 617 735 648 722 678 C 708 708 696 736 684 762 C 666 760 647 758 627 755 C 606 751 585 747 564 743 C 542 738 521 733 501 728 C 481 722 462 717 446 711 C 367 681 307 641 266 589 C 225 537 205 473 205 399 C 205 353 212 312 227 275 C 242 237 263 205 289 178 C 315 150 345 129 380 114 C 415 99 453 92 494 92 C 534 92 572 99 608 114 C 644 128 677 150 705 178 C 733 206 755 241 772 283 C 788 324 797 372 797 426 Z" unicode="ð" />
<glyph horiz-adv-x="1020" d="M 899 0 L 770 0 L 770 612 C 770 644 764 673 753 701 C 741 728 725 752 703 772 C 681 792 655 807 623 819 C 591 830 554 836 514 836 C 473 836 436 830 404 819 C 372 807 344 792 321 772 C 298 752 280 728 268 701 C 256 673 250 644 250 612 L 250 0 L 121 0 L 121 928 L 242 928 L 242 788 L 244 788 C 251 809 263 829 279 849 C 295 868 315 885 340 900 C 364 914 394 926 428 935 C 462 943 501 948 545 948 C 595 948 642 940 686 926 C 729 911 766 890 798 862 C 829 834 854 801 872 761 C 890 721 899 675 899 625 L 899 0 Z M 797 1303 C 785 1283 772 1261 756 1239 C 740 1217 724 1196 707 1178 C 690 1160 674 1144 658 1132 C 642 1120 628 1114 616 1114 C 602 1114 587 1118 570 1127 C 552 1135 535 1145 518 1155 C 501 1165 485 1174 471 1183 C 457 1191 446 1196 438 1196 C 429 1196 419 1192 408 1184 C 397 1176 386 1166 376 1154 C 365 1142 355 1130 345 1118 C 335 1106 328 1095 322 1087 L 246 1122 C 257 1142 270 1163 286 1185 C 302 1207 318 1228 335 1247 C 351 1266 368 1282 384 1294 C 400 1306 414 1313 426 1313 C 439 1313 454 1308 472 1300 C 489 1291 506 1281 523 1271 C 540 1260 556 1250 570 1242 C 584 1233 596 1229 604 1229 C 612 1229 622 1233 633 1241 C 644 1249 655 1259 666 1271 C 677 1282 687 1294 697 1306 C 707 1318 715 1329 721 1337 L 797 1303 Z" unicode="ñ" />
<glyph horiz-adv-x="1128" d="M 1053 463 C 1053 392 1040 327 1015 268 C 990 208 956 157 912 115 C 868 72 817 39 758 15 C 698 -8 634 -20 565 -20 C 495 -20 431 -8 372 15 C 312 39 261 72 217 115 C 173 157 138 208 113 268 C 88 327 76 392 76 463 C 76 533 88 598 113 658 C 138 717 173 768 217 811 C 261 854 312 888 372 912 C 431 936 495 948 565 948 C 634 948 698 936 758 912 C 817 888 868 854 912 811 C 956 768 990 717 1015 658 C 1040 598 1053 533 1053 463 Z M 922 461 C 922 515 912 564 894 610 C 875 655 850 694 818 727 C 786 759 748 785 705 803 C 661 821 615 831 565 831 C 515 831 469 821 425 803 C 381 785 343 759 311 727 C 279 694 253 655 235 610 C 216 564 207 515 207 461 C 207 407 216 357 235 312 C 253 266 279 227 311 195 C 343 162 381 137 425 119 C 469 101 515 92 565 92 C 615 92 661 101 705 119 C 748 137 786 162 818 195 C 850 227 875 266 894 312 C 912 357 922 407 922 461 Z M 692 1118 L 614 1083 C 568 1112 525 1143 485 1176 C 445 1208 407 1244 373 1284 C 367 1290 363 1296 359 1302 C 355 1308 354 1313 354 1319 C 354 1323 356 1329 361 1337 C 366 1344 372 1351 379 1358 C 386 1364 393 1370 401 1375 C 408 1379 414 1382 420 1382 C 425 1382 432 1379 440 1375 C 448 1370 455 1364 461 1356 C 475 1335 491 1314 509 1293 C 527 1271 547 1250 567 1229 C 587 1208 608 1188 630 1169 C 651 1150 672 1133 692 1118 Z" unicode="ò" />
<glyph horiz-adv-x="1128" d="M 1053 463 C 1053 392 1040 327 1015 268 C 990 208 956 157 912 115 C 868 72 817 39 758 15 C 698 -8 634 -20 565 -20 C 495 -20 431 -8 372 15 C 312 39 261 72 217 115 C 173 157 138 208 113 268 C 88 327 76 392 76 463 C 76 533 88 598 113 658 C 138 717 173 768 217 811 C 261 854 312 888 372 912 C 431 936 495 948 565 948 C 634 948 698 936 758 912 C 817 888 868 854 912 811 C 956 768 990 717 1015 658 C 1040 598 1053 533 1053 463 Z M 922 461 C 922 515 912 564 894 610 C 875 655 850 694 818 727 C 786 759 748 785 705 803 C 661 821 615 831 565 831 C 515 831 469 821 425 803 C 381 785 343 759 311 727 C 279 694 253 655 235 610 C 216 564 207 515 207 461 C 207 407 216 357 235 312 C 253 266 279 227 311 195 C 343 162 381 137 425 119 C 469 101 515 92 565 92 C 615 92 661 101 705 119 C 748 137 786 162 818 195 C 850 227 875 266 894 312 C 912 357 922 407 922 461 Z M 768 1321 C 768 1311 762 1300 752 1288 C 716 1248 678 1211 637 1178 C 596 1144 553 1113 508 1083 L 436 1116 C 456 1132 476 1149 497 1169 C 518 1188 539 1208 559 1229 C 579 1250 599 1271 617 1293 C 635 1315 652 1336 668 1358 C 673 1365 679 1371 687 1375 C 695 1379 701 1382 707 1382 C 711 1382 717 1379 724 1375 C 731 1370 738 1364 745 1358 C 751 1351 757 1344 761 1338 C 765 1331 768 1325 768 1321 Z" unicode="ó" />
<glyph horiz-adv-x="1128" d="M 1053 463 C 1053 392 1040 327 1015 268 C 990 208 956 157 912 115 C 868 72 817 39 758 15 C 698 -8 634 -20 565 -20 C 495 -20 431 -8 372 15 C 312 39 261 72 217 115 C 173 157 138 208 113 268 C 88 327 76 392 76 463 C 76 533 88 598 113 658 C 138 717 173 768 217 811 C 261 854 312 888 372 912 C 431 936 495 948 565 948 C 634 948 698 936 758 912 C 817 888 868 854 912 811 C 956 768 990 717 1015 658 C 1040 598 1053 533 1053 463 Z M 922 461 C 922 515 912 564 894 610 C 875 655 850 694 818 727 C 786 759 748 785 705 803 C 661 821 615 831 565 831 C 515 831 469 821 425 803 C 381 785 343 759 311 727 C 279 694 253 655 235 610 C 216 564 207 515 207 461 C 207 407 216 357 235 312 C 253 266 279 227 311 195 C 343 162 381 137 425 119 C 469 101 515 92 565 92 C 615 92 661 101 705 119 C 748 137 786 162 818 195 C 850 227 875 266 894 312 C 912 357 922 407 922 461 Z M 840 1118 L 762 1085 C 726 1106 691 1130 656 1156 C 621 1182 589 1210 561 1239 C 532 1210 501 1182 468 1156 C 435 1130 401 1106 367 1085 L 295 1116 C 315 1131 335 1148 357 1168 C 378 1187 399 1207 419 1228 C 439 1249 459 1271 477 1293 C 495 1315 512 1336 526 1358 C 531 1365 538 1371 546 1375 C 554 1379 561 1382 567 1382 C 572 1382 579 1379 587 1375 C 595 1371 602 1365 606 1358 C 620 1336 637 1315 656 1293 C 675 1271 695 1250 715 1229 C 735 1208 756 1188 778 1169 C 799 1150 820 1133 840 1118 Z" unicode="ô" />
<glyph horiz-adv-x="1128" d="M 1053 463 C 1053 392 1040 327 1015 268 C 990 208 956 157 912 115 C 868 72 817 39 758 15 C 698 -8 634 -20 565 -20 C 495 -20 431 -8 372 15 C 312 39 261 72 217 115 C 173 157 138 208 113 268 C 88 327 76 392 76 463 C 76 533 88 598 113 658 C 138 717 173 768 217 811 C 261 854 312 888 372 912 C 431 936 495 948 565 948 C 634 948 698 936 758 912 C 817 888 868 854 912 811 C 956 768 990 717 1015 658 C 1040 598 1053 533 1053 463 Z M 922 461 C 922 515 912 564 894 610 C 875 655 850 694 818 727 C 786 759 748 785 705 803 C 661 821 615 831 565 831 C 515 831 469 821 425 803 C 381 785 343 759 311 727 C 279 694 253 655 235 610 C 216 564 207 515 207 461 C 207 407 216 357 235 312 C 253 266 279 227 311 195 C 343 162 381 137 425 119 C 469 101 515 92 565 92 C 615 92 661 101 705 119 C 748 137 786 162 818 195 C 850 227 875 266 894 312 C 912 357 922 407 922 461 Z M 852 1303 C 840 1283 826 1261 810 1239 C 794 1217 777 1196 761 1178 C 744 1160 728 1144 712 1132 C 696 1120 683 1114 672 1114 C 658 1114 643 1118 625 1127 C 607 1135 590 1145 573 1155 C 556 1165 540 1174 526 1183 C 512 1191 501 1196 494 1196 C 485 1196 475 1192 464 1184 C 453 1176 442 1166 431 1154 C 420 1142 410 1130 400 1118 C 390 1106 383 1095 377 1087 L 301 1122 C 312 1142 325 1163 341 1185 C 357 1207 373 1228 390 1247 C 406 1266 423 1282 439 1294 C 455 1306 469 1313 481 1313 C 494 1313 509 1308 527 1300 C 544 1291 561 1281 578 1271 C 595 1260 611 1250 626 1242 C 640 1233 651 1229 659 1229 C 667 1229 676 1233 687 1241 C 698 1249 709 1259 720 1271 C 731 1282 741 1294 751 1306 C 761 1318 769 1329 776 1337 L 852 1303 Z" unicode="õ" />
<glyph horiz-adv-x="1128" d="M 1053 463 C 1053 392 1040 327 1015 268 C 990 208 956 157 912 115 C 868 72 817 39 758 15 C 698 -8 634 -20 565 -20 C 495 -20 431 -8 372 15 C 312 39 261 72 217 115 C 173 157 138 208 113 268 C 88 327 76 392 76 463 C 76 533 88 598 113 658 C 138 717 173 768 217 811 C 261 854 312 888 372 912 C 431 936 495 948 565 948 C 634 948 698 936 758 912 C 817 888 868 854 912 811 C 956 768 990 717 1015 658 C 1040 598 1053 533 1053 463 Z M 922 461 C 922 515 912 564 894 610 C 875 655 850 694 818 727 C 786 759 748 785 705 803 C 661 821 615 831 565 831 C 515 831 469 821 425 803 C 381 785 343 759 311 727 C 279 694 253 655 235 610 C 216 564 207 515 207 461 C 207 407 216 357 235 312 C 253 266 279 227 311 195 C 343 162 381 137 425 119 C 469 101 515 92 565 92 C 615 92 661 101 705 119 C 748 137 786 162 818 195 C 850 227 875 266 894 312 C 912 357 922 407 922 461 Z M 770 1169 C 770 1163 767 1156 762 1148 C 756 1140 750 1132 742 1124 C 734 1116 726 1110 718 1104 C 709 1098 702 1096 696 1096 C 690 1096 682 1098 674 1104 C 666 1110 658 1116 650 1124 C 642 1132 636 1140 631 1148 C 625 1156 623 1163 623 1169 C 623 1175 625 1182 631 1190 C 636 1198 642 1205 650 1213 C 658 1221 666 1227 674 1233 C 682 1238 690 1241 696 1241 C 702 1241 709 1238 718 1233 C 726 1227 734 1221 742 1213 C 750 1205 756 1198 762 1190 C 767 1182 770 1175 770 1169 Z M 512 1169 C 512 1163 509 1156 504 1148 C 498 1140 492 1132 484 1124 C 476 1116 468 1110 460 1104 C 451 1098 444 1096 438 1096 C 432 1096 425 1098 417 1104 C 409 1110 401 1116 393 1124 C 385 1132 379 1140 373 1148 C 367 1156 365 1163 365 1169 C 365 1175 367 1182 373 1190 C 379 1198 385 1205 393 1213 C 401 1221 409 1227 417 1233 C 425 1238 432 1241 438 1241 C 444 1241 451 1238 460 1233 C 468 1227 476 1221 484 1213 C 492 1205 498 1198 504 1190 C 509 1182 512 1175 512 1169 Z" unicode="ö" />
<glyph horiz-adv-x="948" d="M 561 817 C 561 809 557 801 551 791 C 545 781 537 771 528 762 C 518 752 509 744 499 738 C 489 732 480 729 473 729 C 465 729 457 732 447 738 C 437 744 427 752 418 762 C 408 771 400 781 394 791 C 388 801 385 809 385 817 C 385 823 388 832 394 842 C 400 852 408 861 418 870 C 427 879 437 887 447 893 C 457 899 465 903 473 903 C 480 903 489 899 499 893 C 509 887 518 879 528 870 C 537 861 545 852 551 842 C 557 832 561 823 561 817 Z M 856 512 L 90 512 L 90 623 L 856 623 L 856 512 Z M 561 319 C 561 311 557 303 551 293 C 545 283 537 273 528 264 C 518 255 509 247 499 241 C 489 234 480 231 473 231 C 465 231 457 234 447 241 C 437 247 427 255 418 264 C 408 273 400 283 394 293 C 388 303 385 311 385 319 C 385 325 388 334 394 344 C 400 354 408 363 418 372 C 427 381 437 389 447 396 C 457 402 465 406 473 406 C 480 406 489 402 499 396 C 509 389 518 381 528 372 C 537 363 545 354 551 344 C 557 334 561 325 561 319 Z" unicode="÷" />
<glyph horiz-adv-x="1128" d="M 1053 463 C 1053 392 1040 327 1015 268 C 990 208 956 157 912 115 C 868 72 817 39 758 15 C 698 -8 634 -20 565 -20 C 513 -20 464 -13 418 0 C 371 13 328 32 289 57 L 199 -55 L 135 -2 L 223 109 C 177 152 141 203 115 263 C 89 323 76 389 76 463 C 76 533 88 598 113 658 C 138 717 173 768 217 811 C 261 854 312 888 372 912 C 431 936 495 948 565 948 C 667 948 758 922 838 872 L 926 981 L 989 930 L 903 821 C 950 777 987 725 1013 665 C 1039 604 1053 537 1053 463 Z M 922 461 C 922 514 913 563 896 607 C 878 651 854 689 823 723 L 365 152 C 393 132 425 117 459 107 C 493 97 528 92 565 92 C 615 92 661 101 705 119 C 748 137 786 162 818 195 C 850 227 875 266 894 312 C 912 357 922 407 922 461 Z M 760 774 C 732 792 701 806 668 816 C 635 826 601 831 565 831 C 515 831 469 821 425 803 C 381 785 343 759 311 727 C 279 694 253 655 235 610 C 216 564 207 515 207 461 C 207 409 215 361 231 318 C 247 274 271 237 301 205 L 760 774 Z" unicode="ø" />
<glyph horiz-adv-x="1020" d="M 899 0 L 778 0 L 778 139 L 776 139 C 768 117 756 97 740 78 C 724 58 704 41 680 27 C 655 12 626 0 592 -7 C 558 -15 519 -20 475 -20 C 424 -20 377 -12 334 2 C 290 16 253 37 222 65 C 190 93 166 127 148 167 C 130 207 121 252 121 303 L 121 928 L 250 928 L 250 315 C 250 283 255 253 267 226 C 278 198 294 175 316 155 C 338 135 364 119 396 108 C 428 97 464 92 506 92 C 546 92 583 97 615 108 C 647 119 675 135 698 155 C 721 175 739 198 751 226 C 763 253 770 283 770 315 L 770 928 L 899 928 L 899 0 Z M 629 1118 L 551 1083 C 505 1112 462 1143 422 1176 C 382 1208 344 1244 309 1284 C 303 1290 299 1296 296 1302 C 292 1308 291 1313 291 1319 C 291 1323 293 1329 298 1337 C 303 1344 309 1351 316 1358 C 322 1364 329 1370 337 1375 C 344 1379 350 1382 356 1382 C 361 1382 368 1379 376 1375 C 384 1370 391 1364 397 1356 C 411 1335 428 1314 446 1293 C 464 1271 484 1250 504 1229 C 524 1208 545 1188 567 1169 C 588 1150 609 1133 629 1118 Z" unicode="ù" />
<glyph horiz-adv-x="1020" d="M 899 0 L 778 0 L 778 139 L 776 139 C 768 117 756 97 740 78 C 724 58 704 41 680 27 C 655 12 626 0 592 -7 C 558 -15 519 -20 475 -20 C 424 -20 377 -12 334 2 C 290 16 253 37 222 65 C 190 93 166 127 148 167 C 130 207 121 252 121 303 L 121 928 L 250 928 L 250 315 C 250 283 255 253 267 226 C 278 198 294 175 316 155 C 338 135 364 119 396 108 C 428 97 464 92 506 92 C 546 92 583 97 615 108 C 647 119 675 135 698 155 C 721 175 739 198 751 226 C 763 253 770 283 770 315 L 770 928 L 899 928 L 899 0 Z M 731 1321 C 731 1317 729 1312 726 1306 C 722 1300 718 1294 713 1288 C 677 1248 639 1211 598 1178 C 557 1144 514 1113 469 1083 L 397 1116 C 417 1132 437 1149 458 1169 C 479 1188 500 1208 520 1229 C 540 1250 560 1271 578 1293 C 596 1315 613 1336 629 1358 C 634 1365 640 1371 648 1375 C 656 1379 662 1382 668 1382 C 672 1382 678 1379 686 1375 C 693 1370 700 1364 707 1358 C 713 1351 719 1344 724 1338 C 728 1331 731 1325 731 1321 Z" unicode="ú" />
<glyph horiz-adv-x="1020" d="M 899 0 L 778 0 L 778 139 L 776 139 C 768 117 756 97 740 78 C 724 58 704 41 680 27 C 655 12 626 0 592 -7 C 558 -15 519 -20 475 -20 C 424 -20 377 -12 334 2 C 290 16 253 37 222 65 C 190 93 166 127 148 167 C 130 207 121 252 121 303 L 121 928 L 250 928 L 250 315 C 250 283 255 253 267 226 C 278 198 294 175 316 155 C 338 135 364 119 396 108 C 428 97 464 92 506 92 C 546 92 583 97 615 108 C 647 119 675 135 698 155 C 721 175 739 198 751 226 C 763 253 770 283 770 315 L 770 928 L 899 928 L 899 0 Z M 784 1118 L 707 1085 C 671 1106 636 1130 602 1156 C 568 1182 536 1210 506 1239 C 477 1210 446 1182 414 1156 C 381 1130 347 1106 311 1085 L 240 1116 C 260 1131 280 1148 301 1168 C 322 1187 343 1207 364 1228 C 384 1249 404 1271 423 1293 C 441 1315 458 1336 473 1358 C 478 1365 484 1371 492 1375 C 500 1379 506 1382 512 1382 C 517 1382 524 1379 532 1375 C 540 1371 547 1365 553 1358 C 567 1336 583 1315 602 1293 C 620 1271 640 1250 660 1229 C 680 1208 701 1188 722 1169 C 743 1150 764 1133 784 1118 Z" unicode="û" />
<glyph horiz-adv-x="1020" d="M 899 0 L 778 0 L 778 139 L 776 139 C 768 117 756 97 740 78 C 724 58 704 41 680 27 C 655 12 626 0 592 -7 C 558 -15 519 -20 475 -20 C 424 -20 377 -12 334 2 C 290 16 253 37 222 65 C 190 93 166 127 148 167 C 130 207 121 252 121 303 L 121 928 L 250 928 L 250 315 C 250 283 255 253 267 226 C 278 198 294 175 316 155 C 338 135 364 119 396 108 C 428 97 464 92 506 92 C 546 92 583 97 615 108 C 647 119 675 135 698 155 C 721 175 739 198 751 226 C 763 253 770 283 770 315 L 770 928 L 899 928 L 899 0 Z M 717 1169 C 717 1163 714 1156 709 1148 C 703 1140 697 1132 689 1124 C 681 1116 673 1110 665 1104 C 656 1098 649 1096 643 1096 C 637 1096 629 1098 621 1104 C 612 1110 604 1116 596 1124 C 588 1132 582 1140 577 1148 C 571 1156 569 1163 569 1169 C 569 1175 571 1182 577 1190 C 582 1198 588 1205 596 1213 C 604 1221 612 1227 621 1233 C 629 1238 637 1241 643 1241 C 649 1241 656 1238 665 1233 C 673 1227 681 1221 689 1213 C 697 1205 703 1198 709 1190 C 714 1182 717 1175 717 1169 Z M 459 1169 C 459 1163 456 1156 451 1148 C 445 1140 439 1132 431 1124 C 423 1116 415 1110 407 1104 C 398 1098 391 1096 385 1096 C 379 1096 372 1098 364 1104 C 356 1110 348 1116 340 1124 C 332 1132 326 1140 321 1148 C 315 1156 313 1163 313 1169 C 313 1175 315 1182 321 1190 C 326 1198 332 1205 340 1213 C 348 1221 356 1227 364 1233 C 372 1238 379 1241 385 1241 C 391 1241 398 1238 407 1233 C 415 1227 423 1221 431 1213 C 439 1205 445 1198 451 1190 C 456 1182 459 1175 459 1169 Z" unicode="ü" />
<glyph horiz-adv-x="958" d="M 905 928 L 557 80 C 523 -1 489 -72 454 -133 C 419 -193 382 -246 344 -290 C 305 -334 264 -371 222 -401 C 179 -431 134 -456 86 -477 L 2 -393 C 48 -374 90 -352 128 -326 C 166 -300 202 -270 236 -234 C 269 -198 300 -157 329 -110 C 358 -63 386 -9 414 53 L 53 928 L 188 928 L 387 444 C 401 408 417 368 434 326 C 450 284 465 242 479 201 L 483 201 C 491 220 499 240 508 262 C 516 284 525 305 534 327 C 542 349 551 370 559 390 C 567 410 575 428 582 444 L 780 928 L 905 928 Z M 715 1321 C 715 1317 713 1312 709 1306 C 705 1300 701 1294 696 1288 C 662 1248 624 1211 583 1178 C 542 1144 499 1113 453 1083 L 383 1116 C 403 1132 423 1149 444 1169 C 465 1188 486 1208 506 1229 C 526 1250 546 1271 564 1293 C 582 1315 599 1336 614 1358 C 619 1365 625 1371 633 1375 C 641 1379 647 1382 653 1382 C 658 1382 664 1379 671 1375 C 678 1370 685 1364 692 1358 C 698 1351 704 1344 708 1338 C 712 1331 715 1325 715 1321 Z" unicode="ý" />
<glyph horiz-adv-x="1079" d="M 1004 465 C 1004 394 991 329 967 270 C 943 210 909 159 867 116 C 824 73 773 40 715 16 C 657 -8 594 -20 526 -20 C 500 -20 473 -17 447 -13 C 420 -8 395 -2 371 6 C 347 14 326 23 307 33 C 287 43 272 54 260 66 L 260 -473 L 131 -473 L 131 1458 L 260 1458 L 260 842 C 288 872 326 897 373 917 C 420 937 476 948 541 948 C 599 948 655 937 711 915 C 767 893 816 861 860 820 C 903 778 938 728 964 668 C 990 608 1004 541 1004 465 Z M 872 461 C 872 515 862 564 844 610 C 826 655 801 694 769 727 C 737 759 699 785 656 803 C 612 821 566 831 516 831 C 486 831 459 827 433 821 C 407 815 384 806 363 796 C 341 785 322 773 305 759 C 287 745 272 730 260 715 L 260 195 C 270 183 284 170 301 158 C 317 146 336 135 358 125 C 380 115 404 107 431 101 C 457 95 486 92 516 92 C 566 92 612 101 656 119 C 699 137 737 162 769 195 C 801 227 826 266 844 312 C 862 357 872 407 872 461 Z" unicode="þ" />
<glyph horiz-adv-x="958" d="M 905 928 L 557 80 C 523 -1 489 -72 454 -133 C 419 -193 382 -246 344 -290 C 305 -334 264 -371 222 -401 C 179 -431 134 -456 86 -477 L 2 -393 C 48 -374 90 -352 128 -326 C 166 -300 202 -270 236 -234 C 269 -198 300 -157 329 -110 C 358 -63 386 -9 414 53 L 53 928 L 188 928 L 387 444 C 401 408 417 368 434 326 C 450 284 465 242 479 201 L 483 201 C 491 220 499 240 508 262 C 516 284 525 305 534 327 C 542 349 551 370 559 390 C 567 410 575 428 582 444 L 780 928 L 905 928 Z M 698 1161 C 698 1155 695 1148 690 1140 C 684 1132 678 1124 670 1116 C 662 1108 654 1101 646 1095 C 638 1089 631 1087 625 1087 C 619 1087 611 1089 603 1095 C 595 1101 587 1108 579 1116 C 571 1124 565 1132 560 1140 C 555 1148 553 1155 553 1161 C 553 1167 555 1174 560 1183 C 565 1191 571 1199 579 1207 C 587 1215 595 1221 603 1227 C 611 1232 619 1235 625 1235 C 631 1235 638 1232 646 1227 C 654 1221 662 1215 670 1207 C 678 1199 684 1191 690 1183 C 695 1174 698 1167 698 1161 Z M 440 1161 C 440 1155 437 1148 432 1140 C 426 1132 420 1124 412 1116 C 404 1108 397 1101 389 1095 C 381 1089 374 1087 369 1087 C 363 1087 355 1089 347 1095 C 339 1101 331 1108 323 1116 C 315 1124 309 1132 303 1140 C 297 1148 295 1155 295 1161 C 295 1167 297 1174 303 1183 C 309 1191 315 1199 323 1207 C 331 1215 339 1221 347 1227 C 355 1232 363 1235 369 1235 C 374 1235 381 1232 389 1227 C 397 1221 404 1215 412 1207 C 420 1199 426 1191 432 1183 C 437 1174 440 1167 440 1161 Z" unicode="ÿ" />
<glyph horiz-adv-x="422" d="M 276 0 L 145 0 L 145 928 L 276 928 L 276 0 Z" unicode="ı" />
<glyph horiz-adv-x="895" d="M 881 0 L 137 0 L 137 520 L 29 457 L 29 578 L 137 641 L 137 1307 L 274 1307 L 274 721 L 616 918 L 616 795 L 274 598 L 274 119 L 881 119 L 881 0 Z" unicode="Ł" />
<glyph horiz-adv-x="436" d="M 410 795 L 262 709 L 262 217 C 262 195 265 175 271 157 C 277 139 286 123 297 109 C 308 95 321 84 335 76 C 349 67 365 61 381 57 L 293 -31 C 275 -25 256 -16 237 -5 C 218 5 201 20 186 38 C 170 56 158 79 148 106 C 138 133 133 165 133 203 L 133 633 L 25 571 L 25 692 L 133 756 L 133 1458 L 262 1458 L 262 831 L 410 918 L 410 795 Z" unicode="ł" />
<glyph horiz-adv-x="1692" d="M 1677 0 L 938 0 C 888 -8 832 -12 770 -12 C 712 -12 654 -5 598 8 C 542 22 488 42 438 68 C 387 94 340 127 297 165 C 254 203 217 247 186 297 C 154 346 130 400 112 460 C 94 520 86 584 86 653 C 86 722 94 787 112 847 C 130 907 154 961 186 1011 C 218 1060 255 1104 298 1142 C 341 1180 388 1212 439 1238 C 489 1264 543 1284 599 1298 C 655 1312 712 1319 770 1319 C 827 1319 880 1315 930 1307 L 1604 1307 L 1604 1188 L 1061 1188 L 1061 717 L 1507 717 L 1507 598 L 1061 598 L 1061 119 L 1677 119 L 1677 0 Z M 924 117 L 924 1184 C 878 1192 831 1196 782 1196 C 709 1196 639 1183 572 1158 C 505 1133 446 1097 394 1051 C 342 1004 301 947 271 879 C 240 811 225 735 225 651 C 225 566 240 490 270 423 C 300 355 341 298 393 251 C 444 204 503 168 570 143 C 637 118 708 106 782 106 C 806 106 830 107 854 109 C 878 111 901 113 924 117 Z" unicode="Œ" />
<glyph horiz-adv-x="1841" d="M 1765 590 C 1765 578 1764 567 1764 556 C 1763 545 1762 535 1761 526 L 1683 451 L 1055 451 C 1053 407 1061 364 1077 322 C 1093 280 1118 242 1150 208 C 1182 174 1221 146 1267 125 C 1313 104 1366 94 1425 94 C 1481 94 1532 101 1576 116 C 1620 130 1660 149 1694 172 L 1677 43 C 1645 23 1607 8 1564 -3 C 1521 -14 1469 -20 1409 -20 C 1363 -20 1319 -14 1275 -2 C 1231 10 1190 27 1152 50 C 1114 73 1081 101 1053 134 C 1025 167 1003 204 989 246 C 971 202 948 164 920 131 C 891 98 858 70 821 48 C 784 26 744 9 700 -2 C 656 -14 611 -20 565 -20 C 495 -20 431 -8 372 15 C 312 39 261 72 217 115 C 173 157 138 208 113 268 C 88 327 76 392 76 463 C 76 533 88 598 113 658 C 138 717 173 768 217 811 C 261 854 312 888 372 912 C 431 936 495 948 565 948 C 611 948 657 942 701 930 C 745 918 786 900 824 877 C 862 854 894 826 922 794 C 950 761 971 724 985 684 C 997 724 1016 761 1043 793 C 1070 825 1101 853 1137 876 C 1172 899 1210 917 1250 929 C 1290 941 1330 948 1370 948 C 1433 948 1489 937 1538 917 C 1587 897 1628 870 1662 836 C 1696 802 1721 764 1739 721 C 1756 678 1765 634 1765 590 Z M 1634 588 C 1634 618 1628 647 1617 677 C 1605 706 1589 732 1567 756 C 1545 780 1518 799 1486 814 C 1454 828 1417 836 1376 836 C 1338 836 1301 828 1266 813 C 1230 797 1199 777 1171 751 C 1143 725 1119 695 1101 661 C 1082 627 1070 593 1065 557 L 1632 557 C 1633 561 1634 565 1634 571 C 1634 577 1634 582 1634 588 Z M 922 461 C 922 515 912 564 894 610 C 875 655 849 694 817 727 C 785 759 747 785 704 803 C 660 821 614 831 565 831 C 515 831 468 821 424 803 C 380 785 343 759 311 727 C 279 694 253 655 235 610 C 216 564 207 515 207 461 C 207 407 216 357 235 312 C 253 266 279 227 311 195 C 343 162 380 137 424 119 C 468 101 515 92 565 92 C 614 92 660 101 704 119 C 747 137 785 162 817 195 C 849 227 875 266 894 312 C 912 357 922 407 922 461 Z" unicode="œ" />
<glyph horiz-adv-x="958" d="M 872 354 C 872 298 862 248 843 204 C 823 159 795 121 759 89 C 723 57 679 33 628 16 C 576 -1 519 -10 455 -10 C 417 -10 382 -7 348 -2 C 314 3 283 10 254 19 C 225 28 199 39 175 51 C 151 63 131 75 113 88 L 94 238 C 141 200 195 169 256 145 C 317 121 385 109 461 109 C 501 109 537 114 571 126 C 605 137 634 153 658 173 C 682 193 700 218 714 247 C 728 276 735 308 735 344 C 735 378 729 408 719 436 C 709 463 693 488 672 510 C 651 532 624 552 591 570 C 558 588 519 606 475 623 C 417 643 367 666 325 690 C 283 714 248 742 220 772 C 192 802 171 835 157 871 C 143 907 137 948 137 993 C 137 1033 144 1073 160 1113 C 175 1152 198 1187 230 1217 C 261 1247 300 1272 348 1291 C 396 1309 452 1319 518 1319 C 548 1319 576 1316 604 1312 C 631 1308 656 1302 680 1295 C 703 1288 724 1280 744 1271 C 763 1262 779 1253 793 1245 L 762 1128 C 750 1137 734 1146 716 1155 C 698 1164 678 1172 656 1180 C 634 1187 611 1193 587 1197 C 563 1201 538 1204 514 1204 C 474 1204 438 1198 408 1187 C 377 1175 351 1160 331 1141 C 310 1122 294 1100 284 1076 C 273 1052 268 1027 268 1001 C 268 945 287 899 325 861 C 363 823 422 789 504 760 C 561 738 612 715 658 691 C 703 667 741 639 773 607 C 805 575 829 538 846 497 C 863 455 872 408 872 354 Z M 776 1761 C 751 1742 726 1721 702 1699 C 677 1677 653 1653 630 1629 C 607 1604 585 1578 565 1552 C 544 1526 526 1499 510 1473 C 506 1468 502 1464 498 1461 C 494 1457 489 1456 485 1456 C 479 1456 474 1457 469 1460 C 464 1463 461 1467 459 1473 C 441 1499 422 1526 402 1552 C 381 1578 359 1604 336 1629 C 313 1653 289 1677 265 1699 C 241 1721 217 1742 193 1761 L 285 1802 C 323 1775 358 1748 392 1720 C 426 1692 456 1661 483 1628 C 512 1661 543 1692 576 1720 C 609 1748 644 1775 682 1802 L 776 1761 Z" unicode="Š" />
<glyph horiz-adv-x="748" d="M 672 246 C 672 208 664 173 650 142 C 635 110 614 83 587 61 C 560 38 527 20 488 8 C 449 -3 406 -10 358 -10 C 302 -10 254 -3 212 9 C 170 22 133 40 102 63 L 84 205 C 119 175 160 150 207 130 C 253 110 304 100 360 100 C 386 100 410 103 432 110 C 454 116 473 126 490 138 C 506 150 519 165 529 183 C 538 201 543 221 543 244 C 543 286 527 320 497 346 C 466 372 425 395 373 414 C 331 428 293 444 261 462 C 228 480 200 500 178 522 C 155 544 138 570 126 598 C 114 626 109 658 109 694 C 109 730 116 764 130 794 C 144 824 163 850 188 871 C 213 892 243 908 277 920 C 311 932 349 938 391 938 C 415 938 439 936 462 932 C 485 928 506 924 526 918 C 546 912 563 906 579 899 C 594 892 606 885 616 879 L 588 768 C 567 783 540 797 507 810 C 473 822 434 829 389 829 C 343 829 306 817 278 793 C 250 769 236 737 236 698 C 236 677 239 659 246 644 C 252 629 262 616 276 604 C 289 592 305 581 325 571 C 345 561 367 552 393 543 C 436 527 475 510 510 492 C 544 473 574 452 598 428 C 622 404 640 378 653 348 C 665 318 672 284 672 246 Z M 616 1339 C 574 1307 532 1269 492 1227 C 452 1185 417 1141 389 1096 C 387 1091 384 1087 380 1085 C 376 1082 372 1081 369 1081 C 358 1081 350 1086 346 1096 C 317 1141 282 1185 242 1227 C 202 1269 161 1307 119 1339 L 199 1374 C 231 1351 262 1328 291 1304 C 319 1280 345 1255 369 1227 C 392 1255 418 1280 446 1304 C 474 1328 505 1351 537 1374 L 616 1339 Z" unicode="š" />
<glyph horiz-adv-x="1241" d="M 1188 1307 L 686 604 L 686 0 L 551 0 L 551 604 L 53 1307 L 207 1307 L 487 909 C 508 878 531 845 555 811 C 579 777 602 743 623 711 L 627 711 C 647 743 670 776 694 811 C 718 845 740 878 762 909 L 1044 1307 L 1188 1307 Z M 846 1563 C 846 1556 842 1548 836 1538 C 830 1528 822 1518 813 1509 C 804 1500 795 1492 785 1486 C 775 1480 766 1477 760 1477 C 752 1477 744 1480 734 1486 C 724 1492 715 1500 706 1509 C 697 1518 689 1528 683 1538 C 677 1548 674 1556 674 1563 C 674 1569 677 1578 683 1588 C 689 1598 697 1607 706 1616 C 715 1625 724 1633 734 1639 C 744 1645 752 1649 760 1649 C 766 1649 775 1645 785 1639 C 795 1633 804 1625 813 1616 C 822 1607 830 1598 836 1588 C 842 1578 846 1569 846 1563 Z M 543 1563 C 543 1556 539 1548 533 1538 C 527 1528 519 1518 510 1509 C 501 1500 492 1492 482 1486 C 472 1480 463 1477 457 1477 C 450 1477 442 1480 432 1486 C 422 1492 412 1500 403 1509 C 394 1518 386 1528 380 1538 C 374 1548 371 1556 371 1563 C 371 1569 374 1578 380 1588 C 386 1598 394 1607 403 1616 C 412 1625 422 1633 432 1639 C 442 1645 450 1649 457 1649 C 463 1649 472 1645 482 1639 C 492 1633 501 1625 510 1616 C 519 1607 527 1598 533 1588 C 539 1578 543 1569 543 1563 Z" unicode="Ÿ" />
<glyph horiz-adv-x="1067" d="M 981 0 L 86 0 L 86 35 L 535 801 C 553 833 573 865 593 899 C 613 933 632 966 652 999 C 672 1032 691 1064 711 1096 C 730 1127 748 1156 766 1184 L 764 1188 L 137 1188 L 137 1307 L 956 1307 L 956 1272 L 504 502 C 466 438 427 373 387 307 C 347 241 309 179 274 123 L 276 119 L 981 119 L 981 0 Z M 829 1765 C 779 1727 731 1682 684 1632 C 636 1582 596 1530 563 1477 C 559 1472 555 1468 551 1465 C 547 1461 543 1460 539 1460 C 533 1460 528 1461 523 1464 C 517 1467 514 1471 512 1477 C 494 1503 475 1530 455 1556 C 434 1582 412 1608 389 1633 C 366 1657 342 1681 318 1703 C 294 1725 270 1746 246 1765 L 338 1806 C 376 1779 411 1752 445 1724 C 479 1696 509 1665 537 1632 C 565 1665 596 1696 630 1724 C 663 1752 698 1779 735 1806 L 829 1765 Z" unicode="Ž" />
<glyph horiz-adv-x="866" d="M 791 0 L 76 0 L 76 29 L 403 553 C 416 573 430 595 444 619 C 458 642 472 665 486 688 C 500 711 514 734 528 756 C 542 778 555 799 569 819 L 567 821 L 111 821 L 111 928 L 756 928 L 756 899 L 426 373 C 399 329 372 285 344 241 C 316 196 288 152 260 109 L 262 106 L 791 106 L 791 0 Z M 682 1339 C 640 1307 599 1269 559 1227 C 518 1185 483 1141 455 1096 C 450 1086 443 1081 434 1081 C 430 1081 427 1082 423 1085 C 419 1087 415 1091 412 1096 C 398 1118 382 1141 364 1163 C 346 1185 328 1206 308 1227 C 288 1248 268 1268 248 1287 C 227 1305 206 1323 186 1339 L 264 1374 C 297 1351 328 1328 356 1304 C 384 1280 410 1255 434 1227 C 457 1255 483 1280 511 1304 C 539 1328 570 1351 602 1374 L 682 1339 Z" unicode="ž" />
<glyph horiz-adv-x="860" d="M 881 1323 L 856 1214 C 844 1216 833 1218 821 1218 C 809 1218 798 1219 788 1219 C 749 1219 713 1213 679 1201 C 645 1189 614 1172 587 1148 C 560 1124 537 1095 519 1060 C 500 1024 487 983 479 936 L 422 610 L 662 610 L 641 528 L 410 528 L 295 -106 C 285 -156 270 -201 250 -243 C 229 -284 205 -320 177 -351 C 149 -382 118 -408 85 -428 C 51 -448 17 -463 -18 -471 L -102 -389 C -68 -381 -37 -369 -7 -353 C 22 -337 48 -316 72 -292 C 95 -268 115 -239 132 -207 C 148 -174 160 -137 168 -96 L 279 528 L 113 528 L 113 610 L 293 610 L 350 942 C 361 1006 380 1063 407 1111 C 434 1159 467 1200 507 1232 C 547 1264 591 1289 641 1305 C 691 1321 744 1329 801 1329 C 829 1329 855 1327 881 1323 Z" unicode="ƒ" />
<glyph horiz-adv-x="1024" d="M 831 1094 L 741 1055 C 699 1081 658 1110 618 1140 C 577 1170 540 1203 506 1237 C 470 1203 433 1170 395 1140 C 357 1110 317 1081 276 1055 L 193 1092 C 216 1110 240 1130 265 1153 C 290 1175 315 1199 339 1223 C 363 1247 385 1272 407 1298 C 428 1324 447 1349 465 1374 C 471 1383 478 1390 488 1396 C 498 1402 506 1405 512 1405 C 518 1405 525 1402 535 1396 C 545 1390 553 1383 559 1374 C 575 1349 594 1324 616 1299 C 638 1273 661 1248 685 1224 C 709 1200 733 1176 758 1154 C 783 1132 807 1112 831 1094 Z" unicode="ˆ" />
<glyph horiz-adv-x="1024" d="M 805 1356 C 780 1336 755 1315 731 1293 C 706 1271 682 1247 659 1223 C 636 1198 614 1172 594 1146 C 573 1120 555 1093 539 1067 C 535 1063 531 1059 527 1056 C 522 1052 518 1051 514 1051 C 508 1051 503 1052 498 1055 C 493 1057 489 1061 487 1067 C 470 1093 451 1120 430 1146 C 409 1172 387 1198 364 1223 C 341 1247 317 1271 293 1293 C 269 1315 245 1336 221 1356 L 313 1397 C 351 1369 387 1342 421 1314 C 455 1286 485 1255 512 1223 C 540 1255 571 1286 605 1314 C 638 1342 673 1369 711 1397 L 805 1356 Z" unicode="ˇ" />
<glyph horiz-adv-x="1024" d="M 731 1135 C 727 1131 718 1125 706 1117 C 693 1109 677 1100 658 1091 C 638 1082 616 1074 592 1067 C 568 1060 542 1057 514 1057 C 486 1057 459 1060 434 1067 C 408 1074 386 1082 367 1091 C 347 1100 331 1109 318 1117 C 305 1125 297 1131 293 1135 L 369 1212 C 371 1210 377 1206 387 1202 C 397 1197 408 1192 422 1188 C 435 1184 450 1180 466 1176 C 482 1172 498 1171 514 1171 C 530 1171 547 1172 563 1176 C 579 1180 593 1184 605 1188 C 617 1192 628 1197 637 1202 C 645 1206 651 1210 655 1212 L 731 1135 Z" unicode="˘" />
<glyph horiz-adv-x="1024" d="M 598 1153 C 598 1146 594 1138 588 1128 C 582 1118 574 1108 565 1099 C 556 1090 547 1082 537 1076 C 527 1070 519 1067 512 1067 C 505 1067 497 1070 487 1076 C 477 1082 467 1090 458 1099 C 449 1108 441 1118 435 1128 C 429 1138 426 1146 426 1153 C 426 1160 429 1168 435 1178 C 441 1188 449 1197 458 1206 C 467 1215 477 1223 487 1229 C 497 1235 505 1239 512 1239 C 519 1239 527 1235 537 1229 C 547 1223 556 1215 565 1206 C 574 1197 582 1188 588 1178 C 594 1168 598 1160 598 1153 Z" unicode="˙" />
<glyph horiz-adv-x="1024" d="M 721 1245 C 721 1216 715 1189 704 1164 C 693 1138 678 1116 659 1097 C 640 1078 618 1063 593 1052 C 567 1041 540 1036 512 1036 C 483 1036 456 1041 431 1052 C 405 1063 383 1078 364 1097 C 345 1116 330 1138 319 1164 C 308 1189 303 1216 303 1245 C 303 1273 308 1299 319 1325 C 330 1350 345 1372 364 1391 C 383 1409 405 1424 431 1435 C 456 1446 483 1452 512 1452 C 540 1452 567 1446 593 1435 C 618 1424 640 1409 659 1391 C 678 1372 693 1350 704 1325 C 715 1299 721 1273 721 1245 Z M 625 1245 C 625 1261 622 1277 616 1292 C 610 1306 603 1319 593 1330 C 583 1340 571 1349 557 1355 C 543 1361 528 1364 512 1364 C 495 1364 480 1361 466 1355 C 452 1349 439 1340 429 1330 C 419 1319 411 1306 405 1292 C 399 1277 397 1261 397 1245 C 397 1228 399 1212 405 1198 C 411 1183 419 1170 429 1160 C 439 1149 452 1141 466 1135 C 480 1129 495 1126 512 1126 C 528 1126 543 1129 557 1135 C 571 1141 583 1149 593 1160 C 603 1170 610 1183 616 1198 C 622 1212 625 1228 625 1245 Z" unicode="˚" />
<glyph horiz-adv-x="1024" d="M 686 -342 L 664 -432 C 648 -440 630 -447 610 -453 C 590 -458 564 -461 532 -461 C 506 -461 482 -457 459 -449 C 435 -441 415 -430 397 -416 C 379 -401 364 -383 354 -361 C 343 -339 338 -315 338 -287 C 338 -255 344 -224 357 -195 C 370 -165 387 -138 408 -114 C 429 -89 453 -67 480 -48 C 507 -28 535 -12 563 0 L 684 0 C 650 -15 619 -32 589 -52 C 559 -72 532 -93 509 -116 C 486 -139 468 -164 454 -191 C 440 -217 434 -245 434 -274 C 434 -308 445 -334 468 -352 C 490 -370 519 -379 555 -379 C 583 -379 607 -376 627 -370 C 647 -364 667 -354 686 -342 Z" unicode="˛" />
<glyph horiz-adv-x="1024" d="M 846 1313 C 832 1289 815 1264 797 1238 C 778 1212 759 1188 739 1166 C 719 1144 700 1125 682 1111 C 663 1097 647 1090 633 1090 C 617 1090 599 1095 579 1105 C 559 1115 539 1126 519 1138 C 499 1150 480 1161 463 1171 C 446 1181 433 1186 424 1186 C 414 1186 402 1181 389 1171 C 376 1161 363 1150 350 1137 C 337 1123 325 1109 314 1095 C 302 1081 293 1069 287 1059 L 197 1100 C 211 1123 227 1148 246 1174 C 264 1200 283 1225 303 1247 C 323 1269 342 1287 361 1301 C 379 1315 396 1323 410 1323 C 425 1323 443 1317 463 1307 C 483 1297 504 1286 524 1274 C 544 1262 562 1250 579 1240 C 596 1230 609 1225 618 1225 C 628 1225 639 1229 652 1239 C 665 1249 678 1260 691 1274 C 704 1287 716 1301 728 1315 C 739 1329 748 1342 756 1352 L 846 1313 Z" unicode="˜" />
<glyph horiz-adv-x="1024" d="M 874 1333 C 874 1327 871 1320 867 1313 C 863 1306 858 1299 852 1292 C 812 1246 768 1203 720 1165 C 672 1127 621 1091 569 1057 L 477 1096 C 500 1114 524 1134 549 1156 C 574 1178 599 1202 623 1227 C 647 1251 669 1276 691 1302 C 713 1327 732 1352 750 1378 C 756 1386 763 1394 773 1400 C 782 1406 790 1409 797 1409 C 803 1409 811 1406 820 1400 C 828 1394 837 1388 845 1380 C 853 1372 859 1363 865 1355 C 871 1346 874 1339 874 1333 Z M 582 1333 C 582 1327 579 1320 575 1313 C 570 1306 565 1299 559 1292 C 519 1246 475 1203 428 1165 C 380 1127 330 1091 276 1057 L 186 1096 C 209 1114 233 1134 258 1156 C 282 1178 307 1202 331 1227 C 355 1251 378 1276 400 1302 C 422 1327 441 1352 459 1378 C 465 1386 472 1394 482 1400 C 492 1406 500 1409 506 1409 C 512 1409 519 1406 528 1400 C 536 1394 545 1388 553 1380 C 561 1372 567 1363 573 1355 C 579 1346 582 1339 582 1333 Z" unicode="˝" />
<glyph horiz-adv-x="1024" d="M 688 1079 L 336 1079 L 336 1192 L 688 1192 L 688 1079 Z" unicode="̄" />
<glyph horiz-adv-x="1536" d="M 76 0 L 652 1536 L 884 1536 L 1456 0 L 76 0 Z M 352 148 L 1164 148 L 752 1256 L 352 148 Z" unicode="Δ" />
<glyph horiz-adv-x="1664" d="M 832 1376 C 706 1376 599 1328 510 1234 C 420 1139 376 1006 376 836 C 376 673 405 538 464 432 C 522 325 609 241 724 180 L 724 0 L 88 0 L 88 196 L 536 196 C 456 225 378 295 304 406 C 229 516 192 664 192 848 C 192 1024 247 1184 358 1330 C 468 1475 626 1548 832 1548 C 1037 1548 1195 1478 1306 1338 C 1416 1198 1472 1034 1472 848 C 1472 664 1434 516 1360 406 C 1285 295 1208 225 1128 196 L 1576 196 L 1576 0 L 940 0 L 940 180 C 1054 241 1141 325 1200 432 C 1258 538 1288 673 1288 836 C 1288 974 1246 1099 1162 1210 C 1078 1320 968 1376 832 1376 Z" unicode="Ω" />
<glyph horiz-adv-x="1408" d="M 252 -424 C 214 -424 186 -413 168 -392 C 149 -370 140 -333 140 -280 C 140 -226 141 -168 144 -106 C 146 -43 150 25 156 100 C 161 166 165 218 168 256 C 170 293 172 317 172 328 C 174 341 176 350 176 356 C 176 361 176 365 176 368 L 176 1176 L 368 1176 L 368 320 C 368 258 395 210 450 176 C 504 141 564 124 628 124 C 716 124 792 146 858 190 C 923 234 973 297 1008 380 L 1008 1176 L 1200 1176 L 1200 308 L 1220 0 L 1056 0 L 1020 176 C 974 104 913 50 836 14 C 758 -22 670 -40 572 -40 C 537 -40 494 -31 444 -14 C 393 3 353 28 324 60 C 324 1 333 -56 352 -112 C 370 -168 380 -218 380 -264 C 380 -370 337 -424 252 -424 Z" unicode="μ" />
<glyph horiz-adv-x="1408" d="M 296 0 L 296 1028 L 12 1028 L 12 1176 L 1316 1176 L 1316 1028 L 996 1028 L 996 344 C 996 266 1011 213 1042 184 C 1072 154 1109 140 1152 140 C 1184 140 1210 140 1232 142 C 1253 143 1274 148 1296 156 L 1296 28 C 1264 12 1234 0 1206 -6 C 1178 -12 1138 -16 1088 -16 C 1002 -16 935 10 886 64 C 836 117 812 208 812 336 L 812 1028 L 484 1028 L 484 0 L 296 0 Z" unicode="π" />
<glyph horiz-adv-x="1024" d="M 1028 416 L 0 416 L 0 510 L 1028 510 L 1028 416 Z" unicode="–" />
<glyph horiz-adv-x="2048" d="M 2052 416 L 0 416 L 0 510 L 2052 510 L 2052 416 Z" unicode="—" />
<glyph horiz-adv-x="383" d="M 291 1012 C 291 1003 287 993 280 982 C 272 970 263 959 253 949 C 242 939 231 930 219 923 C 207 916 198 913 190 913 C 182 913 173 916 162 923 C 151 930 140 939 129 949 C 118 959 109 969 101 981 C 93 992 90 1002 90 1012 C 90 1036 94 1062 103 1091 C 112 1120 124 1149 138 1178 C 152 1206 167 1234 185 1260 C 203 1286 220 1308 238 1327 L 291 1319 C 277 1302 265 1284 255 1265 C 244 1246 235 1227 227 1207 C 219 1187 213 1168 209 1150 C 205 1131 203 1114 203 1098 C 212 1096 222 1092 232 1086 C 242 1079 252 1071 261 1062 C 269 1053 276 1044 282 1035 C 288 1026 291 1018 291 1012 Z" unicode="‘" />
<glyph horiz-adv-x="383" d="M 291 1231 C 291 1207 286 1181 278 1152 C 269 1123 258 1094 244 1065 C 230 1036 214 1008 196 982 C 178 956 161 933 143 915 L 92 924 C 104 940 116 957 127 977 C 137 996 147 1015 155 1035 C 163 1054 169 1073 173 1092 C 177 1111 180 1129 180 1145 C 170 1146 160 1150 150 1157 C 140 1163 130 1171 121 1180 C 112 1188 105 1197 99 1207 C 93 1216 90 1224 90 1231 C 90 1239 93 1249 101 1261 C 109 1272 118 1283 129 1293 C 139 1303 150 1311 162 1318 C 173 1325 182 1329 190 1329 C 198 1329 207 1325 219 1319 C 230 1312 241 1304 252 1294 C 262 1284 271 1273 279 1262 C 287 1250 291 1240 291 1231 Z" unicode="’" />
<glyph horiz-adv-x="381" d="M 291 80 C 291 56 286 30 277 1 C 268 -27 257 -56 243 -85 C 229 -114 213 -142 195 -168 C 177 -194 160 -217 143 -236 L 92 -227 C 104 -211 116 -193 127 -174 C 137 -154 147 -135 155 -115 C 163 -95 169 -75 173 -56 C 177 -37 180 -20 180 -4 C 170 -2 160 1 150 7 C 140 13 130 21 121 30 C 112 38 105 47 99 56 C 93 65 90 73 90 80 C 90 88 93 98 101 110 C 109 122 118 133 129 143 C 139 153 150 162 162 169 C 173 176 182 180 190 180 C 197 180 206 176 218 169 C 229 162 240 154 251 144 C 262 134 271 123 279 111 C 287 99 291 89 291 80 Z" unicode="‚" />
<glyph horiz-adv-x="709" d="M 618 1012 C 618 1003 614 993 606 982 C 598 970 589 959 579 949 C 569 939 558 930 547 923 C 535 916 526 913 518 913 C 510 913 500 916 489 923 C 477 930 466 939 456 949 C 446 959 437 969 429 981 C 421 992 418 1002 418 1012 C 418 1036 422 1062 431 1091 C 439 1120 451 1149 465 1178 C 479 1206 494 1234 512 1260 C 529 1286 547 1308 565 1327 L 616 1319 C 603 1302 591 1284 581 1265 C 570 1246 561 1227 553 1207 C 545 1187 538 1168 534 1150 C 530 1131 528 1114 528 1098 C 537 1096 547 1092 557 1086 C 567 1079 577 1071 586 1062 C 595 1053 603 1044 609 1035 C 615 1026 618 1018 618 1012 Z M 291 1012 C 291 1003 287 993 280 982 C 272 970 263 959 253 949 C 242 939 231 930 219 923 C 207 916 198 913 190 913 C 182 913 173 916 162 923 C 151 930 140 939 129 949 C 118 959 109 969 101 981 C 93 992 90 1002 90 1012 C 90 1036 94 1062 103 1091 C 112 1120 124 1149 138 1178 C 152 1206 167 1234 185 1260 C 203 1286 220 1308 238 1327 L 291 1319 C 277 1302 265 1284 255 1265 C 244 1246 235 1227 227 1207 C 219 1187 213 1168 209 1150 C 205 1131 203 1114 203 1098 C 212 1096 222 1092 232 1086 C 242 1079 252 1071 261 1062 C 269 1053 276 1044 282 1035 C 288 1026 291 1018 291 1012 Z" unicode="“" />
<glyph horiz-adv-x="709" d="M 618 1231 C 618 1207 613 1181 605 1152 C 596 1123 585 1094 571 1065 C 557 1036 541 1008 523 982 C 505 956 488 933 471 915 L 418 924 C 431 940 443 957 454 977 C 464 996 473 1015 481 1035 C 489 1054 495 1073 499 1092 C 503 1111 506 1129 506 1145 C 496 1146 486 1150 476 1157 C 466 1163 456 1171 448 1180 C 439 1188 432 1197 426 1207 C 420 1216 418 1224 418 1231 C 418 1239 421 1249 429 1261 C 436 1272 445 1283 455 1293 C 465 1303 476 1311 488 1318 C 500 1325 510 1329 518 1329 C 525 1329 534 1325 546 1319 C 557 1312 568 1304 579 1294 C 589 1284 598 1273 606 1262 C 614 1250 618 1240 618 1231 Z M 291 1231 C 291 1207 286 1181 278 1152 C 269 1123 258 1094 244 1065 C 230 1036 214 1008 196 982 C 178 956 161 933 143 915 L 92 924 C 104 940 116 957 127 977 C 137 996 147 1015 155 1035 C 163 1054 169 1073 173 1092 C 177 1111 180 1129 180 1145 C 170 1146 160 1150 150 1157 C 140 1163 130 1171 121 1180 C 112 1188 105 1197 99 1207 C 93 1216 90 1224 90 1231 C 90 1239 93 1249 101 1261 C 109 1272 118 1283 129 1293 C 139 1303 150 1311 162 1318 C 173 1325 182 1329 190 1329 C 198 1329 207 1325 219 1319 C 230 1312 241 1304 252 1294 C 262 1284 271 1273 279 1262 C 287 1250 291 1240 291 1231 Z" unicode="”" />
<glyph horiz-adv-x="709" d="M 618 80 C 618 56 613 30 605 1 C 596 -27 585 -56 571 -85 C 557 -114 541 -142 523 -168 C 505 -194 488 -217 471 -236 L 418 -227 C 430 -211 442 -193 453 -174 C 463 -154 473 -135 481 -115 C 489 -95 495 -75 499 -56 C 503 -37 506 -20 506 -4 C 496 -2 486 1 476 7 C 466 13 456 21 448 30 C 439 38 432 47 426 56 C 420 65 418 73 418 80 C 418 88 421 98 429 110 C 437 122 446 133 456 143 C 466 153 477 162 489 169 C 500 176 510 180 518 180 C 525 180 534 176 546 169 C 557 162 568 154 579 144 C 589 134 598 123 606 111 C 614 99 618 89 618 80 Z M 291 80 C 291 56 286 30 277 1 C 268 -27 257 -56 243 -85 C 229 -114 213 -142 195 -168 C 177 -194 160 -217 143 -236 L 92 -227 C 104 -211 116 -193 127 -174 C 137 -154 147 -135 155 -115 C 163 -95 169 -75 173 -56 C 177 -37 180 -20 180 -4 C 170 -2 160 1 150 7 C 140 13 130 21 121 30 C 112 38 105 47 99 56 C 93 65 90 73 90 80 C 90 88 93 98 101 110 C 109 122 118 133 129 143 C 139 153 150 162 162 169 C 173 176 182 180 190 180 C 197 180 206 176 218 169 C 229 162 240 154 251 144 C 262 134 271 123 279 111 C 287 99 291 89 291 80 Z" unicode="„" />
<glyph horiz-adv-x="825" d="M 735 809 L 475 836 L 453 -463 L 373 -463 L 352 836 L 90 809 L 90 940 L 348 913 L 346 1141 L 479 1141 L 477 913 L 735 940 L 735 809 Z" unicode="†" />
<glyph horiz-adv-x="825" d="M 735 -262 L 477 -236 L 479 -463 L 346 -463 L 348 -236 L 90 -262 L 90 -131 L 352 -158 L 358 340 L 352 836 L 90 809 L 90 940 L 348 913 L 346 1141 L 479 1141 L 477 913 L 735 940 L 735 809 L 475 836 L 467 340 L 475 -158 L 735 -131 L 735 -262 Z" unicode="‡" />
<glyph horiz-adv-x="725" d="M 635 567 C 635 527 628 491 614 459 C 600 426 580 398 556 374 C 531 350 502 332 469 319 C 436 305 400 299 362 299 C 324 299 288 305 255 319 C 221 332 192 350 168 374 C 144 398 125 426 111 459 C 97 491 90 527 90 567 C 90 606 97 642 111 676 C 125 709 144 738 168 762 C 192 786 221 804 255 818 C 288 831 324 838 362 838 C 400 838 436 831 469 818 C 502 804 531 786 556 762 C 580 738 600 709 614 676 C 628 642 635 606 635 567 Z" unicode="•" />
<glyph horiz-adv-x="1149" d="M 1059 80 C 1059 72 1055 62 1048 50 C 1040 38 1031 27 1021 17 C 1010 7 999 -1 987 -9 C 975 -16 964 -20 956 -20 C 948 -20 938 -16 927 -9 C 915 -1 904 7 894 17 C 883 27 874 38 867 50 C 859 62 856 72 856 80 C 856 88 859 97 867 109 C 874 120 883 131 894 141 C 904 151 915 160 927 168 C 938 176 948 180 956 180 C 964 180 975 176 987 168 C 999 160 1010 151 1021 141 C 1031 131 1040 120 1048 109 C 1055 97 1059 88 1059 80 Z M 674 80 C 674 72 670 62 663 50 C 655 38 646 27 636 17 C 625 7 614 -1 602 -9 C 590 -16 581 -20 573 -20 C 564 -20 554 -16 543 -9 C 531 -1 520 7 510 17 C 500 27 491 38 484 50 C 476 62 473 72 473 80 C 473 88 476 97 484 109 C 491 120 500 131 510 141 C 520 151 531 160 543 168 C 554 176 564 180 573 180 C 581 180 590 176 602 168 C 614 160 625 151 636 141 C 646 131 655 120 663 109 C 670 97 674 88 674 80 Z M 291 80 C 291 72 287 62 280 50 C 272 38 263 27 253 17 C 242 7 231 -1 219 -9 C 207 -16 198 -20 190 -20 C 182 -20 172 -16 161 -9 C 149 -1 138 7 128 17 C 117 27 108 38 101 50 C 93 62 90 72 90 80 C 90 88 93 97 101 109 C 108 120 117 131 128 141 C 138 151 149 160 161 168 C 172 176 182 180 190 180 C 198 180 207 176 219 168 C 231 160 242 151 253 141 C 263 131 272 120 280 109 C 287 97 291 88 291 80 Z" unicode="…" />
<glyph horiz-adv-x="2136" d="M 2048 256 C 2048 214 2041 177 2027 143 C 2013 109 1993 79 1969 55 C 1944 30 1915 11 1881 -2 C 1847 -16 1811 -23 1772 -23 C 1732 -23 1696 -16 1663 -2 C 1629 11 1600 30 1576 55 C 1551 79 1532 109 1518 143 C 1504 177 1497 214 1497 256 C 1497 296 1504 333 1518 367 C 1532 401 1551 430 1576 454 C 1600 478 1629 497 1663 511 C 1696 525 1732 532 1772 532 C 1811 532 1847 525 1881 511 C 1915 497 1944 478 1969 454 C 1993 430 2013 401 2027 367 C 2041 333 2048 296 2048 256 Z M 1939 256 C 1939 283 1934 307 1925 329 C 1916 350 1904 368 1889 383 C 1873 397 1856 408 1836 416 C 1816 424 1794 428 1772 428 C 1749 428 1727 424 1707 416 C 1687 408 1669 397 1654 383 C 1639 368 1627 350 1619 329 C 1610 307 1606 283 1606 256 C 1606 228 1610 204 1619 182 C 1627 160 1639 141 1654 126 C 1669 110 1687 98 1707 90 C 1727 82 1749 78 1772 78 C 1794 78 1816 82 1836 90 C 1856 98 1873 110 1889 126 C 1904 141 1916 160 1925 182 C 1934 204 1939 228 1939 256 Z M 1348 256 C 1348 214 1341 177 1327 143 C 1313 109 1293 79 1269 55 C 1244 30 1215 11 1181 -2 C 1147 -16 1110 -23 1071 -23 C 1031 -23 995 -16 961 -2 C 927 11 898 30 874 55 C 850 79 831 109 817 143 C 803 177 797 214 797 256 C 797 296 803 333 817 367 C 831 401 850 430 874 454 C 898 478 927 497 961 511 C 995 525 1031 532 1071 532 C 1110 532 1147 525 1181 511 C 1215 497 1244 478 1269 454 C 1293 430 1313 401 1327 367 C 1341 333 1348 296 1348 256 Z M 1239 256 C 1239 283 1234 307 1225 329 C 1216 350 1204 368 1189 383 C 1173 397 1155 408 1135 416 C 1115 424 1093 428 1071 428 C 1048 428 1027 424 1007 416 C 987 408 969 397 954 383 C 939 368 927 350 918 329 C 909 307 905 283 905 256 C 905 228 909 204 918 182 C 927 160 939 141 954 126 C 969 110 987 98 1007 90 C 1027 82 1048 78 1071 78 C 1093 78 1115 82 1135 90 C 1155 98 1173 110 1189 126 C 1204 141 1216 160 1225 182 C 1234 204 1239 228 1239 256 Z M 1280 1290 L 207 -39 L 139 18 L 1214 1346 L 1280 1290 Z M 627 1053 C 627 1011 620 974 606 940 C 592 906 572 877 548 853 C 523 828 494 809 460 796 C 426 782 389 776 350 776 C 311 776 275 782 242 796 C 208 809 179 828 155 853 C 130 877 111 906 97 940 C 83 974 76 1011 76 1053 C 76 1093 83 1130 97 1164 C 111 1198 130 1227 155 1251 C 179 1275 208 1294 242 1308 C 275 1322 311 1329 350 1329 C 389 1329 426 1322 460 1308 C 494 1294 523 1275 548 1251 C 572 1227 592 1198 606 1164 C 620 1130 627 1093 627 1053 Z M 518 1053 C 518 1079 513 1103 504 1125 C 495 1147 483 1165 468 1180 C 452 1195 434 1207 414 1215 C 394 1223 372 1227 350 1227 C 327 1227 306 1223 286 1215 C 266 1207 248 1195 233 1180 C 218 1165 206 1147 197 1125 C 188 1103 184 1079 184 1053 C 184 1025 188 1001 197 979 C 206 957 218 939 233 924 C 248 908 266 897 286 889 C 306 881 327 877 350 877 C 372 877 394 881 414 889 C 434 897 452 908 468 924 C 483 939 495 957 504 979 C 513 1001 518 1025 518 1053 Z" unicode="‰" />
<glyph horiz-adv-x="420" d="M 330 238 L 309 186 C 294 206 277 226 259 248 C 241 269 222 290 202 311 C 182 332 161 352 141 371 C 120 389 100 406 80 422 C 72 427 66 434 61 442 C 55 450 53 457 53 463 C 53 468 55 475 61 483 C 66 491 72 498 80 504 C 100 518 120 535 141 554 C 161 573 182 593 202 614 C 222 634 241 655 259 677 C 277 698 294 719 309 739 L 330 688 C 312 648 293 609 273 571 C 252 533 230 497 207 463 C 230 427 252 391 273 354 C 293 316 312 278 330 238 Z" unicode="‹" />
<glyph horiz-adv-x="420" d="M 367 463 C 367 457 364 450 359 442 C 353 434 347 427 340 422 C 320 406 299 389 279 371 C 258 352 238 332 218 311 C 198 290 180 269 162 248 C 144 226 127 206 113 186 L 90 238 C 107 278 126 316 146 354 C 166 391 188 427 213 463 C 188 497 166 533 146 571 C 126 609 107 648 90 688 L 113 739 C 127 719 144 698 162 677 C 180 655 198 634 218 614 C 238 593 258 573 279 554 C 299 535 320 518 340 504 C 347 498 353 491 359 483 C 364 475 367 468 367 463 Z" unicode="›" />
<glyph horiz-adv-x="1327" d="M 1233 1290 L 160 -39 L 94 18 L 1167 1346 L 1233 1290 Z" unicode="⁄" />
<glyph horiz-adv-x="1010" d="M 705 586 L 686 504 L 338 504 C 348 438 364 379 387 329 C 410 278 437 236 469 202 C 500 168 535 142 574 124 C 612 106 652 98 694 98 C 738 98 777 102 811 112 C 845 121 877 135 905 154 L 889 31 C 867 16 838 4 802 -3 C 765 -11 726 -16 684 -16 C 625 -16 569 -4 516 18 C 463 41 416 75 374 119 C 332 163 296 217 267 282 C 237 346 217 420 205 504 L 35 504 L 35 586 L 199 586 C 197 597 197 608 197 619 C 197 630 197 641 197 653 C 197 666 197 679 197 692 C 197 704 197 717 199 729 L 35 729 L 35 813 L 207 813 C 219 893 239 965 269 1029 C 299 1092 335 1145 377 1189 C 419 1233 466 1266 518 1289 C 570 1311 626 1323 684 1323 C 740 1323 788 1316 826 1304 C 864 1292 896 1278 924 1262 L 899 1149 C 873 1166 843 1180 807 1190 C 771 1200 733 1206 692 1206 C 649 1206 609 1197 571 1180 C 533 1163 498 1138 467 1105 C 436 1071 410 1030 388 981 C 366 932 350 876 340 813 L 727 813 L 709 729 L 330 729 C 328 717 328 704 328 691 C 328 677 328 664 328 651 C 328 639 328 628 328 618 C 328 608 328 597 330 586 L 705 586 Z" unicode="€" />
<glyph horiz-adv-x="852" d="M 774 928 L 717 928 L 698 1169 L 575 926 L 553 926 L 434 1167 L 416 928 L 360 928 L 389 1307 L 428 1307 L 567 1022 L 705 1307 L 745 1307 L 774 928 Z M 334 1253 L 219 1253 L 219 928 L 160 928 L 160 1253 L 45 1253 L 45 1307 L 334 1307 L 334 1253 Z" unicode="™" />
<glyph horiz-adv-x="1664" d="M 832 1376 C 706 1376 599 1328 510 1234 C 420 1139 376 1006 376 836 C 376 673 405 538 464 432 C 522 325 609 241 724 180 L 724 0 L 88 0 L 88 196 L 536 196 C 456 225 378 295 304 406 C 229 516 192 664 192 848 C 192 1024 247 1184 358 1330 C 468 1475 626 1548 832 1548 C 1037 1548 1195 1478 1306 1338 C 1416 1198 1472 1034 1472 848 C 1472 664 1434 516 1360 406 C 1285 295 1208 225 1128 196 L 1576 196 L 1576 0 L 940 0 L 940 180 C 1054 241 1141 325 1200 432 C 1258 538 1288 673 1288 836 C 1288 974 1246 1099 1162 1210 C 1078 1320 968 1376 832 1376 Z" unicode="Ω" />
<glyph horiz-adv-x="1280" d="M 476 -32 C 342 -32 239 5 166 80 C 92 154 56 248 56 360 C 56 506 108 636 214 750 C 319 863 449 920 604 920 C 668 920 734 908 802 886 C 870 863 924 840 964 816 C 972 872 976 928 976 984 C 976 1109 953 1207 908 1278 C 862 1348 800 1384 720 1384 C 634 1384 567 1374 518 1356 C 468 1337 418 1312 368 1280 L 324 1444 C 374 1473 430 1498 492 1518 C 553 1538 629 1548 720 1548 C 877 1548 992 1496 1064 1394 C 1136 1291 1172 1149 1172 968 C 1172 690 1104 454 968 260 C 832 65 668 -32 476 -32 Z M 488 128 C 602 128 698 174 774 268 C 850 361 906 500 944 684 C 922 705 882 726 824 748 C 765 769 706 780 648 780 C 520 780 424 738 360 654 C 296 570 264 476 264 372 C 264 300 282 241 318 196 C 354 150 410 128 488 128 Z" unicode="∂" />
<glyph horiz-adv-x="1536" d="M 76 0 L 652 1536 L 884 1536 L 1456 0 L 76 0 Z M 352 148 L 1164 148 L 752 1256 L 352 148 Z" unicode="∆" />
<glyph horiz-adv-x="926" d="M 850 946 C 850 890 840 838 820 791 C 800 743 772 703 738 669 C 703 635 662 608 615 589 C 567 570 517 561 463 561 C 409 561 358 570 311 589 C 263 608 222 635 188 669 C 153 703 126 743 106 791 C 86 838 76 890 76 946 C 76 1002 86 1053 106 1100 C 126 1147 153 1188 188 1222 C 222 1256 263 1282 311 1301 C 358 1319 409 1329 463 1329 C 517 1329 567 1319 615 1301 C 662 1282 703 1256 738 1222 C 772 1188 800 1147 820 1100 C 840 1053 850 1002 850 946 Z M 780 946 C 780 993 772 1036 756 1076 C 740 1115 717 1149 689 1177 C 660 1205 626 1226 588 1242 C 549 1258 507 1266 463 1266 C 417 1266 375 1258 336 1242 C 297 1226 263 1205 235 1177 C 207 1149 185 1115 169 1076 C 153 1036 145 993 145 946 C 145 898 153 855 169 816 C 185 776 207 743 235 715 C 263 687 297 665 336 650 C 375 634 417 627 463 627 C 507 627 549 634 588 650 C 626 665 660 687 689 715 C 717 743 740 776 756 816 C 772 855 780 898 780 946 Z M 637 1042 C 637 1022 633 1003 625 987 C 617 970 606 955 592 943 C 578 930 562 920 544 913 C 526 906 507 903 487 903 L 424 903 L 424 711 L 350 711 L 350 1178 L 487 1178 C 507 1178 526 1174 544 1168 C 562 1161 578 1152 592 1140 C 606 1128 617 1113 625 1097 C 633 1080 637 1062 637 1042 Z M 563 1042 C 563 1063 555 1080 540 1093 C 525 1105 505 1112 481 1112 L 424 1112 L 424 971 L 481 971 C 505 971 525 977 540 990 C 555 1003 563 1020 563 1042 Z" unicode="∏" />
<glyph horiz-adv-x="1152" d="M 1084 1524 L 1084 1344 L 332 1344 L 796 784 L 304 188 L 1080 188 L 1080 0 L 40 0 L 40 172 L 560 788 L 68 1380 L 68 1524 L 1084 1524 Z" unicode="∑" />
<glyph horiz-adv-x="883" d="M 770 514 L 113 514 L 113 610 L 770 610 L 770 514 Z" unicode="−" />
<glyph horiz-adv-x="1327" d="M 1233 1290 L 160 -39 L 94 18 L 1167 1346 L 1233 1290 Z" unicode="∕" />
<glyph horiz-adv-x="381" d="M 291 555 C 291 547 287 537 280 525 C 272 513 263 502 253 492 C 242 482 231 473 219 466 C 207 458 198 455 190 455 C 182 455 172 458 161 466 C 149 473 138 482 128 492 C 117 502 108 513 101 525 C 93 537 90 547 90 555 C 90 563 93 572 101 583 C 108 594 117 605 128 615 C 138 625 149 634 161 642 C 172 649 182 653 190 653 C 198 653 207 649 219 642 C 231 634 242 625 253 615 C 263 605 272 594 280 583 C 287 572 291 563 291 555 Z" unicode="∙" />
<glyph horiz-adv-x="1176" d="M 1149 1348 L 987 1348 L 412 -12 L 360 -12 L 145 487 L 41 487 L 59 610 L 227 610 L 340 352 C 350 329 358 308 366 288 C 373 268 381 246 389 223 L 393 223 C 404 252 416 283 430 317 C 444 351 458 385 472 421 C 486 456 501 492 517 528 C 532 564 547 599 561 633 L 909 1458 L 1149 1458 L 1149 1348 Z" unicode="√" />
<glyph horiz-adv-x="1536" d="M 468 1216 C 566 1216 646 1188 706 1134 C 766 1079 813 981 848 840 C 853 720 877 642 920 608 C 962 573 1013 556 1072 556 C 1128 556 1176 579 1218 626 C 1259 672 1280 736 1280 816 C 1280 882 1264 940 1234 988 C 1203 1036 1152 1060 1080 1060 C 1008 1060 954 1029 920 968 C 885 906 857 834 836 752 C 809 648 760 562 688 496 C 616 429 533 396 440 396 C 336 396 252 433 190 508 C 127 582 96 682 96 808 C 96 925 133 1022 208 1100 C 282 1177 369 1216 468 1216 Z M 1072 396 C 973 396 896 424 840 482 C 784 539 741 633 712 764 C 685 870 652 944 614 986 C 575 1027 528 1048 472 1048 C 408 1048 356 1026 316 982 C 276 938 256 874 256 792 C 256 709 271 648 302 610 C 332 571 381 552 448 552 C 509 552 562 576 608 624 C 653 672 689 752 716 864 C 748 984 796 1072 860 1130 C 924 1187 1004 1216 1100 1216 C 1198 1216 1280 1181 1346 1112 C 1411 1042 1444 945 1444 820 C 1444 700 1409 599 1340 518 C 1270 436 1181 396 1072 396 Z" unicode="∞" />
<glyph horiz-adv-x="1152" d="M -8 -392 L 56 -260 C 72 -265 88 -270 104 -274 C 120 -278 140 -280 164 -280 C 196 -280 222 -268 242 -246 C 262 -223 277 -178 288 -112 L 516 1224 C 534 1330 574 1410 636 1464 C 697 1517 778 1544 880 1544 C 941 1544 995 1536 1042 1522 C 1088 1507 1125 1492 1152 1476 L 1088 1304 C 1058 1322 1025 1340 988 1356 C 950 1372 910 1380 868 1380 C 806 1380 760 1360 730 1322 C 699 1283 680 1238 672 1188 L 448 -224 C 434 -296 402 -348 350 -382 C 298 -415 240 -432 176 -432 C 136 -432 99 -428 66 -420 C 32 -412 8 -402 -8 -392 Z" unicode="∫" />
<glyph horiz-adv-x="1536" d="M 236 400 C 230 429 228 456 228 480 C 228 546 248 604 288 652 C 328 700 390 724 476 724 C 542 724 600 714 650 696 C 699 677 745 659 788 642 C 830 624 872 610 912 598 C 952 586 988 580 1020 580 C 1070 580 1106 590 1128 610 C 1149 630 1160 654 1160 684 C 1160 694 1158 705 1156 716 L 1300 716 C 1305 686 1308 660 1308 636 C 1308 569 1288 512 1248 464 C 1208 416 1145 392 1060 392 C 993 392 935 400 886 418 C 836 435 790 452 748 470 C 705 487 664 501 624 512 C 584 522 548 528 516 528 C 465 528 429 518 408 500 C 386 481 376 458 376 432 C 376 421 377 410 380 400 L 236 400 Z M 236 860 C 230 889 228 916 228 940 C 228 1006 248 1064 288 1112 C 328 1160 390 1184 476 1184 C 542 1184 600 1174 650 1156 C 699 1137 745 1119 788 1102 C 830 1084 872 1070 912 1058 C 952 1046 988 1040 1020 1040 C 1070 1040 1106 1050 1128 1070 C 1149 1090 1160 1114 1160 1144 C 1160 1154 1158 1165 1156 1176 L 1300 1176 C 1305 1146 1308 1120 1308 1096 C 1308 1029 1288 972 1248 924 C 1208 876 1145 852 1060 852 C 993 852 935 860 886 878 C 836 895 790 912 748 930 C 705 947 664 961 624 972 C 584 982 548 988 516 988 C 465 988 429 978 408 960 C 386 941 376 918 376 892 C 376 881 377 870 380 860 L 236 860 Z" unicode="≈" />
<glyph horiz-adv-x="1536" d="M 212 404 L 212 604 L 1328 604 L 1328 404 L 212 404 Z M 212 976 L 212 1176 L 1328 1176 L 1328 976 L 212 976 Z M 548 188 L 372 188 L 996 1356 L 1168 1356 L 548 188 Z" unicode="≠" />
<glyph horiz-adv-x="946" d="M 856 242 L 90 492 L 90 645 L 856 895 L 856 776 L 197 567 L 856 358 L 856 242 Z M 856 0 L 90 0 L 90 113 L 856 113 L 856 0 Z" unicode="≤" />
<glyph horiz-adv-x="946" d="M 856 492 L 90 242 L 90 358 L 750 567 L 90 776 L 90 895 L 856 645 L 856 492 Z M 856 0 L 90 0 L 90 113 L 856 113 L 856 0 Z" unicode="≥" />
<glyph horiz-adv-x="1210" d="M 1028 567 L 594 133 L 162 567 L 594 1001 L 1028 567 Z M 901 567 L 594 872 L 289 567 L 594 262 L 901 567 Z" unicode="◊" />
<glyph horiz-adv-x="1229" d="M 1157 309 C 1157 291 1153 275 1147 261 C 1140 247 1131 236 1121 227 C 1110 217 1098 210 1085 206 C 1072 201 1059 199 1047 199 L 1047 0 L 80 0 L 80 928 L 1047 928 L 1047 418 L 1157 309 Z M 993 469 L 993 795 L 668 795 L 993 469 Z M 473 795 L 133 795 C 133 771 137 748 146 728 C 155 707 167 689 183 674 C 198 658 216 646 237 638 C 257 629 279 625 303 625 C 326 625 348 629 369 638 C 389 646 407 658 423 674 C 438 689 450 707 459 728 C 468 748 473 771 473 795 Z M 993 51 L 993 217 L 205 590 C 177 603 153 621 133 645 L 133 51 L 993 51 Z" unicode="" />
<glyph horiz-adv-x="1280" d="M 1346 1432 L 1319 1321 C 1300 1329 1278 1335 1253 1340 C 1228 1345 1205 1348 1184 1348 C 1106 1348 1043 1324 997 1278 C 951 1232 928 1161 928 1065 L 928 928 L 1221 928 L 1198 821 L 928 821 L 928 0 L 797 0 L 797 821 L 330 821 L 330 0 L 199 0 L 199 821 L 35 821 L 35 928 L 199 928 L 199 1071 C 199 1135 208 1192 226 1241 C 244 1289 270 1330 304 1362 C 338 1394 378 1418 425 1434 C 471 1450 523 1458 580 1458 C 648 1458 707 1448 759 1428 C 810 1408 855 1384 895 1356 C 929 1390 970 1416 1018 1433 C 1066 1449 1119 1458 1178 1458 C 1212 1458 1243 1456 1271 1452 C 1299 1448 1324 1441 1346 1432 Z M 834 1255 C 802 1282 764 1304 721 1322 C 678 1339 633 1348 586 1348 C 508 1348 445 1324 399 1278 C 353 1232 330 1161 330 1065 L 330 928 L 797 928 L 797 1071 C 797 1107 800 1140 807 1171 C 813 1201 822 1229 834 1255 Z" unicode="ﬀ" />
<glyph horiz-adv-x="1049" d="M 928 0 L 797 0 L 797 821 L 330 821 L 330 0 L 199 0 L 199 821 L 35 821 L 35 928 L 199 928 L 199 1071 C 199 1135 208 1192 226 1241 C 244 1289 270 1330 304 1362 C 338 1394 378 1418 425 1434 C 471 1450 523 1458 580 1458 C 614 1458 645 1456 674 1452 C 703 1448 728 1441 750 1432 L 721 1321 C 702 1329 680 1335 655 1340 C 630 1345 607 1348 586 1348 C 508 1348 445 1324 399 1278 C 353 1232 330 1161 330 1065 L 330 928 L 928 928 L 928 0 Z" unicode="ﬁ" />
<glyph horiz-adv-x="1096" d="M 1044 57 L 956 -31 C 938 -25 919 -16 901 -5 C 882 5 865 20 850 38 C 834 56 822 79 812 106 C 802 133 797 165 797 203 L 797 1280 C 773 1298 743 1314 705 1328 C 667 1341 628 1348 586 1348 C 508 1348 445 1324 399 1278 C 353 1232 330 1161 330 1065 L 330 928 L 563 928 L 563 821 L 330 821 L 330 0 L 199 0 L 199 821 L 35 821 L 35 928 L 199 928 L 199 1071 C 199 1135 208 1192 226 1241 C 244 1289 270 1330 304 1362 C 338 1394 378 1418 425 1434 C 471 1450 523 1458 580 1458 C 618 1458 655 1454 689 1447 C 723 1439 755 1430 784 1418 C 813 1406 840 1392 864 1377 C 888 1361 909 1345 928 1329 L 928 217 C 928 195 931 175 937 157 C 943 139 952 123 962 109 C 972 95 985 84 999 76 C 1013 67 1028 61 1044 57 Z" unicode="ﬂ" />
<glyph horiz-adv-x="1645" d="M 1524 0 L 1395 0 L 1395 821 L 928 821 L 928 0 L 797 0 L 797 821 L 330 821 L 330 0 L 199 0 L 199 821 L 35 821 L 35 928 L 199 928 L 199 1071 C 199 1135 208 1192 226 1241 C 244 1289 270 1330 304 1362 C 338 1394 378 1418 425 1434 C 471 1450 523 1458 580 1458 C 648 1458 707 1448 759 1428 C 810 1408 855 1384 895 1356 C 929 1390 970 1416 1018 1433 C 1066 1449 1119 1458 1178 1458 C 1212 1458 1243 1456 1271 1452 C 1299 1448 1324 1441 1346 1432 L 1319 1321 C 1300 1329 1278 1335 1253 1340 C 1228 1345 1205 1348 1184 1348 C 1106 1348 1043 1324 997 1278 C 951 1232 928 1161 928 1065 L 928 928 L 1524 928 L 1524 0 Z M 834 1255 C 802 1282 764 1304 721 1322 C 678 1339 633 1348 586 1348 C 508 1348 445 1324 399 1278 C 353 1232 330 1161 330 1065 L 330 928 L 797 928 L 797 1071 C 797 1107 800 1140 807 1171 C 813 1201 822 1229 834 1255 Z" unicode="ﬃ" />
<glyph horiz-adv-x="1694" d="M 1642 57 L 1554 -31 C 1536 -25 1517 -16 1499 -5 C 1480 5 1463 20 1448 38 C 1432 56 1420 79 1410 106 C 1400 133 1395 165 1395 203 L 1395 1280 C 1371 1298 1341 1314 1303 1328 C 1265 1341 1226 1348 1184 1348 C 1106 1348 1043 1324 997 1278 C 951 1232 928 1161 928 1065 L 928 928 L 1161 928 L 1161 821 L 928 821 L 928 0 L 797 0 L 797 821 L 330 821 L 330 0 L 199 0 L 199 821 L 35 821 L 35 928 L 199 928 L 199 1071 C 199 1135 208 1192 226 1241 C 244 1289 270 1330 304 1362 C 338 1394 378 1418 425 1434 C 471 1450 523 1458 580 1458 C 648 1458 707 1448 759 1428 C 810 1408 855 1384 895 1356 C 929 1390 970 1416 1018 1433 C 1066 1449 1119 1458 1178 1458 C 1216 1458 1253 1454 1287 1447 C 1321 1439 1352 1430 1381 1418 C 1410 1406 1436 1392 1460 1377 C 1484 1361 1505 1345 1524 1329 L 1524 217 C 1524 195 1527 175 1533 157 C 1539 139 1548 123 1559 109 C 1570 95 1583 84 1597 76 C 1611 67 1626 61 1642 57 Z M 834 1255 C 802 1282 764 1304 721 1322 C 678 1339 633 1348 586 1348 C 508 1348 445 1324 399 1278 C 353 1232 330 1161 330 1065 L 330 928 L 797 928 L 797 1071 C 797 1107 800 1140 807 1171 C 813 1201 822 1229 834 1255 Z" unicode="ﬄ" />
</font>
</defs>
</svg>
